<?xml version="1.0" standalone="no"?>
<!DOCTYPE svg PUBLIC "-//W3C//DTD SVG 1.1//EN" "http://www.w3.org/Graphics/SVG/1.1/DTD/svg11.dtd" >
<svg xmlns="http://www.w3.org/2000/svg" xmlns:xlink="http://www.w3.org/1999/xlink" version="1.1">
<metadata></metadata>
<defs>
<font id="century_schoolbook_lroma" horiz-adv-x="1138" >
<font-face units-per-em="2048" ascent="1638" descent="-410" />
<missing-glyph horiz-adv-x="569" />
<glyph unicode="&#xfb01;" horiz-adv-x="1251" d="M33 866v88h194v19q0 141 31 232t100 161q141 141 375 141q139 0 221 -54t82 -144q0 -55 -35.5 -89t-93.5 -34q-53 0 -90 30.5t-37 75.5t23 74q12 16 12 27q0 33 -96 32q-145 0 -225 -110q-74 -98 -74 -318v-43h309q106 0 313 15v-717v-84q0 -59 28 -76.5t126 -17.5h8v-74 h-518v74h8q100 0 128 17.5t28 78.5v82v473q0 100 -13.5 120.5t-74.5 20.5h-342v-614v-84q0 -59 27.5 -76.5t125.5 -17.5h9v-74h-519v74h9q100 0 127.5 17.5t27.5 78.5v82v614h-194z" />
<glyph unicode="&#xfb02;" horiz-adv-x="1251" d="M33 866v88h180v64q0 145 36 234t122 157q70 57 152.5 78.5t224.5 21.5h290v-1257v-82q0 -61 28 -78.5t128 -17.5h14v-74h-530v74h14q98 0 126 17.5t28 78.5v82v944q-27 -8 -45 -8q-41 0 -68.5 27.5t-27.5 72.5q0 39 30 88q4 8 4 13q0 39 -82 38q-158 0 -225 -143 q-27 -61 -26 -213v-117h225v-88h-225v-614v-82q0 -61 27.5 -78.5t127.5 -17.5h37v-74h-547v74h8q98 0 126 17.5t28 78.5v82v614h-180z" />
<glyph horiz-adv-x="0" />
<glyph unicode="&#xd;" horiz-adv-x="681" />
<glyph unicode=" "  horiz-adv-x="569" />
<glyph unicode="&#x09;" horiz-adv-x="569" />
<glyph unicode="&#xa0;" horiz-adv-x="569" />
<glyph unicode="!" horiz-adv-x="606" d="M178 100.5q0 53.5 38 90t91 36.5t90 -37.5t37 -89.5q0 -53 -38 -91t-91 -38t-90 38t-37 91.5zM180 1315q0 193 127 192q125 0 125 -194q0 -82 -37 -266q-29 -145 -38 -266.5t-11 -389.5h-80q-4 279 -12 395.5t-37 260.5q-37 184 -37 268z" />
<glyph unicode="&#x22;" horiz-adv-x="796" d="M125 1421q0 37 25.5 61.5t62.5 24.5q39 0 63.5 -24.5t24.5 -63.5q0 -23 -2 -33l-63 -366h-46l-63 366q-2 12 -2 35zM496 1419q0 39 25.5 63.5t62.5 24.5q39 0 63.5 -24.5t24.5 -63.5q0 -23 -2 -33l-64 -366h-45l-63 366q-2 12 -2 33z" />
<glyph unicode="#" d="M68 467v115h225l39 270h-209v115h225l64 438h133l-64 -438h252l64 438h133l-64 -438h207v-115h-223l-39 -270h207v-115h-223l-68 -467h-133l68 467h-252l-68 -467h-133l67 467h-208zM426 582h252l39 270h-252z" />
<glyph unicode="$" d="M92 303q0 76 41 126t105 50q53 0 88.5 -36.5t35.5 -90.5q0 -45 -20 -73.5t-74 -59.5q-16 -8 -16 -22q0 -47 75.5 -85t186.5 -46v571q-147 45 -223 88q-172 104 -172 313q0 160 104.5 262.5t290.5 124.5v215h96v-213q168 -12 270.5 -95t102.5 -206q0 -68 -34 -105.5 t-93 -37.5q-55 0 -89 33t-34 86q0 35 14.5 57.5t59.5 54.5q12 12 12 21q0 33 -62.5 62.5t-146.5 37.5v-506q18 -6 47 -14q207 -61 291 -143q96 -96 96 -258q0 -193 -115.5 -308.5t-318.5 -125.5v-246h-96v243q-106 6 -180 29q-113 37 -177.5 117t-64.5 180zM266 1104 q0 -88 56.5 -143.5t191.5 -100.5v471q-109 -8 -178.5 -72.5t-69.5 -154.5zM610 68q68 8 113 26q76 33 123 100.5t47 145.5q0 168 -197 244q-27 10 -86 26v-542z" />
<glyph unicode="%" horiz-adv-x="1705" d="M92 911q0 102 63.5 228.5t153.5 203.5q125 106 260 107q113 0 187 -96q80 -45 149 -45q207 0 332 170h94l-848 -1479h-102l737 1292q-100 -59 -196 -59q-61 0 -129 24q6 -45 6 -65q0 -94 -40 -197.5t-106 -181.5q-131 -156 -299 -156q-115 0 -188.5 72t-73.5 182z M270 856q0 -53 32 -87t83 -34q123 0 230.5 148.5t107.5 318.5q0 45 -12 84q-76 27 -125 84q-63 -23 -97 -55.5t-92 -134.5q-127 -221 -127 -324zM911 279q0 186 142 364q145 178 329 178q104 0 172 -68.5t68 -174.5q0 -90 -43 -199t-113 -197q-119 -152 -288 -151 q-115 0 -191 70.5t-76 177.5zM1085 227q0 -49 34 -82.5t81 -33.5q123 0 233.5 147.5t110.5 314.5q0 70 -37 118t-90 48q-90 0 -180 -149q-152 -246 -152 -363z" />
<glyph unicode="&#x26;" horiz-adv-x="1669" d="M104 387q0 137 91.5 254t263.5 201q-86 182 -86 305q0 164 98 263t260 99q143 0 231.5 -76.5t88.5 -199.5q0 -82 -42 -160t-114 -127q-66 -45 -199 -104q180 -332 330 -508q143 166 143 309q0 96 -184 96h-20v88h577v-88h-22q-100 0 -160 -55q-27 -29 -43.5 -56.5 t-91.5 -166.5q-51 -92 -135 -197q117 -125 225 -125q68 0 116 55.5t66 151.5l90 -12q-14 -119 -69 -201q-102 -156 -289 -156q-84 0 -150.5 31t-140.5 107q-188 -145 -393 -146q-209 0 -324 125q-117 127 -117 293zM324 498q0 -154 104 -271.5t240 -117.5q88 0 206 75 q-129 152 -201.5 262.5t-174.5 311.5q-92 -53 -133 -114.5t-41 -145.5zM565 1219q0 -109 88 -291q51 27 60 30q174 94 174 271q0 84 -45 138t-117 54q-70 0 -115 -57t-45 -145z" />
<glyph unicode="'" horiz-adv-x="417" d="M121 1421q0 37 25.5 61.5t62.5 24.5q39 0 63.5 -24.5t24.5 -63.5q0 -23 -2 -33l-64 -366h-45l-63 366q-2 12 -2 35z" />
<glyph unicode="(" horiz-adv-x="681" d="M74 629q0 383 239 667q92 109 258 211v-75q-154 -135 -220 -321.5t-66 -481.5t66.5 -482.5t219.5 -322.5v-76q-180 111 -286 246q-211 281 -211 635z" />
<glyph unicode=")" horiz-adv-x="681" d="M111 -176q154 135 220 321.5t66 483.5q0 295 -66.5 481t-219.5 322v75q180 -109 286 -245q211 -276 211 -633q0 -387 -239 -668q-92 -111 -258 -213v76z" />
<glyph unicode="*" horiz-adv-x="1024" d="M115 877q0 86 106 98q115 12 182 51l64 35l-64 37q-66 39 -182 51q-106 10 -106 98q0 33 25.5 56.5t60.5 23.5q49 0 90 -57.5t68.5 -84t66.5 -48.5l63 -37v74q0 49 -7 77.5t-40 104.5q-16 39 -16 61q0 35 25.5 62.5t58.5 27.5t59.5 -27.5t26.5 -62.5q0 -25 -35 -106 q-29 -63 -29 -137v-74l64 37q68 39 135 133q41 57 90 57q35 0 60.5 -23.5t25.5 -56.5q0 -86 -106 -98q-115 -12 -183 -51l-63 -37l63 -37q70 -37 183 -49q106 -12 106 -98q0 -33 -25.5 -56.5t-60.5 -23.5q-49 0 -90 57q-68 94 -135 133l-64 37v-74q0 -49 8.5 -78.5 t39.5 -105.5q16 -39 16 -64q0 -33 -26.5 -60.5t-59.5 -27.5t-59.5 29t-26.5 62q0 23 16 61q33 74 41 104.5t8 79.5v74l-63 -37q-70 -41 -135 -135q-41 -55 -90 -55q-35 0 -60.5 23.5t-25.5 56.5z" />
<glyph unicode="+" horiz-adv-x="1241" d="M104 436v164h435v434h163v-434h435v-164h-435v-436h-163v436h-435z" />
<glyph unicode="," horiz-adv-x="569" d="M131 -317q207 145 207 278q0 18 -14 19h-7q-4 -2 -32 -3q-63 0 -101.5 33t-38.5 88q0 53 38 88t96 35q76 0 121.5 -55t45.5 -148q0 -209 -268 -393z" />
<glyph unicode="-" horiz-adv-x="681" d="M86 399v170h510v-170h-510z" />
<glyph unicode="." horiz-adv-x="569" d="M152 100.5q0 53.5 38 90t91 36.5q51 0 89 -37.5t38 -89.5q0 -53 -38 -91t-91.5 -38t-90 38t-36.5 91.5z" />
<glyph unicode="/" horiz-adv-x="569" d="M-47 -29l547 1536h118l-546 -1536h-119z" />
<glyph unicode="0" d="M86 700q0 322 140.5 532t355.5 210q96 0 188 -56.5t152 -152.5q131 -215 131 -539q0 -319 -136.5 -522t-351.5 -203q-207 0 -343 208t-136 523zM313 743q0 -252 15.5 -369.5t58.5 -189.5q76 -127 182 -127q123 0 199 162q55 121 55 512q0 209 -16 316.5t-57 179.5 q-77 127 -183 127q-125 0 -198 -164q-55 -119 -56 -447z" />
<glyph unicode="1" d="M205 0v96h133q123 0 152.5 15.5t29.5 81.5v59v821q0 90 -18.5 109.5t-108.5 19.5h-180v88q141 4 268 46.5t178 105.5h74q-14 -203 -14 -344v-846q0 -84 2 -100.5t12 -26.5q23 -29 170 -29h113v-96h-811z" />
<glyph unicode="2" d="M72 0v57q117 154 200 252l160 172l121 127q127 135 184.5 246t57.5 223q0 129 -72 203t-199 74q-152 0 -233 -99q-49 -59 -49 -112q0 -20 11 -28.5t69 -33.5q74 -31 73 -116q0 -55 -34.5 -90t-92.5 -35q-74 0 -119 60.5t-45 156.5q0 164 133.5 274.5t327.5 110.5 q201 0 331 -112.5t130 -287.5q0 -145 -98 -280q-66 -86 -314 -277q-98 -78 -155.5 -130t-163.5 -162h459q94 0 121.5 23.5t48.5 121.5l20 104h90l-39 -442h-923z" />
<glyph unicode="3" d="M86 305q0 80 41 130t104 50q57 0 94 -36.5t37 -92.5q0 -72 -79 -120q-31 -16 -38 -23.5t-7 -22.5q0 -47 86 -90t182 -43q137 0 212 87t75 245q0 152 -59.5 231.5t-174.5 79.5q-18 0 -96 -2q-27 -2 -49 -2q-63 0 -64 52q0 55 66 55q29 0 45 -2q61 -4 82 -4q225 0 225 290 q0 266 -225 267q-86 0 -161 -38t-75 -81q0 -18 27 -37q63 -45 63 -104q0 -55 -33.5 -89t-87.5 -34q-59 0 -97 40t-38 103q0 139 121 233.5t301 94.5q190 0 304 -96.5t114 -255.5q0 -225 -225 -320q-6 -2 -11.5 -4t-14.5 -5l-21 -7q311 -88 311 -369q0 -188 -134 -302 t-356 -114q-197 0 -320.5 93.5t-123.5 242.5z" />
<glyph unicode="4" d="M57 358v115l697 969h88q-10 -154 -11 -410v-559h248v-115h-248v-106v-59q0 -66 30 -81.5t155 -15.5h8v-96h-598v96h23q125 0 154.5 15.5t29.5 81.5v59v106h-576zM182 473h451v621z" />
<glyph unicode="5" d="M92 305q0 72 43 122t105 50q55 0 92 -37t37 -90q0 -41 -17.5 -66.5t-64.5 -54.5q-37 -20 -37 -45q0 -47 79 -87t171 -40q141 0 209 72q96 100 96 317q0 174 -78 274.5t-215 100.5q-119 0 -221 -73q-12 -125 -92 -125q-29 0 -47.5 19.5t-18.5 49.5q0 45 57 105 q43 377 56 645q258 -61 422 -62q147 0 272 54q14 8 27 8q16 0 16 -19q0 -20 -31 -73q-104 -174 -368 -174q-103 -1 -248 34l-35 -348q147 61 264 62q207 0 335 -128t128 -337q0 -225 -141.5 -357.5t-382.5 -132.5q-156 0 -260 68q-70 47 -111 119.5t-41 148.5z" />
<glyph unicode="6" d="M86 631q0 346 174 594q74 102 185.5 159.5t238.5 57.5q145 0 240.5 -69.5t95.5 -176.5q0 -63 -38 -105t-97 -42q-53 0 -89 34.5t-36 85.5q0 39 31 97q10 18 10 28q0 59 -115 60q-96 0 -174 -60.5t-123 -169.5q-33 -78 -46.5 -154.5t-29.5 -273.5q137 184 338 185 q174 0 290 -121t116 -301q0 -209 -142 -355q-129 -135 -329 -135q-227 0 -363.5 181.5t-136.5 480.5zM328 416q0 -113 49 -209q74 -150 213 -150q113 0 178.5 105.5t65.5 281.5q0 145 -63.5 228.5t-174.5 83.5q-125 0 -196.5 -91.5t-71.5 -248.5z" />
<glyph unicode="7" d="M121 946l63 496q319 -20 537 -21q168 0 319 13v-60q-6 -12 -10 -23.5t-7 -17.5t-3 -8l-92 -192q-162 -358 -208 -528.5t-38 -389.5q2 -131 -29.5 -187.5t-105.5 -56.5q-59 0 -94 41t-35 111q0 127 96 369q55 137 221 464l139 281q-55 -2 -126 -2q-113 0 -351 12 q-16 2 -45 2q-45 0 -63.5 -27.5t-40.5 -127.5l-37 -162z" />
<glyph unicode="8" d="M84 344q0 166 125 268q57 47 174 93q-98 51 -141 102q-90 100 -90 244q0 170 122.5 280.5t309.5 110.5q176 0 291.5 -92.5t115.5 -233.5q0 -194 -225 -317q100 -45 156 -92q129 -113 129 -295q0 -94 -38 -181.5t-104 -144.5q-129 -117 -362 -117q-199 0 -322 88 q-66 49 -103.5 127t-37.5 160zM254 344q0 -135 80 -211t223 -76q152 0 241 73t89 196q0 100 -52 164.5t-169 105.5l-189 68q-119 -55 -171 -130t-52 -190zM309 1137q0 -88 56.5 -149.5t181.5 -108.5l135 -50q88 74 123 134.5t35 140.5q0 113 -72 181.5t-190 68.5 q-121 0 -195 -60.5t-74 -156.5z" />
<glyph unicode="9" d="M80 948q0 207 136 350.5t333 143.5q229 0 365.5 -183.5t136.5 -492.5q0 -326 -156 -561.5t-446 -235.5q-141 0 -236.5 68.5t-95.5 169.5q0 61 41 104t98 43q51 0 86 -34.5t35 -86.5q0 -33 -29 -90q-12 -25 -12 -34q0 -23 31.5 -37.5t83.5 -14.5q102 0 183 63.5t120 176.5 q42 119 73 414q-84 -104 -158.5 -145.5t-183.5 -41.5q-174 0 -289.5 121t-115.5 303zM303 985q0 -162 63.5 -250t180.5 -88q139 0 215 119q47 72 47 207q0 172 -68.5 276.5t-183.5 104.5q-127 0 -192 -113q-61 -96 -62 -256z" />
<glyph unicode=":" horiz-adv-x="569" d="M176 100.5q0 53.5 38 90t91 36.5q51 0 89 -37.5t38 -89.5q0 -53 -38 -91t-91 -38t-90 38t-37 91.5zM176 841.5q0 53.5 38 90.5t91 37q51 0 89 -38t38 -89q0 -53 -38 -91t-91 -38t-90 37.5t-37 91z" />
<glyph unicode=";" horiz-adv-x="569" d="M147 -317q207 145 207 278q0 18 -14 19h-6q-4 -2 -33 -3q-63 0 -101 33t-38 88q0 53 38 88t95 35q76 0 122 -55t46 -148q0 -209 -268 -393zM178 839.5q0 53.5 38 90.5t91 37t90 -37t37 -90.5t-38 -91t-91 -37.5t-90 37.5t-37 91z" />
<glyph unicode="&#x3c;" horiz-adv-x="1241" d="M100 440v156l1043 475v-174l-815 -379l815 -379v-174z" />
<glyph unicode="=" horiz-adv-x="1241" d="M104 229v164h1033v-164h-1033zM104 643v164h1033v-164h-1033z" />
<glyph unicode="&#x3e;" horiz-adv-x="1241" d="M98 -35v174l815 379l-815 379v174l1043 -475v-156z" />
<glyph unicode="?" horiz-adv-x="909" d="M51 1204q0 131 112.5 217t287.5 86q176 0 283.5 -98t107.5 -258q0 -106 -47 -181t-199 -210q-98 -84 -126 -150.5t-26 -218.5h-90v66q0 127 29 207q20 53 41.5 87.5t136.5 190.5q66 94 66 221q0 119 -60.5 185.5t-169.5 66.5q-74 0 -131 -30.5t-57 -71.5q0 -18 33 -45 q59 -49 59 -109q0 -47 -34 -79.5t-83 -32.5q-57 0 -95 45t-38 112zM266 98.5q0 53.5 38 90t91 36.5q51 0 89 -36.5t38 -90t-38 -91.5t-91 -38t-90 38t-37 91.5z" />
<glyph unicode="@" horiz-adv-x="1509" d="M88 729q0 344 211 565q96 100 228 156.5t270 56.5q268 0 457.5 -181t189.5 -435q0 -139 -59.5 -269t-163.5 -216q-123 -104 -244 -105q-63 0 -102 37t-39 96q0 25 2 41q-59 -88 -109.5 -125t-112.5 -37q-111 0 -188 93q-68 80 -68 212q0 197 132 347q59 66 136 106.5 t144 40.5q121 0 160 -133l33 115h180l-150 -592q-8 -33 -8 -62q0 -20 15.5 -34.5t37.5 -14.5q41 0 92.5 39t96.5 102q109 156 108 345q0 104 -45 206.5t-125 178.5q-147 141 -360 141q-262 0 -433 -187.5t-171 -476.5q0 -291 173 -477t441 -186q314 0 488 309h125 q-55 -129 -189 -250q-186 -164 -440 -164q-303 0 -508 218.5t-205 539.5zM545 555q0 -76 25.5 -118t72.5 -42q98 0 176 178q74 166 74 308q0 68 -24.5 107.5t-67.5 39.5q-76 0 -129 -86q-57 -88 -92 -194.5t-35 -192.5z" />
<glyph unicode="A" horiz-adv-x="1478" d="M-16 0v96h8q92 0 145 64q35 37 80 153l471 1194h86l522 -1280q35 -86 65 -108.5t107 -22.5h29v-96h-635v96h86q127 0 127 54q0 14 -16 55l-111 274h-542l-68 -180q-18 -49 -19 -86q0 -117 166 -117h41v-96h-542zM446 590h459l-231 581z" />
<glyph unicode="B" horiz-adv-x="1478" d="M61 0v96h37q125 0 155 15.5t30 81.5v59v975v59q0 66 -30 81t-155 15h-37v97h736q186 0 297 -49q88 -39 144 -126t56 -186q0 -168 -137 -268q-68 -51 -194 -78q209 -37 309 -128t100 -243q0 -188 -150.5 -294.5t-416.5 -106.5h-744zM512 225q0 -84 20.5 -106.5t98.5 -22.5 h86q186 0 278 47q125 61 125 265q0 201 -147 270q-90 39 -281 39h-180v-492zM512 813h182q197 0 280 63.5t83 215.5q0 178 -113 247q-63 43 -215 43h-82q-80 0 -107.5 -21.5t-27.5 -80.5v-467z" />
<glyph unicode="C" horiz-adv-x="1478" d="M92 725q0 309 193 539q206 245 499 245h2q102 0 178 -28.5t185 -108.5l82 121h78l30 -592h-90q-63 213 -116 305q-59 98 -150.5 152.5t-198.5 54.5q-98 0 -186 -50t-135 -136q-100 -176 -101 -510q0 -330 110 -490.5t337 -160.5q254 0 381 213q53 88 82 243l96 -16 q-35 -258 -186.5 -397.5t-397.5 -139.5q-303 0 -497.5 213t-194.5 543z" />
<glyph unicode="D" horiz-adv-x="1593" d="M59 0v96h39q123 0 153 15.5t30 81.5v59v975v59q0 66 -30 81t-153 15h-39v97h652q334 0 497 -105q141 -92 216 -254t75 -372q0 -229 -83 -399.5t-238 -258.5q-160 -90 -430 -90h-689zM510 209q0 -76 19.5 -94.5t97.5 -18.5h139q248 0 355.5 149.5t107.5 493.5 q0 340 -117 491.5t-379 151.5h-106q-76 0 -96.5 -19.5t-20.5 -94.5v-1059z" />
<glyph unicode="E" horiz-adv-x="1478" d="M59 0v96h37q125 0 155 15.5t30 81.5v59v975v59q0 66 -30 81t-155 15h-37v97h1231l29 -525h-88q-45 272 -148 353q-51 43 -125.5 59t-212.5 16h-106q-84 0 -106.5 -18t-22.5 -84v-467h49q145 0 212 65.5t75 215.5h96v-672h-96q-6 168 -78 240q-31 33 -77 44t-140 11h-41 v-522q0 -53 16 -68q31 -31 131 -31h136q258 0 352 121q80 96 123 330h90l-41 -547h-1258z" />
<glyph unicode="F" horiz-adv-x="1366" d="M59 0v96h37q125 0 155 15.5t30 81.5v59v975v59q0 66 -30 81t-155 15h-37v97h1219l29 -525h-90q-43 262 -136.5 345t-347.5 83h-94q-84 0 -106.5 -18t-22.5 -84v-467h49q145 0 212 65.5t75 215.5h96v-672h-96q-6 166 -76 240q-33 33 -78 44t-141 11h-41v-465v-59 q0 -66 29.5 -81.5t154.5 -15.5h68v-96h-703z" />
<glyph unicode="G" horiz-adv-x="1593" d="M86 713q0 408 297 647q183 149 415 149h3q113 0 192.5 -30.5t180.5 -110.5l79 125h78l29 -575h-88q-127 495 -478 495h-1q-213 0 -325 -179t-112 -521q0 -315 109 -477q51 -76 143 -123t191 -47q100 0 188 47t127 123q41 82 41 219q0 84 -28.5 103.5t-157.5 19.5h-39v96 h651v-96h-31q-145 0 -172 -29q-12 -14 -12 -127v-451h-86l-76 185q-100 -100 -198.5 -143.5t-227.5 -43.5q-147 0 -281.5 59.5t-230.5 168.5q-180 203 -180 516z" />
<glyph unicode="H" horiz-adv-x="1705" d="M59 0v96h37q125 0 155 15.5t30 81.5v59v975v59q0 66 -30 81t-155 15h-37v97h674v-97h-39q-125 0 -154.5 -15t-29.5 -81v-59v-406h686v406v59q0 66 -29.5 81t-154.5 15h-29v97h664v-97h-37q-125 0 -155 -15t-30 -81v-59v-975v-59q0 -66 30 -81.5t155 -15.5h37v-96h-672v96 h37q125 0 154.5 15.5t29.5 81.5v59v459h-686v-459v-59q0 -66 29.5 -81.5t154.5 -15.5h39v-96h-674z" />
<glyph unicode="I" horiz-adv-x="833" d="M78 0v96h41q125 0 154.5 15.5t29.5 81.5v59v975v59q0 66 -29.5 81t-154.5 15h-41v97h678v-97h-41q-123 0 -153 -15t-30 -81v-59v-975v-59q0 -66 30 -81.5t153 -15.5h41v-96h-678z" />
<glyph unicode="J" d="M10 317q0 109 57.5 179.5t147.5 70.5q68 0 111 -41t43 -106q0 -63 -37 -105.5t-92 -42.5q-33 0 -76 11h-6q-25 0 -25 -33q0 -45 39 -94q70 -90 209 -90q182 0 242 178q26 77 26 306v17v660v59q0 66 -29.5 81t-152.5 15h-39v97h672v-97h-39q-125 0 -154.5 -15t-29.5 -81 v-59v-678q0 -289 -76 -406q-109 -174 -383 -174q-188 0 -289 88q-119 98 -119 260z" />
<glyph unicode="K" horiz-adv-x="1593" d="M61 0v96h37q125 0 155 15.5t30 81.5v59v975v59q0 66 -30 81t-155 15h-37v97h674v-97h-39q-125 0 -154.5 -15t-29.5 -81v-59v-557l502 504q100 100 100 147q0 61 -133 61h-51v97h631v-97q-193 0 -347 -163l-305 -306l496 -714q45 -66 81 -84.5t120 -18.5h39v-96h-701v96 h64q139 0 139 47q0 25 -41 86l-356 523l-238 -240v-260v-59q0 -66 29.5 -81.5t154.5 -15.5h39v-96h-674z" />
<glyph unicode="L" horiz-adv-x="1366" d="M72 0v96h37q125 0 154.5 15.5t29.5 81.5v59v975v59q0 66 -30 81t-154 15h-37v97h671v-97h-36q-125 0 -155 -15t-30 -81v-59v-1032q0 -53 17 -68q31 -31 131 -31h86q260 0 354 119q88 113 123 346h90l-43 -561h-1208z" />
<glyph unicode="M" horiz-adv-x="1933" d="M45 0v96q147 6 192.5 71.5t45.5 274.5v785v59q0 66 -30 81t-155 15h-39v97h529l393 -1092l375 1092h514v-97h-37q-125 0 -154.5 -15t-29.5 -81v-59v-975v-59q0 -66 29.5 -81.5t154.5 -15.5h37v-96h-672v96h37q125 0 154.5 15.5t29.5 81.5v59v1096l-456 -1348h-82 l-488 1348v-906q0 -209 45 -274.5t191 -71.5v-96h-584z" />
<glyph unicode="N" horiz-adv-x="1669" d="M39 1382v97h422l817 -1088v643q0 211 -45 276.5t-191 71.5v97h584v-97q-147 -6 -192 -71.5t-45 -276.5v-1063h-86l-914 1233v-760q0 -211 45 -276.5t191 -71.5v-96h-584v96q147 6 192.5 71.5t45.5 276.5v871q-27 39 -69 53t-120 14h-51z" />
<glyph unicode="O" horiz-adv-x="1593" d="M92 737q0 174 65.5 333t184.5 267q187 172 463 172q295 0 495.5 -222t200.5 -548q0 -330 -201.5 -550t-502.5 -220q-299 0 -502 220.5t-203 547.5zM362 743q0 -190 23 -298.5t80 -202.5q113 -176 332 -176t331 176q57 92 80 201.5t23 296t-22.5 297t-80.5 200.5 q-114 176 -325 176q-225 0 -338 -176q-57 -92 -80 -200.5t-23 -293.5z" />
<glyph unicode="P" horiz-adv-x="1366" d="M57 0v96h37q125 0 155 15.5t30 81.5v59v975v59q0 66 -30 81t-155 15h-37v97h717q225 0 348 -64q207 -104 207 -342q0 -121 -59.5 -216t-167.5 -146q-113 -53 -363 -54h-231v-405v-59q0 -66 29.5 -81.5t154.5 -15.5h53v-96h-688zM508 754h248q321 0 321 309 q0 164 -76.5 241.5t-236.5 77.5h-131q-84 0 -104.5 -17t-20.5 -87v-524z" />
<glyph unicode="Q" horiz-adv-x="1593" d="M92 737q0 174 69.5 334t196.5 272q184 166 437 166q297 0 502.5 -219t205.5 -534q0 -399 -323 -668q53 -168 93 -238.5t85 -70.5q39 0 56.5 41t25.5 139h92v-9q0 -156 -68 -245q-71 -92 -194 -92q-127 0 -200 101.5t-79 285.5q-92 -31 -182 -31q-299 0 -508 223.5 t-209 544.5zM362 737q0 -350 121 -510q-2 16 -2 37q0 123 83 201t212 78t220 -78t130 -221q59 96 83 207.5t24 291.5q0 305 -84 467q-47 94 -140.5 148.5t-209.5 54.5q-231 0 -332 -180q-104 -188 -105 -496zM575 244q0 -84 56.5 -131t159.5 -47q104 0 192 45v20 q0 152 -56.5 233.5t-160.5 81.5q-84 0 -137.5 -56t-53.5 -146z" />
<glyph unicode="R" horiz-adv-x="1478" d="M53 0v96h37q125 0 154.5 15.5t29.5 81.5v57v977v59q0 66 -29.5 81t-154.5 15h-37v97h709q258 0 399.5 -96.5t141.5 -270.5q0 -305 -437 -367q121 -31 186.5 -102.5t98.5 -212.5l33 -129q27 -106 47 -141t55 -35q41 0 61.5 48t26.5 155h86q-4 -184 -65.5 -271.5 t-188.5 -87.5q-121 0 -182 76t-80 250l-10 104q-20 188 -105 256q-76 61 -206 62h-119v-467v-57q0 -66 29.5 -81.5t154.5 -15.5h37v-96h-672zM504 813h225q160 0 242 70q80 63 80 227q0 139 -72 205.5t-223 66.5h-111q-100 0 -119 -14q-16 -12 -19 -27.5t-3 -76.5v-451z" />
<glyph unicode="S" horiz-adv-x="1290" d="M104 567h89q43 -219 159 -350q139 -154 357 -154q154 0 247 82t93 206q0 122 -95 194q-31 25 -61.5 35t-147.5 41l-194 49q-225 57 -318.5 150t-93.5 261q0 193 124 310.5t325 117.5q225 0 373 -141l81 123h76l25 -533h-88q-41 158 -123 275q-125 178 -342 178 q-131 0 -211 -66.5t-80 -175.5q0 -182 268 -251l219 -56q223 -55 299 -129q123 -119 123 -313q0 -207 -134 -329t-359 -122q-133 0 -230.5 35t-199.5 119l-92 -139h-80z" />
<glyph unicode="T" horiz-adv-x="1366" d="M39 909l31 570h1226l31 -570h-88q-25 174 -68 281q-39 92 -110.5 142t-165.5 50q-96 0 -96 -73v-1057v-59q0 -66 29.5 -81.5t152.5 -15.5h53v-96h-702v96h53q125 0 154.5 15.5t29.5 81.5v59v1057q0 73 -93 73h-3q-209 0 -291 -227q-35 -102 -55 -246h-88z" />
<glyph unicode="U" horiz-adv-x="1669" d="M35 1382v97h670v-97h-39q-125 0 -155 -15t-30 -81v-59v-686q0 -143 12.5 -200.5t53.5 -115.5q106 -145 327 -145q125 0 220.5 52t144.5 149q29 53 39 115.5t10 185.5v452q0 211 -45 276.5t-190 71.5v97h583v-97q-147 -6 -192 -71.5t-45 -276.5v-465q0 -256 -90 -385 q-145 -215 -490 -215q-358 0 -506 211q-53 78 -61 232v141v674v59q0 66 -29.5 81t-152.5 15h-35z" />
<glyph unicode="V" horiz-adv-x="1478" d="M-16 1382v97h639v-97h-82q-127 0 -127 -51q0 -23 16 -61l375 -953l317 844q25 68 25 115q0 49 -44 77.5t-122 28.5h-39v97h555v-97h-20q-88 0 -132.5 -39.5t-91.5 -160.5l-471 -1213h-82l-518 1299q-29 72 -58.5 93t-98.5 21h-41z" />
<glyph unicode="W" horiz-adv-x="2009" d="M12 1382v97h578v-97h-92q-88 0 -88 -41q0 -20 10 -51l295 -917l237 786l-53 160q-12 37 -38.5 50t-90.5 13h-47v97h592v-97h-33q-88 0 -117 -10q-31 -14 -30 -45q0 -12 14 -57l283 -897l245 831q12 33 13 72q0 106 -177 106h-16v97h502v-97h-8q-102 0 -152 -73 q-29 -41 -55 -138l-361 -1202h-84l-331 1018l-303 -1018h-89l-442 1334q-18 53 -38.5 66t-84.5 13h-39z" />
<glyph unicode="X" horiz-adv-x="1441" d="M-12 1382v97h633v-97h-78q-98 0 -99 -26q0 -18 23 -51l272 -394l222 322q28 40 28 68q0 81 -138 81h-3h-29v97h563v-97h-32q-82 0 -138.5 -38.5t-142.5 -153.5l-272 -371l430 -616q51 -76 83.5 -91.5t131.5 -15.5h24v-96h-671v96h57q96 2 116.5 7.5t20.5 29.5 q0 23 -26 64l-306 432l-237 -344q-33 -49 -33 -90q0 -45 36 -72t97 -27h51v-96h-581v96h8q154 0 268 164l332 461l-403 584q-35 51 -66 64t-106 13h-35z" />
<glyph unicode="Y" horiz-adv-x="1441" d="M-27 1382v97h658v-97h-121q-80 0 -80 -39q0 -25 23 -57l344 -555l254 453q34 61 34 104q0 51 -37.5 72.5t-121.5 21.5h-47v97h581v-97h-16q-104 0 -180 -69q-41 -41 -103 -150l-305 -551v-360v-59q0 -66 28.5 -81.5t153.5 -15.5h54v-96h-703v96h53q125 0 155 15.5 t30 81.5v59v336l-443 700q-35 57 -67.5 75.5t-98.5 18.5h-45z" />
<glyph unicode="Z" horiz-adv-x="1251" d="M49 0v74l838 1308h-266q-207 0 -289 -82.5t-131 -338.5h-92l41 518h1015v-74l-841 -1309h340q215 0 294 107q84 102 123 366h97l-37 -569h-1092z" />
<glyph unicode="[" horiz-adv-x="681" d="M135 -221v1700h473v-76h-289v-1550h289v-74h-473z" />
<glyph unicode="\" horiz-adv-x="1241" d="M152 1509h118l820 -1509h-119z" />
<glyph unicode="]" horiz-adv-x="681" d="M74 -145h286v1550h-286v74h471v-1700h-471v76z" />
<glyph unicode="^" horiz-adv-x="1241" d="M106 651l429 828h174l426 -828h-179l-333 637l-338 -637h-179z" />
<glyph unicode="_" horiz-adv-x="1024" d="M0 -150h1024v-124h-1024v124z" />
<glyph unicode="`" horiz-adv-x="681" d="M35 1374q0 31 20.5 51.5t50.5 20.5q39 0 103 -64l287 -286h-84l-326 198q-51 35 -51 80z" />
<glyph unicode="a" d="M90 209q0 193 262 291q125 49 381 92v80q0 129 -53 174q-55 51 -168 51q-74 0 -128 -23.5t-54 -56.5q0 -10 14 -26q31 -43 31 -84q0 -45 -32 -75t-79 -30q-53 0 -86 35t-33 92q0 111 114 183.5t286 72.5q195 0 299 -82q82 -68 82 -244v-411q0 -78 17.5 -110t60.5 -32 q18 0 57 15q18 8 31 8q20 0 20 -25q0 -45 -59.5 -81.5t-128.5 -36.5q-72 0 -114 33.5t-67 111.5q-137 -162 -356 -162q-135 0 -216 65.5t-81 174.5zM297 238q0 -70 46 -115t116 -45q66 0 130 34.5t103 92.5q27 41 34 77t7 128v94q-215 -35 -303 -76q-133 -63 -133 -190z" />
<glyph unicode="b" d="M16 1399v88l353 22v-684q57 88 120.5 124t157.5 36q184 0 301 -140t117 -361.5t-126 -368t-314 -146.5q-184 0 -308 162l-100 -160h-78q37 168 37 529v796q0 66 -15.5 84.5t-72.5 18.5h-72zM358 459q0 -188 69 -295t189 -107q113 0 173.5 105.5t60.5 300.5 q0 201 -62.5 309.5t-177.5 108.5q-123 0 -187.5 -108.5t-64.5 -313.5z" />
<glyph unicode="c" horiz-adv-x="909" d="M70 461q0 229 129 376.5t327 147.5q137 0 228.5 -70.5t91.5 -173.5q0 -61 -36 -100t-89 -39t-88 32t-35 83q0 45 41 94q12 18 12 25q0 25 -34.5 43t-79.5 18q-113 0 -182.5 -113.5t-69.5 -300.5q0 -180 71.5 -284.5t194.5 -104.5q80 0 136.5 48t105.5 159l79 -31 q-66 -164 -151.5 -232.5t-222.5 -68.5q-190 0 -309 136.5t-119 355.5z" />
<glyph unicode="d" horiz-adv-x="1175" d="M88 467q0 221 117 369.5t291 148.5q172 0 282 -151v462q0 66 -16.5 84.5t-71.5 18.5h-121v88l402 22v-1271q0 -96 22.5 -123t104.5 -27h37v-88l-357 -14v161q-94 -178 -282 -178q-178 0 -293 140.5t-115 357.5zM303 442q0 -170 61.5 -266t170.5 -96q111 0 176 107.5 t65 285.5q0 150 -39 246q-27 70 -82 112.5t-118.5 42.5t-115.5 -40.5t-79 -108.5q-39 -102 -39 -283z" />
<glyph unicode="e" horiz-adv-x="1024" d="M72 451q0 229 131 381.5t327 152.5q186 -1 305 -147q117 -144 117 -369v-8h-663v-11q0 -148 51 -235q80 -135 233 -135q102 0 173 50t135 169l71 -39q-125 -291 -417 -291q-207 0 -335 133.5t-128 348.5zM291 549h358q49 0 66.5 15.5t17.5 60.5q0 123 -56 197.5 t-151 74.5q-143 0 -207 -182q-28 -80 -28 -166z" />
<glyph unicode="f" horiz-adv-x="681" d="M39 866v88h180v64q0 125 18.5 200.5t63.5 139.5q108 151 314 151h3q125 0 197 -51t72 -141q0 -55 -32 -90t-83 -35q-47 0 -80 31.5t-33 76.5q0 35 19 66q12 20 12 27q0 34 -65 34h-4q-61 0 -111.5 -38.5t-75.5 -106.5q-22 -55 -22 -198v-13v-117h225v-88h-225v-614v-82 q0 -61 27.5 -78.5t127.5 -17.5h37v-74h-547v74h9q98 0 125.5 17.5t27.5 78.5v82v614h-180z" />
<glyph unicode="g" horiz-adv-x="1099" d="M47 -205q0 127 189 195q-137 47 -138 176q0 84 46 133t149 72q-80 37 -126 110.5t-46 163.5q0 154 110.5 247t292.5 93q137 0 254 -78q72 66 110 86.5t87 20.5q59 0 97 -33t38 -86q0 -41 -26.5 -69.5t-65.5 -28.5q-80 0 -92 75q-6 29 -21 29q-23 0 -69 -49 q75 -89 75 -198q0 -214 -192 -300q-51 -23 -99.5 -30t-193.5 -9q-102 -2 -147.5 -23.5t-45.5 -68.5q0 -39 25 -53q28 -16 143 -18h209q186 0 260 -29q57 -23 90 -81t33 -134q0 -324 -514 -324q-207 0 -319.5 55.5t-112.5 155.5zM217 -188q0 -70 70.5 -107t199.5 -37 q172 0 267.5 48t95.5 137q0 49 -36 80.5t-97 37.5q-31 4 -213 4h-152q-74 -39 -104.5 -75.5t-30.5 -87.5zM307 643q0 -115 55.5 -182.5t151.5 -67.5q98 0 153.5 67.5t55.5 188.5q0 119 -52.5 183.5t-148.5 64.5q-102 0 -158.5 -66.5t-56.5 -187.5z" />
<glyph unicode="h" horiz-adv-x="1251" d="M31 1399v88l379 22v-723q133 199 323 199q92 0 165 -42t112 -116q27 -51 35 -97t8 -157v-321v-82q0 -61 27.5 -78.5t125.5 -17.5h8v-74h-518v74h9q100 0 127.5 17.5t27.5 78.5v82v330q0 141 -45 206q-23 31 -64.5 51.5t-80.5 20.5q-66 0 -128.5 -43t-95.5 -112 q-36 -76 -36 -233v-9v-211v-82q0 -61 27.5 -78.5t127.5 -17.5h8v-74h-518v74h8q98 0 126 17.5t28 78.5v82v1044q0 66 -15.5 84.5t-72.5 18.5h-98z" />
<glyph unicode="i" horiz-adv-x="645" d="M37 844v88l385 22v-702v-82q0 -61 27.5 -78.5t128.5 -17.5h14v-74h-531v74h15q98 0 125.5 17.5t27.5 78.5v82v489q0 66 -15 84.5t-73 18.5h-104zM207 1346q0 49 34.5 83.5t84 34.5t84 -34.5t34.5 -84t-34.5 -84t-85.5 -34.5q-47 0 -82 35.5t-35 83.5z" />
<glyph unicode="j" horiz-adv-x="606" d="M-168 -246q0 53 33 88t82 35q43 0 74.5 -28.5t31.5 -67.5q0 -18 -14 -49q-10 -27 -10 -33q0 -27 51 -27q33 0 65.5 20.5t47.5 51.5q38 78 38 292v11v694q0 66 -15 84.5t-73 18.5h-118v88l399 22v-809q0 -174 -18.5 -266t-65.5 -160q-96 -133 -279 -133q-102 0 -165.5 46 t-63.5 122zM209 1346q0 49 35 83.5t84 34.5t83.5 -34.5t34.5 -84t-34.5 -84t-85.5 -34.5q-47 0 -82 35.5t-35 83.5z" />
<glyph unicode="k" horiz-adv-x="1214" d="M29 1399v88l379 22v-1013l276 266q47 47 47 80q0 39 -96 39h-64v73h539v-73q-104 -12 -181 -51t-165 -128l-92 -90l291 -397q63 -80 108 -106.5t131 -34.5v-74h-540v74h38q90 0 91 35q0 12 -15 36l-244 342l-124 -118v-117v-82q0 -61 27.5 -78.5t127.5 -17.5h8v-74h-518 v74h8q98 0 126 17.5t28 78.5v82v1044q0 66 -15.5 84.5t-72.5 18.5h-98z" />
<glyph unicode="l" horiz-adv-x="645" d="M39 1399v88l379 22v-1257v-82q0 -61 27.5 -78.5t127.5 -17.5h15v-74h-531v74h15q98 0 125.5 17.5t27.5 78.5v82v1044q0 66 -15 84.5t-71 18.5h-100z" />
<glyph unicode="m" horiz-adv-x="1820" d="M47 844v88l365 22v-157q117 188 295 188q102 0 179 -56.5t103 -148.5q127 205 320 205q150 0 241 -117q41 -53 53.5 -99t12.5 -140v-377v-80q0 -63 27.5 -80.5t125.5 -17.5h9v-74h-518v74h8q100 0 127.5 17.5t27.5 78.5v82v336q0 111 -24 170q-43 102 -150 102 q-109 0 -172 -91t-63 -245v-272v-82q0 -61 27.5 -78.5t125.5 -17.5h9v-74h-519v74h9q100 0 127.5 17.5t27.5 78.5v82v358q0 127 -41 183q-18 29 -57 48t-78 19q-100 0 -166.5 -90t-66.5 -227v-291v-80q0 -63 27.5 -80.5t125.5 -17.5h8v-74h-516v74h9q98 0 125.5 17.5 t27.5 80.5v80v489q0 66 -15.5 84.5t-72.5 18.5h-84z" />
<glyph unicode="n" horiz-adv-x="1251" d="M55 0v74h8q98 0 126 17.5t28 78.5v82v489q0 66 -15.5 84.5t-72.5 18.5h-74v88l355 22v-166q131 197 323 197q90 0 164 -42t113 -116q27 -51 35 -97t8 -157v-321v-82q0 -61 27.5 -78.5t125.5 -17.5h8v-74h-518v74h9q100 0 127.5 17.5t27.5 78.5v82v332q0 141 -45 204 q-23 31 -64.5 51.5t-80.5 20.5q-66 0 -128.5 -43t-95.5 -112q-36 -76 -36 -232v-8v-213v-82q0 -61 27.5 -78.5t127.5 -17.5h8v-74h-518z" />
<glyph unicode="o" horiz-adv-x="1024" d="M70 475q0 215 129 362.5t317 147.5q182 0 310 -148.5t128 -359.5t-129 -359.5t-313 -148.5t-313 147.5t-129 358.5zM285 475q0 -203 58 -310.5t169 -107.5t169 107.5t58 312.5q0 203 -57 311.5t-166 108.5q-231 0 -231 -422z" />
<glyph unicode="p" horiz-adv-x="1175" d="M57 -340h9q98 0 125.5 17.5t27.5 78.5v82v903q0 66 -15.5 84.5t-72.5 18.5h-74v88l355 22v-145q102 176 282 176q168 0 285 -145.5t117 -358.5q0 -219 -118 -365.5t-296 -146.5q-94 0 -156.5 39t-113.5 127v-297v-82q0 -61 27.5 -78.5t127.5 -17.5h23v-74h-533v74z M410 467q0 -176 66.5 -281.5t175 -105.5t169 107.5t60.5 306.5q0 180 -59 280t-165 100q-117 0 -182 -108.5t-65 -298.5z" />
<glyph unicode="q" d="M74 455q0 227 125 378.5t313 151.5q190 0 311 -170l97 139h75q-29 -135 -32 -174q0 -31 -2 -147v-795v-82q0 -61 27.5 -78.5t125.5 -17.5h8v-74h-532v74h22q100 0 128 17.5t28 78.5v82v281q-61 -84 -121.5 -117t-157.5 -33q-180 0 -297.5 137.5t-117.5 348.5z M351.5 181.5q62.5 -101.5 176.5 -101.5q240 0 240 420q0 164 -43 258q-29 66 -81.5 102.5t-113.5 36.5q-241 0 -241 -426q0 -188 62.5 -289.5z" />
<glyph unicode="r" horiz-adv-x="909" d="M43 844v88l363 22v-254q49 135 129.5 210t177.5 75q82 0 130 -45t48 -119q0 -63 -35 -101t-90 -38q-49 0 -81 31.5t-32 81t37 92.5q-131 -16 -205 -189q-79 -180 -79 -420v-6v-20v-82q0 -61 27.5 -78.5t125.5 -17.5h39v-74h-547v74h8q100 0 128 17.5t28 78.5v82v489 q0 66 -15.5 84.5t-72.5 18.5h-84z" />
<glyph unicode="s" horiz-adv-x="948" d="M104 -14v387h82q37 -154 126 -235t218 -81q90 0 147.5 46.5t57.5 117.5q0 61 -48 97t-171 65l-108 25q-156 37 -218 92q-71 65 -71 185q0 136 82 218t217 82q145 0 250 -82l59 74h72v-344h-72q-43 123 -100 180q-84 82 -199 82q-84 0 -137 -40t-53 -101q0 -76 71 -109 q37 -20 150 -45l102 -22q94 -20 136 -37t79 -49q86 -72 86 -207q0 -143 -91 -229.5t-243 -86.5q-156 0 -280 101l-72 -84h-72z" />
<glyph unicode="t" horiz-adv-x="796" d="M37 866v80q246 18 276 414h84v-406h301v-88h-301v-559q0 -111 19 -153q25 -59 102 -60q150 0 160 279h86q2 -20 2 -47q0 -184 -107 -287q-74 -70 -196 -70q-182 0 -234 133q-24 55 -24 228v14v522h-168z" />
<glyph unicode="u" horiz-adv-x="1251" d="M43 844v88l358 22v-624q0 -84 5.5 -114t25.5 -58q41 -63 143 -64q158 0 226 144q43 94 43 251v252q0 66 -15.5 84.5t-72.5 18.5h-105v88l385 22v-716q0 -98 22.5 -124t106.5 -26h52v-88l-373 -14v170q-68 -98 -143.5 -142.5t-176.5 -44.5q-190 0 -276 131q-39 59 -39 199 v442q0 66 -15.5 84.5t-72.5 18.5h-78z" />
<glyph unicode="v" horiz-adv-x="1099" d="M16 881v73h484v-73h-29q-63 0 -87 -10.5t-24 -36.5q0 -23 11 -43l233 -543l189 475q18 55 18 86q0 72 -111 72h-28v73h409v-73h-8q-113 0 -190 -193l-291 -719h-72l-352 824q-20 51 -48 69.5t-87 18.5h-17z" />
<glyph unicode="w" horiz-adv-x="1593" d="M31 881v73h450v-73h-37q-84 0 -84 -47q0 -16 9 -46l198 -514l181 478l-19 53q-14 45 -36.5 60.5t-69.5 15.5h-35v73h459v-73h-50q-51 0 -68.5 -9.5t-17.5 -37.5q0 -25 9 -43l200 -527l174 467q16 39 17 76q0 74 -101 74h-34v73h387v-73h-15q-53 0 -85.5 -33t-65.5 -123 l-287 -756h-63l-250 647l-244 -647h-72l-307 811q-20 61 -41.5 81t-64.5 20h-37z" />
<glyph unicode="x" horiz-adv-x="1099" d="M18 0v74h13q94 0 184 106l236 275l-250 315q-51 66 -82 86.5t-88 24.5v73h485v-73h-29q-90 0 -90 -37q0 -20 21 -45l157 -201l130 154q40 50 40 82q0 47 -92 47h-39v73h424v-73h-18q-80 0 -154 -86l-233 -273l258 -348q74 -100 178 -100h14v-74h-516v74h15q108 0 108 36 q0 24 -26 62l-156 207l-172 -207q-16 -16 -17 -43q0 -33 29 -47q18 -8 72 -8h31v-74h-433z" />
<glyph unicode="y" horiz-adv-x="1099" d="M6 -264q0 55 35 91t88 36q45 0 74.5 -26.5t29.5 -65.5q0 -23 -10 -54q-4 -16 -4 -18q0 -20 33 -21q49 0 114.5 74t120.5 191l35 71l-334 756q-27 61 -58.5 86t-80.5 25h-22v73h487v-73h-43q-94 0 -94 -52q0 -14 12 -43l225 -526l187 463q20 49 20 82q0 76 -110 76h-33v73 h409v-73h-12q-59 0 -96 -36t-76 -130l-233 -578q-113 -285 -195 -395q-121 -164 -282 -164q-80 0 -133.5 45t-53.5 113z" />
<glyph unicode="z" horiz-adv-x="985" d="M80 0v74l559 792h-178q-125 0 -185.5 -59t-74.5 -199h-82l18 346h740v-73l-560 -793h209q139 0 204 63.5t79 215.5h82l-14 -367h-797z" />
<glyph unicode="{" horiz-adv-x="681" d="M135 596v66q66 23 93.5 41t41.5 51q20 41 21 180v237q0 188 71 252q61 55 193 56h53v-70q-100 -6 -133 -58.5t-33 -199.5v-266q0 -104 -26.5 -154.5t-110.5 -101.5q84 -51 110.5 -101.5t26.5 -154.5v-267q0 -147 33 -199t133 -59v-69h-53q-131 0 -193 55q-72 63 -71 252 v238q0 100 -5 134t-24 62q-31 43 -127 76z" />
<glyph unicode="|" horiz-adv-x="1241" d="M541 0v1479h159v-1479h-159z" />
<glyph unicode="}" horiz-adv-x="681" d="M74 -152q98 6 131 58.5t33 199.5v267q0 104 26.5 154.5t110.5 101.5q-84 51 -110.5 101t-26.5 155v266q0 147 -33 199.5t-131 58.5v70h51q131 0 192 -56q72 -59 72 -252v-237q0 -100 5 -134t26 -63q27 -42 127 -75v-66q-66 -20 -93.5 -38.5t-43.5 -53.5q-20 -41 -21 -180 v-238q0 -193 -72 -252q-61 -55 -192 -55h-51v69z" />
<glyph unicode="~" horiz-adv-x="1241" d="M104 451q57 100 135 159.5t152 59.5q66 0 203 -66l94 -45q117 -57 164 -57q88 0 176 133l109 -78q-57 -100 -135 -159.5t-152 -59.5q-66 0 -203 63l-94 48q-90 43 -111.5 50t-52.5 7q-88 0 -176 -133z" />
<glyph unicode="&#xa1;" horiz-adv-x="606" d="M176 995.5q0 53.5 38 91t91 37.5t90 -37.5t37 -91t-38 -90.5t-91 -37t-90 37t-37 90.5zM178 -219q0 84 37 266q29 145 38 265t11 390h80q4 -279 12.5 -395.5t36.5 -259.5q37 -182 37 -268q0 -193 -127 -193q-125 0 -125 195z" />
<glyph unicode="&#xa2;" d="M145 459q0 231 135.5 378.5t348.5 147.5q86 0 159 -27l95 240h88l-109 -276q43 -31 72 -83.5t29 -101.5q0 -53 -40 -93t-94 -40q-43 0 -79 31l-203 -520q51 -16 92 -17q182 0 262 203l80 -29q-102 -303 -381 -303q-47 1 -106 13l-107 -271h-88l117 297q-127 55 -199 174 t-72 277zM358 492q0 -238 115 -336l279 706q-39 35 -115 35q-131 0 -205 -107.5t-74 -297.5z" />
<glyph unicode="&#xa3;" d="M35 133q0 78 53 127t139 49q66 0 174 -47q14 57 15 90q0 121 -68 314h-274v96h245q-51 182 -51 274q0 180 112 293t294 113q158 0 260 -83t102 -208q0 -76 -41 -124t-106 -48q-53 0 -88 34t-35 87q0 43 20.5 67.5t75.5 53.5q31 14 31 34q0 37 -59.5 68t-128.5 31 q-109 0 -171.5 -64.5t-62.5 -177.5q0 -59 35 -213q2 -8 33 -137h346v-96h-328q20 -100 21 -179q0 -160 -56 -270q145 -70 248 -70q100 0 157.5 41t100.5 144l72 -31q-35 -162 -123 -247t-217 -85q-147 0 -314 121q-113 -121 -233 -121q-78 0 -128 46t-50 118zM119 139 q0 -37 29.5 -62.5t70.5 -25.5q87 1 146 103q-92 72 -158 71q-35 0 -61.5 -25.5t-26.5 -60.5z" />
<glyph unicode="&#xa4;" d="M53 295l109 108q-106 143 -107 310q0 170 103 301l-105 102l105 107l104 -105q137 102 301 103q166 -1 309 -107l109 109l104 -107l-108 -106q106 -137 106 -310q0 -168 -102 -301l104 -104l-104 -105l-104 105q-133 -102 -302 -102q-170 0 -309 106l-108 -109zM223 707 q0 -141 101.5 -244t240.5 -103q147 0 248.5 100.5t101.5 246.5q0 143 -101 244.5t-244.5 101.5t-245 -101.5t-101.5 -244.5z" />
<glyph unicode="&#xa5;" d="M-2 1382v97h477v-97h-49q-57 0 -57 -39q0 -25 16 -57l256 -555l186 453q25 53 25 108q0 90 -94 90h-35v97h418v-97h-8q-80 0 -129 -69q-31 -41 -76 -150l-199 -483h207v-96h-236v-176h236v-97h-236v-59q0 -111 11 -127q16 -29 129 -29h39v-96h-584v96h39q94 0 115.5 16.5 t21.5 82.5v57v59h-238v97h238v176h-238v96h195l-281 608q-29 59 -51 76.5t-69 17.5h-29z" />
<glyph unicode="&#xa6;" horiz-adv-x="1241" d="M541 0v659h159v-659h-159zM541 819v660h159v-660h-159z" />
<glyph unicode="&#xa7;" horiz-adv-x="1024" d="M119 645q0 113 73.5 190.5t182.5 77.5h35q-90 88 -111 113q-84 94 -84 211q0 119 85 194.5t216 75.5q119 0 205 -67.5t86 -157.5q0 -47 -33 -80t-80 -33q-49 0 -80.5 29t-31.5 72q0 55 53 92q18 12 18 22q0 20 -40 38t-89 18q-72 0 -120 -41t-48 -103q1 -77 140 -194 l225 -189q80 -70 137 -155q59 -84 60 -180q0 -121 -76 -204t-185 -83q-20 0 -36 2q76 -61 108 -96q102 -102 102 -230q0 -115 -88 -192.5t-221 -77.5q-119 0 -206 67.5t-87 159.5q0 47 33 80t80 33q49 0 81 -28.5t32 -74.5q0 -51 -56 -92q-16 -12 -16 -22q0 -20 41 -38 t88 -18q78 0 128 40t50 102q0 53 -37 102t-149 142l-160 131q-123 102 -174 184t-51 180zM254 709q0 -57 29.5 -103.5t115.5 -124.5q150 -137 244 -137q55 0 97 44t42 104q0 119 -190 276q-113 90 -191 90q-63 0 -105 -43t-42 -106z" />
<glyph unicode="&#xa8;" horiz-adv-x="681" d="M35 1216.5q0 40.5 30.5 71.5t71.5 31t72 -31t31 -71q0 -43 -31 -73t-74 -30q-41 0 -70.5 31t-29.5 71.5zM442 1216.5q0 40.5 31 71.5t72 31t71.5 -31t30.5 -71q0 -43 -30.5 -73t-73.5 -30q-41 0 -71 31t-30 71.5z" />
<glyph unicode="&#xa9;" horiz-adv-x="1509" d="M-16 739q0 317 226 543.5t543.5 226.5t544 -225t226.5 -543q0 -324 -226.5 -548t-554.5 -224q-311 0 -535 227.5t-224 542.5zM86 739q0 -276 195.5 -476t466.5 -200q283 0 479 197t196 481q0 279 -196.5 476.5t-470.5 197.5q-279 0 -474.5 -197.5t-195.5 -478.5zM340 735 q0 193 121 329t293 136q59 0 100 -14.5t104 -57.5l43 64h68l18 -371h-77q-39 154 -100.5 224.5t-155.5 70.5q-229 0 -230 -387q0 -358 242 -358q211 0 256 264l82 -14q-45 -334 -350 -334q-180 0 -297 127t-117 321z" />
<glyph unicode="&#xaa;" horiz-adv-x="684" d="M10 1030q0 117 170 174q88 31 248 56v49q0 68 -27 94q-33 39 -118 39q-47 0 -82 -13.5t-35 -33.5q0 -2 8 -17q20 -27 21 -49q0 -27 -20.5 -45t-51.5 -18q-35 0 -56.5 20.5t-21.5 54.5q0 66 74 110t186 44q127 0 195 -49q53 -40 53 -146v-247q0 -84 49 -84q12 0 37 8 q14 6 20 6q14 0 15 -14q0 -27 -39 -49.5t-84 -22.5q-86 0 -115 86q-92 -96 -233 -96q-88 0 -140.5 39t-52.5 104zM47 674v82h533v-82h-533zM145 1047q0 -41 30 -69t75 -28q92 0 151 76q27 39 27 125v57q-164 -27 -223.5 -60.5t-59.5 -100.5z" />
<glyph unicode="&#xab;" horiz-adv-x="872" d="M78 498l303 295q29 31 47 30q23 0 23 -24q0 -23 -91 -148l-104 -153q195 -276 195 -301q0 -23 -25 -23q-16 0 -45 31l-80 78l-98 96l-84 80q-27 27 -41 39zM420 498l225 217q80 78 97.5 93t29.5 15q23 0 23 -24q0 -29 -90 -148q-76 -102 -107 -153q195 -276 195 -301 q0 -23 -25 -23q-16 0 -45 31l-80 78l-98 96l-84 80q-27 27 -41 39z" />
<glyph unicode="&#xac;" horiz-adv-x="1241" d="M104 436v164h1033v-600h-164v436h-869z" />
<glyph unicode="&#xad;" horiz-adv-x="681" d="M86 399v170h510v-170h-510z" />
<glyph unicode="&#xae;" horiz-adv-x="1509" d="M-16 739q0 317 226 543.5t543.5 226.5t544 -225t226.5 -543q0 -324 -226.5 -548t-554.5 -224q-311 0 -535 227.5t-224 542.5zM84 739q0 -276 195.5 -476t468.5 -200q283 0 479 197t196 481q0 279 -196.5 476.5t-470.5 197.5q-279 0 -475.5 -197.5t-196.5 -478.5zM350 334 v84h37q80 0 88 12q4 4 4 64v561q0 59 -4 65q-8 10 -88 10h-37v84h424q156 0 241 -58t85 -167q0 -84 -49.5 -135t-159.5 -80q51 -27 76.5 -63.5t46.5 -108.5l18 -76q16 -61 22.5 -75.5t22.5 -14.5q35 0 35 117h78v-27q0 -100 -42 -154.5t-118 -54.5q-78 0 -115.5 47.5 t-48.5 153.5l-8 62q-10 90 -47 129t-117 39h-53v-254q0 -59 4 -64q10 -12 86 -12h35v-84h-416zM641 831h113q172 0 172 156q0 78 -36 110.5t-120 32.5h-63q-49 0 -57.5 -6t-8.5 -47v-246z" />
<glyph unicode="&#xaf;" horiz-adv-x="681" d="M20 1163v111h642v-111h-642z" />
<glyph unicode="&#xb0;" horiz-adv-x="819" d="M102 1094q0 131 91.5 221t222.5 90q127 0 214 -90t87 -223q0 -131 -89 -222.5t-218 -91.5t-218.5 91.5t-89.5 224.5zM217 1092q0 -82 57.5 -139.5t135.5 -57.5q80 0 135 57.5t55 139.5t-54 139t-132 57q-82 0 -139.5 -57t-57.5 -139z" />
<glyph unicode="&#xb1;" horiz-adv-x="1241" d="M104 0v164h1033v-164h-1033zM104 590v164h435v436h163v-436h435v-164h-435v-359h-163v359h-435z" />
<glyph unicode="&#xb2;" horiz-adv-x="681" d="M27 592v45q57 72 129 149l176 177q152 150 151 272q0 74 -43 115t-121 41q-68 0 -120 -36t-52 -81q0 -8 6.5 -12.5t41.5 -18.5q51 -20 51 -76q0 -35 -24.5 -57.5t-63.5 -22.5q-49 0 -80 38t-31 98q0 100 86 167.5t213 67.5q129 0 213 -68.5t84 -175.5q0 -88 -51 -153.5 t-209 -179.5q-96 -72 -190 -160h278q55 0 71.5 13.5t26.5 66.5l15 67h69l-24 -276h-602z" />
<glyph unicode="&#xb3;" horiz-adv-x="681" d="M37 780q0 51 27.5 83t72.5 32q37 0 62.5 -24.5t25.5 -59.5q0 -29 -13 -46t-54 -40q-10 -4 -11 -12q0 -25 53.5 -48.5t108.5 -23.5q84 0 129 49t45 139q0 176 -141 177q-39 0 -92 -2q-45 0 -45 38.5t49 38.5q19 0 29 -2l49 -2q137 0 137 164q0 150 -135 150 q-49 0 -95 -20.5t-46 -41.5q0 -6 12 -16q43 -29 43 -68q0 -35 -23.5 -57.5t-60.5 -22.5q-41 0 -66.5 26t-25.5 66q0 86 78.5 143.5t195.5 57.5q125 0 198.5 -58.5t73.5 -156.5q0 -66 -39.5 -118t-109.5 -76q-2 -2 -6 -5q180 -49 180 -219q0 -113 -88 -182.5t-231 -69.5 q-125 0 -206 58.5t-81 148.5z" />
<glyph unicode="&#xb4;" horiz-adv-x="681" d="M186 1096l287 286q63 63 102 64q29 0 50.5 -21.5t21.5 -50.5q0 -45 -51 -80l-326 -198h-84z" />
<glyph unicode="&#xb6;" horiz-adv-x="1241" d="M100 1071q0 270 176 363q70 39 179 45h123h563v-74q-90 -4 -111.5 -20.5t-21.5 -75.5v-82v-1270q0 -100 2 -118.5t12 -31.5q16 -23 119 -28v-74h-735v74h8q117 0 141 28q10 12 11 31t1 119v707h-61q-199 0 -302.5 104t-103.5 303zM379 985q0 -137 49 -205q37 -49 115 -49 h24v674q-106 0 -147 -55.5t-41 -196.5v-168zM700 -219h174v1624h-174v-1624z" />
<glyph unicode="&#xb7;" horiz-adv-x="569" d="M156 506q0 53 38 90t91 37q51 0 89 -38t38 -89q0 -53 -38 -91t-91.5 -38t-90 38t-36.5 91z" />
<glyph unicode="&#xb8;" horiz-adv-x="681" d="M59 -406l29 68q74 -25 125 -24q53 0 85 22.5t32 58.5q0 35 -27 57.5t-70 22.5q-29 0 -69 -10l-19 10l91 201h71l-49 -129q43 6 59 6q76 0 122 -39t46 -100q0 -78 -68.5 -128t-176.5 -50q-92 0 -181 34z" />
<glyph unicode="&#xb9;" horiz-adv-x="681" d="M80 592v72h88q88 0 102 14q6 6 6 70v485q0 51 -10 60.5t-63 9.5h-121v67q92 0 173 24.5t116 63.5h57q-10 -119 -10 -209v-501q0 -61 6 -70q14 -14 100 -14h78v-72h-522z" />
<glyph unicode="&#xba;" horiz-adv-x="614" d="M20 1190q0 129 83 217t208 88q121 0 203 -90t82 -221q0 -133 -81 -215t-212 -82q-125 0 -204 85t-79 218zM43 674v82h532v-82h-532zM160 1186q0 -246 147 -246q150 0 150 262q-1 240 -146 240q-152 0 -151 -256z" />
<glyph unicode="&#xbb;" horiz-adv-x="872" d="M80 197q0 25 194 301q-195 281 -194 301q0 8 7 16t17 8q16 0 46 -30l118 -117l185 -178l-125 -119l-99 -96l-79 -78q-29 -31 -48 -31q-23 0 -22 23zM422 197q0 25 194 301q-195 281 -194 301q0 8 8 16t16 8q16 0 46 -30l118 -117l185 -178l-125 -119l-99 -96l-79 -78 q-29 -31 -48 -31q-23 0 -22 23z" />
<glyph unicode="&#xbc;" horiz-adv-x="1708" d="M80 592v72h88q88 0 102 14q6 6 6 70v485q0 51 -10 60.5t-63 9.5h-121v67q92 0 173 24.5t116 63.5h57q-10 -119 -10 -209v-501q0 -61 6 -70q14 -14 100 -14h78v-72h-522zM317 0l1029 1450h110l-1028 -1450h-111zM969 211v76l442 579h66q-6 -102 -7 -250v-323h158v-82h-158 v-55v-35q0 -35 15.5 -41t105.5 -8v-72h-391v72h23q76 0 92 7t16 42v35v55h-362zM1071 293h260v338z" />
<glyph unicode="&#xbd;" horiz-adv-x="1708" d="M80 592v72h88q88 0 102 14q6 6 6 70v485q0 51 -10 60.5t-63 9.5h-121v67q92 0 173 24.5t116 63.5h57q-10 -119 -10 -209v-501q0 -61 6 -70q14 -14 100 -14h78v-72h-522zM305 0l1028 1450h111l-1028 -1450h-111zM1055 0v45q57 72 129 150q16 18 24 26q39 41 76 76 q39 37 76 76q152 145 151 270q0 74 -43 115t-120 41q-68 0 -120 -36t-52 -81q0 -10 6 -13t41 -18q51 -20 51 -76q0 -35 -24.5 -57t-63.5 -22q-49 0 -80 37.5t-31 97.5q0 100 86 167.5t213 67.5q129 0 213 -68.5t84 -174.5q0 -88 -51 -154t-209 -180q-94 -68 -190 -160h278 q55 0 71.5 13.5t26.5 66.5l15 67h69l-24 -276h-602z" />
<glyph unicode="&#xbe;" horiz-adv-x="1708" d="M57 780q0 51 28 83t73 32q37 0 62.5 -24.5t25.5 -59.5q0 -29 -13.5 -46t-54.5 -40q-10 -4 -10 -12q0 -25 53 -48.5t109 -23.5q84 0 129 49t45 139q0 176 -142 177q-39 0 -92 -2q-45 0 -45 38.5t49 38.5q19 0 29 -2l49 -2q137 0 137 164q0 150 -135 150q-49 0 -95 -20.5 t-46 -41.5q0 -6 12 -16q43 -29 43 -68q0 -35 -23.5 -57.5t-60.5 -22.5q-41 0 -66.5 26t-25.5 66q0 86 79 143.5t196 57.5q125 0 198.5 -58.5t73.5 -156.5q0 -66 -40 -118t-110 -76q-2 -2 -6 -5q180 -49 181 -219q0 -113 -88.5 -182.5t-231.5 -69.5q-125 0 -206 58.5 t-81 148.5zM338 0l1028 1450h111l-1028 -1450h-111zM969 211v76l442 579h66q-6 -102 -7 -250v-323h158v-82h-158v-55v-35q0 -35 15.5 -41t105.5 -8v-72h-391v72h23q76 0 92 7t16 42v35v55h-362zM1071 293h260v338z" />
<glyph unicode="&#xbf;" horiz-adv-x="909" d="M61 -57q0 106 47.5 181t198.5 210q98 84 126 150t26 218h90v-65q0 -127 -29 -207q-20 -53 -42.5 -88t-135.5 -190q-66 -90 -66 -222q0 -119 60.5 -185.5t169.5 -66.5q74 0 131 31t57 72q0 18 -32 45q-59 49 -60 108q0 47 34 80t83 33q57 0 95 -45t38 -113 q0 -131 -112.5 -217t-286.5 -86q-176 0 -284 98.5t-108 258.5zM381 995.5q0 53.5 38 91t91 37.5t90 -37.5t37 -91t-38 -90.5t-91 -37t-90 37t-37 90.5z" />
<glyph unicode="&#xc0;" horiz-adv-x="1478" d="M-16 0v96h8q92 0 145 64q35 37 80 153l471 1194h86l522 -1280q35 -86 65 -108.5t107 -22.5h29v-96h-635v96h86q127 0 127 54q0 14 -16 55l-111 274h-542l-68 -180q-18 -49 -19 -86q0 -117 166 -117h41v-96h-542zM414 1890q0 31 20.5 51.5t50.5 20.5q39 0 103 -61 l286 -289h-83l-326 200q-51 31 -51 78zM446 590h459l-231 581z" />
<glyph unicode="&#xc1;" horiz-adv-x="1478" d="M-16 0v96h8q92 0 145 64q35 37 80 153l471 1194h86l522 -1280q35 -86 65 -108.5t107 -22.5h29v-96h-635v96h86q127 0 127 54q0 14 -16 55l-111 274h-542l-68 -180q-18 -49 -19 -86q0 -117 166 -117h41v-96h-542zM446 590h459l-231 581zM592 1612l287 289q61 61 102 61 q29 0 50.5 -21.5t21.5 -50.5q0 -47 -52 -78l-325 -200h-84z" />
<glyph unicode="&#xc2;" horiz-adv-x="1478" d="M-16 0v96h8q92 0 145 64q35 37 80 153l471 1194h86l522 -1280q35 -86 65 -108.5t107 -22.5h29v-96h-635v96h86q127 0 127 54q0 14 -16 55l-111 274h-542l-68 -180q-18 -49 -19 -86q0 -117 166 -117h41v-96h-542zM414 1612l256 340h129l256 -340h-74l-246 207l-248 -207 h-73zM446 590h459l-231 581z" />
<glyph unicode="&#xc3;" horiz-adv-x="1478" d="M-16 0v96h8q92 0 145 64q35 37 80 153l471 1194h86l522 -1280q35 -86 65 -108.5t107 -22.5h29v-96h-635v96h86q127 0 127 54q0 14 -16 55l-111 274h-542l-68 -180q-18 -49 -19 -86q0 -117 166 -117h41v-96h-542zM397 1657q20 96 74.5 151.5t130.5 55.5q55 0 176 -56 q88 -39 121 -39q35 0 66 30t39 75h71q-10 -96 -71.5 -156.5t-149.5 -60.5q-39 0 -70.5 10t-111.5 47q-61 29 -107 29q-74 0 -96 -86h-72zM446 590h459l-231 581z" />
<glyph unicode="&#xc4;" horiz-adv-x="1478" d="M-16 0v96h8q92 0 145 64q35 37 80 153l471 1194h86l522 -1280q35 -86 65 -108.5t107 -22.5h29v-96h-635v96h86q127 0 127 54q0 14 -16 55l-111 274h-542l-68 -180q-18 -49 -19 -86q0 -117 166 -117h41v-96h-542zM428 1745q0 41 30.5 71.5t71.5 30.5t72 -30.5t31 -71.5 q0 -43 -31 -73t-74 -30q-41 0 -70.5 31t-29.5 72zM446 590h459l-231 581zM836 1745q0 41 30.5 71.5t71.5 30.5t71.5 -30.5t30.5 -71.5q0 -43 -30.5 -73t-73.5 -30q-41 0 -70.5 31t-29.5 72z" />
<glyph unicode="&#xc5;" horiz-adv-x="1478" d="M-16 0v96h8q92 0 145 64q35 37 80 153l471 1194h86l522 -1280q35 -86 65 -108.5t107 -22.5h29v-96h-635v96h86q127 0 127 54q0 14 -16 55l-111 274h-542l-68 -180q-18 -49 -19 -86q0 -117 166 -117h41v-96h-542zM446 590h459l-231 581zM530 1802q0 82 60.5 142.5 t142.5 60.5q84 0 144.5 -59.5t60.5 -143.5q0 -86 -60.5 -145.5t-146.5 -59.5q-82 0 -141.5 60.5t-59.5 144.5zM604 1802q0 -53 38 -92t91 -39q55 0 93 38t38 93q0 53 -39 91t-90 38q-53 0 -92 -38t-39 -91z" />
<glyph unicode="&#xc6;" horiz-adv-x="2048" d="M0 0v96q53 10 92 47t90 127l506 910q27 49 27 92q0 72 -72 96q-41 14 -129 14h-22v97h1419l28 -525h-88q-47 274 -145 355q-96 74 -340 73h-49q-84 0 -106.5 -18t-22.5 -84v-467h26q145 0 212 65.5t75 215.5h96v-672h-96q-6 168 -78 240q-31 33 -77 44t-140 11h-18v-522 q0 -53 16 -68q31 -31 131 -31h72q258 0 352 121q78 98 125 330h88l-41 -547h-1196v96h39q125 0 154.5 15.5t29.5 81.5v59v299h-489l-145 -266q-29 -57 -29 -95q0 -94 160 -94h22v-96h-477zM528 662h430v665q0 31 -4 39t-16 8q-16 0 -35 -37z" />
<glyph unicode="&#xc7;" horiz-adv-x="1478" d="M92 725q0 309 193 539q207 246 501 245q102 0 178 -28.5t185 -108.5l82 121h78l30 -592h-90q-63 213 -116 305q-59 98 -150.5 152.5t-198.5 54.5q-98 0 -186 -50t-135 -136q-100 -176 -101 -510q0 -330 110 -490.5t337 -160.5q254 0 381 213q53 88 82 243l96 -16 q-35 -256 -185.5 -396.5t-389.5 -140.5q-43 0 -84 4l-39 -104q47 6 61 6q74 0 120 -39t46 -100q0 -78 -68.5 -128t-179.5 -50q-96 0 -178 34l29 68q74 -25 127 -25q51 0 82.5 23t31.5 59q0 35 -26.5 57.5t-69.5 22.5q-31 0 -70 -12l-16 10l80 189q-143 25 -264 120 q-283 217 -283 621z" />
<glyph unicode="&#xc8;" horiz-adv-x="1478" d="M59 0v96h37q125 0 155 15.5t30 81.5v59v975v59q0 66 -30 81t-155 15h-37v97h1231l29 -525h-88q-45 272 -148 353q-51 43 -125.5 59t-212.5 16h-106q-84 0 -106.5 -18t-22.5 -84v-467h49q145 0 212 65.5t75 215.5h96v-672h-96q-6 168 -78 240q-31 33 -77 44t-140 11h-41 v-522q0 -53 16 -68q31 -31 131 -31h136q258 0 352 121q80 96 123 330h90l-41 -547h-1258zM479 1890q0 31 20.5 51.5t51.5 20.5q39 0 102 -61l287 -289h-84l-326 200q-51 31 -51 78z" />
<glyph unicode="&#xc9;" horiz-adv-x="1478" d="M59 0v96h37q125 0 155 15.5t30 81.5v59v975v59q0 66 -30 81t-155 15h-37v97h1231l29 -525h-88q-45 272 -148 353q-51 43 -125.5 59t-212.5 16h-106q-84 0 -106.5 -18t-22.5 -84v-467h49q145 0 212 65.5t75 215.5h96v-672h-96q-6 168 -78 240q-31 33 -77 44t-140 11h-41 v-522q0 -53 16 -68q31 -31 131 -31h136q258 0 352 121q80 96 123 330h90l-41 -547h-1258zM588 1612l286 289q61 61 103 61q29 0 50.5 -21.5t21.5 -50.5q0 -47 -52 -78l-325 -200h-84z" />
<glyph unicode="&#xca;" horiz-adv-x="1478" d="M59 0v96h37q125 0 155 15.5t30 81.5v59v975v59q0 66 -30 81t-155 15h-37v97h1231l29 -525h-88q-45 272 -148 353q-51 43 -125.5 59t-212.5 16h-106q-84 0 -106.5 -18t-22.5 -84v-467h49q145 0 212 65.5t75 215.5h96v-672h-96q-6 168 -78 240q-31 33 -77 44t-140 11h-41 v-522q0 -53 16 -68q31 -31 131 -31h136q258 0 352 121q80 96 123 330h90l-41 -547h-1258zM416 1612l256 340h129l256 -340h-74l-246 207l-248 -207h-73z" />
<glyph unicode="&#xcb;" horiz-adv-x="1478" d="M59 0v96h37q125 0 155 15.5t30 81.5v59v975v59q0 66 -30 81t-155 15h-37v97h1231l29 -525h-88q-45 272 -148 353q-51 43 -125.5 59t-212.5 16h-106q-84 0 -106.5 -18t-22.5 -84v-467h49q145 0 212 65.5t75 215.5h96v-672h-96q-6 168 -78 240q-31 33 -77 44t-140 11h-41 v-522q0 -53 16 -68q31 -31 131 -31h136q258 0 352 121q80 96 123 330h90l-41 -547h-1258zM430 1745q0 41 31 71.5t71.5 30.5t71.5 -30.5t31 -71.5q0 -43 -31 -73t-74 -30q-41 0 -70.5 31t-29.5 72zM838 1745q0 41 30.5 71.5t71.5 30.5t71.5 -30.5t30.5 -71.5 q0 -43 -30.5 -73t-73.5 -30q-41 0 -70.5 31t-29.5 72z" />
<glyph unicode="&#xcc;" horiz-adv-x="833" d="M78 0v96h41q125 0 154.5 15.5t29.5 81.5v59v975v59q0 66 -29.5 81t-154.5 15h-41v97h678v-97h-41q-123 0 -153 -15t-30 -81v-59v-975v-59q0 -66 30 -81.5t153 -15.5h41v-96h-678zM90 1890q0 31 20.5 51.5t51.5 20.5q39 0 102 -61l287 -289h-84l-326 200q-51 31 -51 78z " />
<glyph unicode="&#xcd;" horiz-adv-x="833" d="M78 0v96h41q125 0 154.5 15.5t29.5 81.5v59v975v59q0 66 -29.5 81t-154.5 15h-41v97h678v-97h-41q-123 0 -153 -15t-30 -81v-59v-975v-59q0 -66 30 -81.5t153 -15.5h41v-96h-678zM262 1612l287 289q61 61 102 61q29 0 50.5 -21.5t21.5 -50.5q0 -47 -51 -78l-326 -200h-84 z" />
<glyph unicode="&#xce;" horiz-adv-x="833" d="M78 0v96h41q125 0 154.5 15.5t29.5 81.5v59v975v59q0 66 -29.5 81t-154.5 15h-41v97h678v-97h-41q-123 0 -153 -15t-30 -81v-59v-975v-59q0 -66 30 -81.5t153 -15.5h41v-96h-678zM96 1612l256 340h129l256 -340h-73l-246 207l-248 -207h-74z" />
<glyph unicode="&#xcf;" horiz-adv-x="833" d="M78 0v96h41q125 0 154.5 15.5t29.5 81.5v59v975v59q0 66 -29.5 81t-154.5 15h-41v97h678v-97h-41q-123 0 -153 -15t-30 -81v-59v-975v-59q0 -66 30 -81.5t153 -15.5h41v-96h-678zM111 1745q0 41 30.5 71.5t71.5 30.5t71.5 -30.5t30.5 -71.5q0 -43 -30.5 -73t-73.5 -30 q-41 0 -70.5 31t-29.5 72zM518 1745q0 41 31 71.5t72 30.5t71.5 -30.5t30.5 -71.5q0 -43 -30.5 -73t-74.5 -30q-41 0 -70.5 31t-29.5 72z" />
<glyph unicode="&#xd0;" horiz-adv-x="1593" d="M59 0v96h39q123 0 153 15.5t30 81.5v59v465h-222v96h222v414v59q0 66 -30 81t-153 15h-39v97h652q336 0 497 -105q137 -88 214 -256t77 -379q0 -223 -84 -393t-237 -256q-160 -90 -430 -90h-689zM510 209q0 -76 19.5 -94.5t97.5 -18.5h139q248 0 355.5 148.5t107.5 494.5 q0 340 -117 491.5t-377 151.5h-108q-76 0 -96.5 -19.5t-20.5 -94.5v-455h369v-96h-369v-508z" />
<glyph unicode="&#xd1;" horiz-adv-x="1669" d="M39 1382v97h422l817 -1088v643q0 211 -45 276.5t-191 71.5v97h584v-97q-147 -6 -192 -71.5t-45 -276.5v-1063h-86l-914 1233v-760q0 -211 45 -276.5t191 -71.5v-96h-584v96q147 6 192.5 71.5t45.5 276.5v871q-27 39 -69 53t-120 14h-51zM494 1657q20 96 74.5 151.5 t129.5 55.5q55 0 176 -56q88 -39 121 -39q35 0 65 30t40 75h71q-10 -96 -71.5 -156.5t-149.5 -60.5q-39 0 -70.5 10t-111.5 47q-61 29 -106 29q-74 0 -97 -86h-71z" />
<glyph unicode="&#xd2;" horiz-adv-x="1593" d="M92 737q0 174 65.5 333t184.5 267q187 172 463 172q295 0 495.5 -222t200.5 -548q0 -330 -201.5 -550t-502.5 -220q-299 0 -502 220.5t-203 547.5zM362 743q0 -190 23 -298.5t80 -202.5q113 -176 332 -176t331 176q57 92 80 201.5t23 296t-22.5 297t-80.5 200.5 q-114 176 -325 176q-225 0 -338 -176q-57 -92 -80 -200.5t-23 -293.5zM500 1890q0 31 20.5 51.5t50.5 20.5q39 0 103 -61l287 -289h-84l-326 200q-51 31 -51 78z" />
<glyph unicode="&#xd3;" horiz-adv-x="1593" d="M92 737q0 174 65.5 333t184.5 267q187 172 463 172q295 0 495.5 -222t200.5 -548q0 -330 -201.5 -550t-502.5 -220q-299 0 -502 220.5t-203 547.5zM362 743q0 -190 23 -298.5t80 -202.5q113 -176 332 -176t331 176q57 92 80 201.5t23 296t-22.5 297t-80.5 200.5 q-114 176 -325 176q-225 0 -338 -176q-57 -92 -80 -200.5t-23 -293.5zM649 1612l287 289q61 61 102 61q29 0 50.5 -21.5t21.5 -50.5q0 -47 -51 -78l-326 -200h-84z" />
<glyph unicode="&#xd4;" horiz-adv-x="1593" d="M92 737q0 174 65.5 333t184.5 267q187 172 463 172q295 0 495.5 -222t200.5 -548q0 -330 -201.5 -550t-502.5 -220q-299 0 -502 220.5t-203 547.5zM362 743q0 -190 23 -298.5t80 -202.5q113 -176 332 -176t331 176q57 92 80 201.5t23 296t-22.5 297t-80.5 200.5 q-114 176 -325 176q-225 0 -338 -176q-57 -92 -80 -200.5t-23 -293.5zM477 1612l256 340h129l256 -340h-74l-245 207l-248 -207h-74z" />
<glyph unicode="&#xd5;" horiz-adv-x="1593" d="M92 737q0 174 65.5 333t184.5 267q187 172 463 172q295 0 495.5 -222t200.5 -548q0 -330 -201.5 -550t-502.5 -220q-299 0 -502 220.5t-203 547.5zM362 743q0 -190 23 -298.5t80 -202.5q113 -176 332 -176t331 176q57 92 80 201.5t23 296t-22.5 297t-80.5 200.5 q-114 176 -325 176q-225 0 -338 -176q-57 -92 -80 -200.5t-23 -293.5zM471 1657q20 96 74.5 151.5t130.5 55.5q55 0 176 -56q88 -39 121 -39q35 0 65.5 30t38.5 75h72q-10 -96 -71.5 -156.5t-149.5 -60.5q-39 0 -71 10t-112 47q-61 29 -106 29q-74 0 -96 -86h-72z" />
<glyph unicode="&#xd6;" horiz-adv-x="1593" d="M92 737q0 174 65.5 333t184.5 267q187 172 463 172q295 0 495.5 -222t200.5 -548q0 -330 -201.5 -550t-502.5 -220q-299 0 -502 220.5t-203 547.5zM362 743q0 -190 23 -298.5t80 -202.5q113 -176 332 -176t331 176q57 92 80 201.5t23 296t-22.5 297t-80.5 200.5 q-114 176 -325 176q-225 0 -338 -176q-57 -92 -80 -200.5t-23 -293.5zM492 1745q0 41 30.5 71.5t71.5 30.5t71.5 -30.5t30.5 -71.5q0 -43 -30.5 -73t-73.5 -30q-41 0 -70.5 31t-29.5 72zM899 1745q0 41 31 71.5t71.5 30.5t71.5 -30.5t31 -71.5q0 -43 -31 -73t-74 -30 q-41 0 -70.5 31t-29.5 72z" />
<glyph unicode="&#xd7;" horiz-adv-x="1241" d="M104 117l402 401l-402 400l115 116l402 -401l401 401l115 -116l-402 -400l402 -401l-115 -115l-401 399l-402 -399z" />
<glyph unicode="&#xd8;" horiz-adv-x="1593" d="M61 -156l248 336q-102 106 -160.5 256t-58.5 301q0 170 73 335t197 274q186 164 441 163q215 0 397 -129l133 181h111l-176 -240q111 -111 173 -262.5t62 -308.5q0 -168 -75.5 -341t-196.5 -282q-178 -158 -436 -158q-229 0 -418 150l-203 -275h-111zM360 723 q1 -252 62 -389l688 928q-113 152 -315 151q-213 0 -324 -175t-111 -515zM469 246q115 -180 330 -180q211 0 317 163q61 96 88 218t27 315q0 266 -72 416z" />
<glyph unicode="&#xd9;" horiz-adv-x="1669" d="M35 1382v97h670v-97h-39q-125 0 -155 -15t-30 -81v-59v-686q0 -143 12.5 -200.5t53.5 -115.5q106 -145 327 -145q125 0 220.5 52t144.5 149q29 53 39 115.5t10 185.5v452q0 211 -45 276.5t-190 71.5v97h583v-97q-147 -6 -192 -71.5t-45 -276.5v-465q0 -256 -90 -385 q-145 -215 -490 -215q-358 0 -506 211q-53 78 -61 232v141v674v59q0 66 -29.5 81t-152.5 15h-35zM565 1890q0 31 20.5 51.5t51.5 20.5q39 0 102 -61l287 -289h-84l-326 200q-51 31 -51 78z" />
<glyph unicode="&#xda;" horiz-adv-x="1669" d="M35 1382v97h670v-97h-39q-125 0 -155 -15t-30 -81v-59v-686q0 -143 12.5 -200.5t53.5 -115.5q106 -145 327 -145q125 0 220.5 52t144.5 149q29 53 39 115.5t10 185.5v452q0 211 -45 276.5t-190 71.5v97h583v-97q-147 -6 -192 -71.5t-45 -276.5v-465q0 -256 -90 -385 q-145 -215 -490 -215q-358 0 -506 211q-53 78 -61 232v141v674v59q0 66 -29.5 81t-152.5 15h-35zM709 1612l286 289q61 61 103 61q29 0 50 -21.5t21 -50.5q0 -47 -51 -78l-325 -200h-84z" />
<glyph unicode="&#xdb;" horiz-adv-x="1669" d="M35 1382v97h670v-97h-39q-125 0 -155 -15t-30 -81v-59v-686q0 -143 12.5 -200.5t53.5 -115.5q106 -145 327 -145q125 0 220.5 52t144.5 149q29 53 39 115.5t10 185.5v452q0 211 -45 276.5t-190 71.5v97h583v-97q-147 -6 -192 -71.5t-45 -276.5v-465q0 -256 -90 -385 q-145 -215 -490 -215q-358 0 -506 211q-53 78 -61 232v141v674v59q0 66 -29.5 81t-152.5 15h-35zM543 1612l256 340h129l256 -340h-74l-246 207l-248 -207h-73z" />
<glyph unicode="&#xdc;" horiz-adv-x="1669" d="M35 1382v97h670v-97h-39q-125 0 -155 -15t-30 -81v-59v-686q0 -143 12.5 -200.5t53.5 -115.5q106 -145 327 -145q125 0 220.5 52t144.5 149q29 53 39 115.5t10 185.5v452q0 211 -45 276.5t-190 71.5v97h583v-97q-147 -6 -192 -71.5t-45 -276.5v-465q0 -256 -90 -385 q-145 -215 -490 -215q-358 0 -506 211q-53 78 -61 232v141v674v59q0 66 -29.5 81t-152.5 15h-35zM557 1745q0 41 30.5 71.5t71.5 30.5t72 -30.5t31 -71.5q0 -43 -31 -73t-74 -30q-41 0 -70.5 31t-29.5 72zM965 1745q0 41 30.5 71.5t71.5 30.5t71.5 -30.5t30.5 -71.5 q0 -43 -30.5 -73t-73.5 -30q-41 0 -70.5 31t-29.5 72z" />
<glyph unicode="&#xdd;" horiz-adv-x="1441" d="M-27 1382v97h658v-97h-121q-80 0 -80 -39q0 -25 23 -57l344 -555l254 453q35 63 34 106q0 49 -37.5 70.5t-121.5 21.5h-47v97h581v-97h-16q-104 0 -180 -69q-41 -41 -103 -150l-305 -551v-360v-59q0 -66 28.5 -81.5t153.5 -15.5h54v-96h-703v96h53q125 0 155 15.5 t30 81.5v59v336l-443 700q-35 57 -67.5 75.5t-98.5 18.5h-45zM582 1612l286 289q61 61 103 61q29 0 50 -21.5t21 -50.5q0 -47 -51 -78l-325 -200h-84z" />
<glyph unicode="&#xde;" horiz-adv-x="1366" d="M57 0v96h41q125 0 155 16.5t30 82.5v57v975v59q0 66 -30 81t-155 15h-41v97h678v-97h-41q-123 0 -152.5 -15t-29.5 -81v-59v-51h135q180 0 281.5 -18.5t195.5 -70.5q205 -106 205 -311q0 -102 -56 -190t-151 -137q-174 -88 -493 -89h-117v-108v-59q0 -66 29.5 -81.5 t152.5 -15.5h41v-96h-678zM512 453h94q266 0 368.5 70.5t102.5 256.5q0 174 -112 242q-96 59 -303 59h-46q-72 0 -88 -16t-16 -90v-522z" />
<glyph unicode="&#xdf;" horiz-adv-x="1175" d="M59 0v74h9q98 0 125.5 17.5t27.5 80.5v80v758q0 145 16.5 216.5t63.5 135.5q109 147 326 147q178 0 284.5 -97t106.5 -259q0 -106 -50 -178t-167 -131q111 -41 172 -103q123 -129 123 -344q0 -190 -93.5 -309t-242.5 -119q-113 0 -178.5 51.5t-65.5 137.5q0 57 31 91 t82 34q47 0 78.5 -32t31.5 -77q0 -27 -24 -74q-4 -12 -4 -20q0 -33 39 -33q57 0 94 97.5t37 254.5q0 313 -162 387q-37 16 -111 21q-57 2 -57 41q0 27 16.5 36t59.5 9q104 0 151 59.5t47 192.5q0 279 -200 278q-100 0 -155.5 -74.5t-55.5 -207.5v-1141h-355z" />
<glyph unicode="&#xe0;" d="M90 209q0 193 262 291q125 49 381 92v80q0 129 -53 174q-55 51 -168 51q-74 0 -128 -23.5t-54 -56.5q0 -10 14 -26q31 -43 31 -84q0 -45 -32 -75t-79 -30q-53 0 -86 35t-33 92q0 111 114 183.5t286 72.5q195 0 299 -82q82 -68 82 -244v-411q0 -78 17.5 -110t60.5 -32 q18 0 57 15q18 8 31 8q20 0 20 -25q0 -45 -59.5 -81.5t-128.5 -36.5q-72 0 -114 33.5t-67 111.5q-137 -162 -356 -162q-135 0 -216 65.5t-81 174.5zM248 1374q0 31 20.5 51.5t50.5 20.5q39 0 103 -64l287 -286h-84l-326 198q-51 35 -51 80zM297 238q0 -70 46 -115t116 -45 q66 0 130 34.5t103 92.5q27 41 34 77t7 128v94q-215 -35 -303 -76q-133 -63 -133 -190z" />
<glyph unicode="&#xe1;" d="M90 209q0 193 262 291q125 49 381 92v80q0 129 -53 174q-55 51 -168 51q-74 0 -128 -23.5t-54 -56.5q0 -10 14 -26q31 -43 31 -84q0 -45 -32 -75t-79 -30q-53 0 -86 35t-33 92q0 111 114 183.5t286 72.5q195 0 299 -82q82 -68 82 -244v-411q0 -78 17.5 -110t60.5 -32 q18 0 57 15q18 8 31 8q20 0 20 -25q0 -45 -59.5 -81.5t-128.5 -36.5q-72 0 -114 33.5t-67 111.5q-137 -162 -356 -162q-135 0 -216 65.5t-81 174.5zM297 238q0 -70 46 -115t116 -45q66 0 130 34.5t103 92.5q27 41 34 77t7 128v94q-215 -35 -303 -76q-133 -63 -133 -190z M412 1096l286 286q63 63 103 64q29 0 50 -21.5t21 -50.5q0 -45 -51 -80l-325 -198h-84z" />
<glyph unicode="&#xe2;" d="M90 209q0 193 262 291q125 49 381 92v80q0 129 -53 174q-55 51 -168 51q-74 0 -128 -23.5t-54 -56.5q0 -10 14 -26q31 -43 31 -84q0 -45 -32 -75t-79 -30q-53 0 -86 35t-33 92q0 111 114 183.5t286 72.5q195 0 299 -82q82 -68 82 -244v-411q0 -78 17.5 -110t60.5 -32 q18 0 57 15q18 8 31 8q20 0 20 -25q0 -45 -59.5 -81.5t-128.5 -36.5q-72 0 -114 33.5t-67 111.5q-137 -162 -356 -162q-135 0 -216 65.5t-81 174.5zM240 1096l256 340h129l256 -340h-74l-246 207l-248 -207h-73zM297 238q0 -70 46 -115t116 -45q66 0 130 34.5t103 92.5 q27 41 34 77t7 128v94q-215 -35 -303 -76q-133 -63 -133 -190z" />
<glyph unicode="&#xe3;" d="M90 209q0 193 262 291q125 49 381 92v80q0 129 -53 174q-55 51 -168 51q-74 0 -128 -23.5t-54 -56.5q0 -10 14 -26q31 -43 31 -84q0 -45 -32 -75t-79 -30q-53 0 -86 35t-33 92q0 111 114 183.5t286 72.5q195 0 299 -82q82 -68 82 -244v-411q0 -78 17.5 -110t60.5 -32 q18 0 57 15q18 8 31 8q20 0 20 -25q0 -45 -59.5 -81.5t-128.5 -36.5q-72 0 -114 33.5t-67 111.5q-137 -162 -356 -162q-135 0 -216 65.5t-81 174.5zM221 1133q20 96 74.5 151t130.5 55q55 0 176 -55q88 -39 121 -39q35 0 65.5 30t38.5 75h72q-10 -96 -71.5 -156.5 t-149.5 -60.5q-39 0 -71 10t-111 47q-61 29 -107 29q-74 0 -96 -86h-72zM297 238q0 -70 46 -115t116 -45q66 0 130 34.5t103 92.5q27 41 34 77t7 128v94q-215 -35 -303 -76q-133 -63 -133 -190z" />
<glyph unicode="&#xe4;" d="M90 209q0 193 262 291q125 49 381 92v80q0 129 -53 174q-55 51 -168 51q-74 0 -128 -23.5t-54 -56.5q0 -10 14 -26q31 -43 31 -84q0 -45 -32 -75t-79 -30q-53 0 -86 35t-33 92q0 111 114 183.5t286 72.5q195 0 299 -82q82 -68 82 -244v-411q0 -78 17.5 -110t60.5 -32 q18 0 57 15q18 8 31 8q20 0 20 -25q0 -45 -59.5 -81.5t-128.5 -36.5q-72 0 -114 33.5t-67 111.5q-137 -162 -356 -162q-135 0 -216 65.5t-81 174.5zM254 1216.5q0 40.5 30.5 71.5t71.5 31t72 -31t31 -71q0 -43 -31 -73t-74 -30q-41 0 -70.5 31t-29.5 71.5zM297 238 q0 -70 46 -115t116 -45q66 0 130 34.5t103 92.5q27 41 34 77t7 128v94q-215 -35 -303 -76q-133 -63 -133 -190zM662 1216.5q0 40.5 30.5 71.5t71.5 31t71.5 -31t30.5 -71q0 -43 -30.5 -73t-73.5 -30q-41 0 -70.5 31t-29.5 71.5z" />
<glyph unicode="&#xe5;" d="M90 209q0 193 262 291q125 49 381 92v80q0 129 -53 174q-55 51 -168 51q-74 0 -128 -23.5t-54 -56.5q0 -10 14 -26q31 -43 31 -84q0 -45 -32 -75t-79 -30q-53 0 -86 35t-33 92q0 111 114 183.5t286 72.5q195 0 299 -82q82 -68 82 -244v-411q0 -78 17.5 -110t60.5 -32 q18 0 57 15q18 8 31 8q20 0 20 -25q0 -45 -59.5 -81.5t-128.5 -36.5q-72 0 -114 33.5t-67 111.5q-137 -162 -356 -162q-135 0 -216 65.5t-81 174.5zM297 238q0 -70 46 -115t116 -45q66 0 130 34.5t103 92.5q27 41 34 77t7 128v94q-215 -35 -303 -76q-133 -63 -133 -190z M356 1290q0 82 59.5 142.5t143.5 60.5t144.5 -59.5t60.5 -143.5q0 -86 -60.5 -145.5t-146.5 -59.5q-82 0 -141.5 60.5t-59.5 144.5zM430 1290q0 -53 38 -92t91 -39q55 0 93 38t38 93q0 53 -38 91t-91 38t-92 -38t-39 -91z" />
<glyph unicode="&#xe6;" horiz-adv-x="1630" d="M74 203q0 205 241 297q119 47 375 92v94q0 115 -45 163t-153 48q-72 0 -124.5 -22.5t-52.5 -55.5q0 -12 15 -28q31 -43 30 -84q0 -45 -31.5 -75t-78.5 -30q-55 0 -88 35t-33 92q0 109 112.5 182.5t276.5 73.5q225 0 316 -117q127 117 296 117q201 0 314 -160 q109 -147 108 -327v-37h-665q2 -166 49 -246q84 -135 238 -135q100 0 172 51t135 168l73 -39q-135 -291 -419 -291q-199 0 -320 109q-12 10 -72 72q-80 -96 -164.5 -138.5t-201.5 -42.5q-137 0 -220 63.5t-83 170.5zM281 246q0 -74 43 -122t110 -48q63 0 121.5 30.5 t93.5 81.5q27 41 34 77t7 130v109q-217 -37 -289 -76q-121 -68 -120 -182zM889 549h358q49 0 66.5 15.5t17.5 60.5q0 121 -56 195.5t-151 74.5q-145 0 -206 -182q-29 -78 -29 -164z" />
<glyph unicode="&#xe7;" horiz-adv-x="909" d="M70 461q0 229 129 376.5t327 147.5q137 0 228.5 -70.5t91.5 -173.5q0 -61 -36 -100t-89 -39t-88 32t-35 83q0 45 41 94q12 18 12 25q0 25 -34.5 43t-79.5 18q-113 0 -182.5 -113.5t-69.5 -300.5q0 -180 71.5 -284.5t194.5 -104.5q80 0 136 48t106 159l79 -31 q-61 -158 -151 -229.5t-225 -71.5l-39 -98q43 6 59 6q76 0 122 -39t46 -100q0 -78 -68.5 -128t-177.5 -50q-92 0 -180 34l31 68q72 -25 125 -24q51 0 82.5 22.5t31.5 58.5q0 35 -26.5 57.5t-69.5 22.5q-23 0 -70 -10l-16 10l76 176q-160 27 -256 159t-96 327z" />
<glyph unicode="&#xe8;" horiz-adv-x="1024" d="M72 451q0 229 131 381.5t327 152.5q186 0 305 -146.5t117 -377.5h-663q-2 -156 51 -246q80 -135 233 -135q102 0 173 50t135 169l71 -39q-125 -291 -417 -291q-207 0 -335 133.5t-128 348.5zM227 1374q0 31 20.5 51.5t51.5 20.5q39 0 102 -64l287 -286h-84l-325 198 q-51 35 -52 80zM291 549h358q49 0 66.5 15.5t17.5 60.5q0 123 -56 197.5t-151 74.5q-143 0 -207 -182q-28 -80 -28 -166z" />
<glyph unicode="&#xe9;" horiz-adv-x="1024" d="M72 451q0 229 131 381.5t327 152.5q186 0 305 -146.5t117 -377.5h-663q-2 -156 51 -246q80 -135 233 -135q102 0 173 50t135 169l71 -39q-125 -291 -417 -291q-207 0 -335 133.5t-128 348.5zM291 549h358q49 0 66.5 15.5t17.5 60.5q0 123 -56 197.5t-151 74.5 q-143 0 -207 -182q-28 -80 -28 -166zM377 1096l287 286q63 63 102 64q29 0 50.5 -21.5t21.5 -50.5q0 -45 -52 -80l-325 -198h-84z" />
<glyph unicode="&#xea;" horiz-adv-x="1024" d="M72 451q0 229 131 381.5t327 152.5q186 0 305 -146.5t117 -377.5h-663q-2 -156 51 -246q80 -135 233 -135q102 0 173 50t135 169l71 -39q-125 -291 -417 -291q-207 0 -335 133.5t-128 348.5zM205 1096l256 340h129l256 -340h-74l-246 207l-247 -207h-74zM291 549h358 q49 0 66.5 15.5t17.5 60.5q0 123 -56 197.5t-151 74.5q-143 0 -207 -182q-28 -80 -28 -166z" />
<glyph unicode="&#xeb;" horiz-adv-x="1024" d="M72 451q0 229 131 381.5t327 152.5q186 0 305 -146.5t117 -377.5h-663q-2 -156 51 -246q80 -135 233 -135q102 0 173 50t135 169l71 -39q-125 -291 -417 -291q-207 0 -335 133.5t-128 348.5zM221 1216.5q0 40.5 31 71.5t72 31t71.5 -31t30.5 -71q0 -43 -30.5 -73 t-73.5 -30q-41 0 -71 31t-30 71.5zM291 549h358q49 0 66.5 15.5t17.5 60.5q0 123 -56 197.5t-151 74.5q-143 0 -207 -182q-28 -80 -28 -166zM629 1216.5q0 40.5 30.5 71.5t71.5 31t72 -31t31 -71q0 -43 -31 -73t-74 -30q-41 0 -70.5 31t-29.5 71.5z" />
<glyph unicode="&#xec;" horiz-adv-x="645" d="M16 1374q0 31 20.5 51.5t51.5 20.5q39 0 102 -64l287 -286h-84l-325 198q-51 35 -52 80zM37 844v88l385 22v-702v-82q0 -61 27.5 -78.5t128.5 -17.5h14v-74h-531v74h15q98 0 125.5 17.5t27.5 78.5v82v489q0 66 -15 84.5t-73 18.5h-104z" />
<glyph unicode="&#xed;" horiz-adv-x="645" d="M37 844v88l385 22v-702v-82q0 -61 27.5 -78.5t128.5 -17.5h14v-74h-531v74h15q98 0 125.5 17.5t27.5 78.5v82v489q0 66 -15 84.5t-73 18.5h-104zM168 1096l287 286q63 63 102 64q29 0 50.5 -21.5t21.5 -50.5q0 -45 -51 -80l-326 -198h-84z" />
<glyph unicode="&#xee;" horiz-adv-x="645" d="M2 1096l256 340h129l256 -340h-74l-245 207l-248 -207h-74zM45 844v88l385 22v-702v-82q0 -61 27.5 -78.5t128.5 -17.5h14v-74h-530v74h14q98 0 126 17.5t28 78.5v82v489q0 66 -15.5 84.5t-72.5 18.5h-105z" />
<glyph unicode="&#xef;" horiz-adv-x="645" d="M16 1216.5q0 40.5 31 71.5t72 31t71.5 -31t30.5 -71q0 -43 -30.5 -73t-73.5 -30q-41 0 -71 31t-30 71.5zM45 844v88l385 22v-702v-82q0 -61 27.5 -78.5t128.5 -17.5h14v-74h-530v74h14q98 0 126 17.5t28 78.5v82v489q0 66 -15.5 84.5t-72.5 18.5h-105zM424 1216.5 q0 40.5 30.5 71.5t71.5 31t72 -31t31 -71q0 -43 -31 -73t-74 -30q-41 0 -70.5 31t-29.5 71.5z" />
<glyph unicode="&#xf0;" horiz-adv-x="1024" d="M70 477q0 213 129 360.5t315 147.5q37 0 88 -10q-57 70 -92 104.5t-152 143.5l-241 -140l-47 78l209 121q-59 43 -187 123l53 80q131 -59 248 -135l250 147l51 -76l-215 -127q117 -86 185.5 -152.5t128.5 -150.5q162 -227 161 -508q0 -217 -128 -365.5t-314 -148.5 q-184 0 -313 148.5t-129 359.5zM285 475q0 -203 58 -310.5t169 -107.5t169 107.5t58 312.5q0 203 -57 311.5t-166 108.5q-231 0 -231 -422z" />
<glyph unicode="&#xf1;" horiz-adv-x="1251" d="M55 0v74h8q98 0 126 17.5t28 78.5v82v489q0 66 -15.5 84.5t-72.5 18.5h-74v88l355 22v-166q131 197 323 197q90 0 164 -42t113 -116q27 -51 35 -97t8 -157v-321v-82q0 -61 27.5 -78.5t125.5 -17.5h8v-74h-518v74h9q100 0 127.5 17.5t27.5 78.5v82v332q0 141 -45 204 q-23 31 -64.5 51.5t-80.5 20.5q-66 0 -128.5 -43t-95.5 -112q-37 -78 -36 -240v-213v-82q0 -61 27.5 -78.5t127.5 -17.5h8v-74h-518zM289 1133q20 96 74.5 151t130.5 55q55 0 176 -55q88 -39 121 -39q35 0 64.5 30t39.5 75h72q-10 -96 -71.5 -156.5t-150.5 -60.5 q-61 0 -182 57q-61 29 -106 29q-74 0 -97 -86h-71z" />
<glyph unicode="&#xf2;" horiz-adv-x="1024" d="M70 475q0 215 129 362.5t317 147.5q182 0 310 -148.5t128 -359.5t-129 -359.5t-313 -148.5t-313 147.5t-129 358.5zM207 1374q0 31 20.5 51.5t51.5 20.5q39 0 102 -64l287 -286h-84l-326 198q-51 35 -51 80zM285 475q0 -203 58 -310.5t169 -107.5t169 107.5t58 312.5 q0 203 -57 311.5t-166 108.5q-231 0 -231 -422z" />
<glyph unicode="&#xf3;" horiz-adv-x="1024" d="M70 475q0 215 129 362.5t317 147.5q182 0 310 -148.5t128 -359.5t-129 -359.5t-313 -148.5t-313 147.5t-129 358.5zM285 475q0 -203 58 -310.5t169 -107.5t169 107.5t58 312.5q0 203 -57 311.5t-166 108.5q-231 0 -231 -422zM377 1096l287 286q63 63 102 64 q29 0 50.5 -21.5t21.5 -50.5q0 -45 -52 -80l-325 -198h-84z" />
<glyph unicode="&#xf4;" horiz-adv-x="1024" d="M70 475q0 215 129 362.5t317 147.5q182 0 310 -148.5t128 -359.5t-129 -359.5t-313 -148.5t-313 147.5t-129 358.5zM193 1096l256 340h129l256 -340h-74l-246 207l-248 -207h-73zM285 475q0 -203 58 -310.5t169 -107.5t169 107.5t58 312.5q0 203 -57 311.5t-166 108.5 q-231 0 -231 -422z" />
<glyph unicode="&#xf5;" horiz-adv-x="1024" d="M70 475q0 215 129 362.5t317 147.5q182 0 310 -148.5t128 -359.5t-129 -359.5t-313 -148.5t-313 147.5t-129 358.5zM186 1133q20 96 74.5 151t130.5 55q55 0 176 -55q88 -39 121 -39q35 0 66 30t39 75h71q-10 -96 -71.5 -156.5t-149.5 -60.5q-61 0 -182 57 q-61 29 -107 29q-74 0 -96 -86h-72zM285 475q0 -203 58 -310.5t169 -107.5t169 107.5t58 312.5q0 203 -57 311.5t-166 108.5q-231 0 -231 -422z" />
<glyph unicode="&#xf6;" horiz-adv-x="1024" d="M70 475q0 215 129 362.5t317 147.5q182 0 310 -148.5t128 -359.5t-129 -359.5t-313 -148.5t-313 147.5t-129 358.5zM207 1216.5q0 40.5 30.5 71.5t71.5 31t72 -31t31 -71q0 -43 -31 -73t-74 -30q-41 0 -70.5 31t-29.5 71.5zM285 475q0 -203 58 -310.5t169 -107.5 t169 107.5t58 312.5q0 203 -57 311.5t-166 108.5q-231 0 -231 -422zM614 1216.5q0 40.5 31 71.5t72 31t71.5 -31t30.5 -71q0 -43 -30.5 -73t-73.5 -30q-41 0 -71 31t-30 71.5z" />
<glyph unicode="&#xf7;" horiz-adv-x="1241" d="M104 436v164h1033v-164h-1033zM494 111q0 51 38 88t91 37q51 0 88 -38t37 -89.5t-38 -89t-89 -37.5q-53 0 -90 37.5t-37 91.5zM494 930q0 51 38 88t91 37q51 0 88 -38t37 -89t-38 -89t-89 -38q-53 0 -90 38t-37 91z" />
<glyph unicode="&#xf8;" horiz-adv-x="1024" d="M70 475q0 213 129 361.5t313 148.5q94 0 186 -47l103 199h102l-129 -250q84 -72 132 -183.5t48 -236.5q0 -219 -126 -358.5t-322 -139.5q-106 0 -182 39l-101 -194h-102l125 243q-176 154 -176 418zM285 469q0 -151 39 -260l323 629q-57 59 -133 59q-229 0 -229 -428z M379 117q51 -59 131 -60q63 0 114.5 39t73.5 105q41 119 41 295q0 143 -37 249z" />
<glyph unicode="&#xf9;" horiz-adv-x="1251" d="M43 844v88l358 22v-624q0 -84 5.5 -114t25.5 -58q41 -63 143 -64q158 0 226 144q43 94 43 251v252q0 66 -15.5 84.5t-72.5 18.5h-105v88l385 22v-716q0 -98 22.5 -124t106.5 -26h52v-88l-373 -14v170q-68 -98 -143.5 -142.5t-176.5 -44.5q-190 0 -276 131q-39 59 -39 199 v442q0 66 -15.5 84.5t-72.5 18.5h-78zM303 1374q0 31 20.5 51.5t51.5 20.5q39 0 102 -64l287 -286h-84l-326 198q-51 35 -51 80z" />
<glyph unicode="&#xfa;" horiz-adv-x="1251" d="M43 844v88l358 22v-624q0 -84 5.5 -114t25.5 -58q41 -63 143 -64q158 0 226 144q43 94 43 251v252q0 66 -15.5 84.5t-72.5 18.5h-105v88l385 22v-716q0 -98 22.5 -124t106.5 -26h52v-88l-373 -14v170q-68 -98 -143.5 -142.5t-176.5 -44.5q-190 0 -276 131q-39 59 -39 199 v442q0 66 -15.5 84.5t-72.5 18.5h-78zM481 1096l287 286q63 63 102 64q29 0 50.5 -21.5t21.5 -50.5q0 -45 -51 -80l-326 -198h-84z" />
<glyph unicode="&#xfb;" horiz-adv-x="1251" d="M43 844v88l358 22v-624q0 -84 5.5 -114t25.5 -58q41 -63 143 -64q158 0 226 144q43 94 43 251v252q0 66 -15.5 84.5t-72.5 18.5h-105v88l385 22v-716q0 -98 22.5 -124t106.5 -26h52v-88l-373 -14v170q-68 -98 -143.5 -142.5t-176.5 -44.5q-190 0 -276 131q-39 59 -39 199 v442q0 66 -15.5 84.5t-72.5 18.5h-78zM295 1096l256 340h129l256 -340h-74l-246 207l-247 -207h-74z" />
<glyph unicode="&#xfc;" horiz-adv-x="1251" d="M43 844v88l358 22v-624q0 -84 5.5 -114t25.5 -58q41 -63 143 -64q158 0 226 144q43 94 43 251v252q0 66 -15.5 84.5t-72.5 18.5h-105v88l385 22v-716q0 -98 22.5 -124t106.5 -26h52v-88l-373 -14v170q-68 -98 -143.5 -142.5t-176.5 -44.5q-190 0 -276 131q-39 59 -39 199 v442q0 66 -15.5 84.5t-72.5 18.5h-78zM309 1216.5q0 40.5 31 71.5t72 31t71.5 -31t30.5 -71q0 -43 -30.5 -73t-73.5 -30q-41 0 -71 31t-30 71.5zM717 1216.5q0 40.5 30.5 71.5t71.5 31t72 -31t31 -71q0 -43 -31 -73t-74 -30q-41 0 -70.5 31t-29.5 71.5z" />
<glyph unicode="&#xfd;" horiz-adv-x="1099" d="M6 -264q0 55 35 91t88 36q45 0 74.5 -26.5t29.5 -65.5q0 -23 -10 -54q-4 -16 -4 -18q0 -20 33 -21q49 0 114.5 74t120.5 191l35 71l-334 756q-27 61 -58.5 86t-80.5 25h-22v73h487v-73h-43q-94 0 -94 -52q0 -14 12 -43l225 -526l187 463q20 49 20 82q0 76 -110 76h-33v73 h409v-73h-12q-59 0 -96 -36t-76 -130l-233 -578q-113 -285 -195 -395q-121 -164 -282 -164q-80 0 -133.5 45t-53.5 113zM395 1096l287 286q63 63 102 64q29 0 50.5 -21.5t21.5 -50.5q0 -45 -51 -80l-326 -198h-84z" />
<glyph unicode="&#xfe;" horiz-adv-x="1175" d="M57 -340h9q98 0 125.5 17.5t27.5 78.5v82v1458q0 66 -15.5 84.5t-72.5 18.5h-74v90l355 20v-702q53 94 120.5 136t161.5 42q168 0 285 -146.5t117 -357.5q0 -219 -118 -365.5t-296 -146.5q-94 0 -156.5 39t-113.5 127v-297v-82q0 -61 27.5 -78.5t127.5 -17.5h23v-74h-533 v74zM410 467q0 -176 66.5 -281.5t175 -105.5t169 107.5t60.5 306.5q0 180 -60 280t-164 100q-115 0 -181 -108.5t-66 -298.5z" />
<glyph unicode="&#xff;" horiz-adv-x="1099" d="M6 -264q0 55 35 91t88 36q45 0 74.5 -26.5t29.5 -65.5q0 -23 -10 -54q-4 -16 -4 -18q0 -20 33 -21q49 0 114.5 74t120.5 191l35 71l-334 756q-27 61 -58.5 86t-80.5 25h-22v73h487v-73h-43q-94 0 -94 -52q0 -14 12 -43l225 -526l187 463q20 49 20 82q0 76 -110 76h-33v73 h409v-73h-12q-59 0 -96 -36t-76 -130l-233 -578q-113 -285 -195 -395q-121 -164 -282 -164q-80 0 -133.5 45t-53.5 113zM256 1216.5q0 40.5 30.5 71.5t71.5 31t72 -31t31 -71q0 -43 -31 -73t-74 -30q-41 0 -70.5 31t-29.5 71.5zM664 1216.5q0 40.5 30.5 71.5t71.5 31 t71.5 -31t30.5 -71q0 -43 -30.5 -73t-73.5 -30q-41 0 -70.5 31t-29.5 71.5z" />
<glyph unicode="&#x152;" horiz-adv-x="2048" d="M39 750q0 176 72.5 333.5t197.5 255.5q176 139 471 140h1168l28 -525h-90q-47 276 -145 355q-96 74 -338 73h-53q-84 0 -106.5 -18t-22.5 -84v-467h26q145 0 212 65.5t75 215.5h96v-672h-96q-6 168 -78 240q-31 33 -77 44t-140 11h-18v-522q0 -53 16 -68q31 -31 131 -31 h76q227 0 324.5 93.5t150.5 357.5h90l-41 -547h-1204q-166 0 -285 44t-213 140q-106 111 -166.5 259.5t-60.5 306.5zM309 737q0 -641 404 -641q80 0 143.5 30t93.5 83q41 73 41 276v557q0 115 -10 161t-43 87q-74 92 -227 92q-96 0 -176 -41t-123 -112q-102 -170 -103 -492z " />
<glyph unicode="&#x153;" horiz-adv-x="1705" d="M70 475q0 213 130 361.5t318 148.5q100 0 192.5 -48t149.5 -130q139 178 352 178q188 0 307 -146.5t119 -377.5h-671q0 -158 51 -246q82 -135 237 -135q102 0 175.5 51t136.5 168l71 -39q-125 -291 -421 -291q-236 0 -361 158q-131 -158 -348 -158q-193 0 -315.5 141.5 t-122.5 364.5zM285 469q0 -199 59 -305.5t172 -106.5q66 0 118 39t75 105q41 127 41 288q0 197 -59.5 302.5t-170.5 105.5q-236 0 -235 -428zM969 549h362q51 0 68.5 15.5t17.5 60.5q0 123 -57 197.5t-152 74.5q-147 0 -211 -182q-26 -80 -28 -166z" />
<glyph unicode="&#x178;" horiz-adv-x="1441" d="M-27 1382v97h658v-97h-121q-80 0 -80 -39q0 -25 23 -57l344 -555l254 453q35 63 34 106q0 49 -37.5 70.5t-121.5 21.5h-47v97h581v-97h-16q-104 0 -180 -69q-41 -41 -103 -150l-305 -551v-360v-59q0 -66 28.5 -81.5t153.5 -15.5h54v-96h-703v96h53q125 0 155 15.5 t30 81.5v59v336l-443 700q-35 57 -67.5 75.5t-98.5 18.5h-45zM426 1745q0 41 30.5 71.5t71.5 30.5t72 -30.5t31 -71.5q0 -43 -31 -73t-74 -30q-41 0 -70.5 31t-29.5 72zM834 1745q0 41 30.5 71.5t71.5 30.5t71.5 -30.5t30.5 -71.5q0 -43 -30.5 -73t-73.5 -30q-41 0 -70.5 31 t-29.5 72z" />
<glyph unicode="&#x2c6;" horiz-adv-x="681" d="M20 1096l256 340h130l256 -340h-74l-246 207l-248 -207h-74z" />
<glyph unicode="&#x2dc;" horiz-adv-x="681" d="M2 1133q20 96 74.5 151t130.5 55q55 0 176 -55q88 -39 121 -39q35 0 64.5 30t39.5 75h72q-10 -96 -71.5 -156.5t-149.5 -60.5q-61 0 -183 57q-61 29 -106 29q-74 0 -96 -86h-72z" />
<glyph unicode="&#x2000;" horiz-adv-x="1002" />
<glyph unicode="&#x2001;" horiz-adv-x="2005" />
<glyph unicode="&#x2002;" horiz-adv-x="1002" />
<glyph unicode="&#x2003;" horiz-adv-x="2005" />
<glyph unicode="&#x2004;" horiz-adv-x="668" />
<glyph unicode="&#x2005;" horiz-adv-x="501" />
<glyph unicode="&#x2006;" horiz-adv-x="334" />
<glyph unicode="&#x2007;" horiz-adv-x="334" />
<glyph unicode="&#x2008;" horiz-adv-x="250" />
<glyph unicode="&#x2009;" horiz-adv-x="401" />
<glyph unicode="&#x200a;" horiz-adv-x="111" />
<glyph unicode="&#x2010;" horiz-adv-x="681" d="M86 399v170h510v-170h-510z" />
<glyph unicode="&#x2011;" horiz-adv-x="681" d="M86 399v170h510v-170h-510z" />
<glyph unicode="&#x2012;" horiz-adv-x="681" d="M86 399v170h510v-170h-510z" />
<glyph unicode="&#x2013;" d="M0 422v125h1139v-125h-1139z" />
<glyph unicode="&#x2014;" horiz-adv-x="2048" d="M0 422v125h2048v-125h-2048z" />
<glyph unicode="&#x2018;" horiz-adv-x="417" d="M53 1112q1 211 269 395l49 -57q-209 -150 -209 -281q0 -18 14 -18q2 0 6 2l37 2q59 0 97 -34t38 -87t-37.5 -89t-95.5 -36q-76 0 -122 55.5t-46 147.5z" />
<glyph unicode="&#x2019;" horiz-adv-x="417" d="M49 979q207 131 207 278q0 18 -14 19h-6q-8 -2 -27 -2q-68 0 -107 31.5t-39 89.5q0 53 38 88t96 35q74 0 121 -54.5t47 -140.5q0 -133 -86 -248q-33 -43 -150 -131q-4 -2 -16.5 -11t-16.5 -11z" />
<glyph unicode="&#x201a;" horiz-adv-x="417" d="M49 -317q207 137 207 278q0 18 -14 19h-6q-4 -2 -33 -3q-63 0 -101.5 33t-38.5 88q0 53 38 88t96 35q76 0 122 -55t46 -148q-1 -209 -269 -393z" />
<glyph unicode="&#x201c;" horiz-adv-x="796" d="M53 1112q1 211 269 395l49 -57q-94 -57 -151.5 -136t-57.5 -145q0 -18 14 -18q2 0 6 2l37 2q59 0 97 -34t38 -87t-37.5 -89t-95.5 -36q-76 0 -122 55.5t-46 147.5zM430 1112q0 211 268 395l50 -57q-209 -150 -209 -281q0 -18 14 -18q2 0 6 2l37 2q59 0 97 -34t38 -87 t-38 -89t-95 -36q-76 0 -122 55.5t-46 147.5z" />
<glyph unicode="&#x201d;" horiz-adv-x="796" d="M49 969q207 150 207 278q0 18 -14 19h-6q-4 -2 -33 -2q-63 0 -101.5 32.5t-38.5 87.5q0 53 38 88t96 35q76 0 122 -55t46 -147q-1 -210 -269 -396zM426 969q207 150 207 278q0 18 -15 19h-6q-4 -2 -32 -2q-63 0 -101.5 32.5t-38.5 87.5q0 53 38 88t95 35q76 0 122 -55 t46 -147q0 -210 -268 -396z" />
<glyph unicode="&#x201e;" horiz-adv-x="796" d="M49 -317q207 145 207 278q0 18 -14 19h-6q-4 -2 -33 -3q-63 0 -101.5 33t-38.5 88q0 53 38 88t96 35q76 0 122 -55t46 -148q-1 -209 -269 -393zM426 -317q207 145 207 278q0 18 -15 19h-6q-4 -2 -32 -3q-63 0 -101.5 33t-38.5 88q0 53 38 88t95 35q76 0 122 -55t46 -148 q0 -209 -268 -393z" />
<glyph unicode="&#x2022;" horiz-adv-x="1241" d="M274 791q0 143 101.5 243.5t245 100.5t244 -100.5t100.5 -243.5q0 -145 -101.5 -246t-247.5 -101q-139 0 -240.5 102.5t-101.5 244.5z" />
<glyph unicode="&#x2026;" horiz-adv-x="2048" d="M213 100.5q0 53.5 38 90t91 36.5q51 0 89 -37.5t38 -89.5q0 -53 -38 -91t-91 -38t-90 38t-37 91.5zM895 100.5q0 53.5 38 90t91 36.5t90 -37.5t37 -89.5q0 -53 -38 -91t-91 -38t-90 38t-37 91.5zM1577 100.5q0 53.5 38 90t91 36.5q51 0 89 -37.5t38 -89.5q0 -53 -38 -91 t-91 -38t-90 38t-37 91.5z" />
<glyph unicode="&#x202f;" horiz-adv-x="401" />
<glyph unicode="&#x2039;" horiz-adv-x="530" d="M78 498l307 297q29 29 45 28q23 0 23 -24.5t-91 -147.5l-106 -153q195 -279 195 -301.5t-25 -22.5q-16 0 -45 31l-80 78l-98 96l-84 80q-27 27 -41 39z" />
<glyph unicode="&#x203a;" horiz-adv-x="530" d="M80 197q0 25 194 301q-195 281 -194 301q0 8 7 16t17 8q16 0 46 -30l118 -117l185 -178l-125 -119l-99 -96l-79 -78q-29 -31 -48 -31q-23 0 -22 23z" />
<glyph unicode="&#x205f;" horiz-adv-x="501" />
<glyph unicode="&#x20ac;" d="M0 788l41 117h88q27 119 78 219q178 336 469 336q84 0 144.5 -27.5t150.5 -105.5l67 117h64l14 -418h-72q-47 139 -94 205q-43 61 -116.5 99t-149.5 38q-295 0 -344 -463h618l-40 -117h-586v-153h547l-41 -117h-500q37 -457 358 -457q119 0 194 62.5t138 212.5v-199 q-133 -168 -350 -168q-209 0 -359.5 149.5t-193.5 399.5h-123l41 117h70q-2 29 -2 61q0 55 2 92h-113z" />
<glyph unicode="&#x2122;" horiz-adv-x="2048" d="M92 1126l21 353h727l20 -353h-76q-18 145 -62 209t-126 64q-43 0 -43 -31v-608q0 -59 4 -66q12 -12 90 -12h43v-80h-428v80h43q76 0 88 12q4 6 4 66v608q0 31 -43 31q-111 0 -155 -123q-20 -66 -31 -150h-76zM862 602v82q88 2 112.5 35t24.5 151v451v35q0 31 -13 37 t-81 6h-35v80h326l225 -605l217 605h318v-80h-35q-78 0 -90 -13q-4 -4 -4 -65v-559q0 -61 4 -66q12 -12 90 -12h35v-82h-412v82h35q76 0 88 12q4 6 4 66v559l-258 -717h-51l-275 721v-455q0 -117 25 -150.5t111 -35.5v-82h-361z" />
<glyph unicode="&#x25fc;" horiz-adv-x="952" d="M0 0v952h952v-952h-952z" />
</font>
</defs>
</svg>
