<?xml version="1.0" standalone="no"?>
<!DOCTYPE svg PUBLIC "-//W3C//DTD SVG 1.1//EN" "http://www.w3.org/Graphics/SVG/1.1/DTD/svg11.dtd" >
<svg xmlns="http://www.w3.org/2000/svg" xmlns:xlink="http://www.w3.org/1999/xlink" version="1.1">
<metadata></metadata>
<defs>
<font id="century_schoolbook_litalic" horiz-adv-x="681" >
<font-face units-per-em="2048" ascent="1638" descent="-410" />
<missing-glyph horiz-adv-x="569" />
<glyph unicode="&#xfb01;" horiz-adv-x="1251" d="M-123 -414q174 369 303 893l84 357h-182l27 96h178q53 180 78.5 238.5t78.5 132.5q150 205 406 204q113 0 183.5 -49t70.5 -127q0 -49 -33 -83t-82 -34q-45 0 -76.5 27t-31.5 66q0 23 18 57q14 27 14 37q0 37 -73 37q-170 0 -260 -178q-54 -101 -115 -328h184 q166 0 402 29l-217 -730q-25 -90 -25 -114q0 -43 35 -43q41 0 108.5 67.5t141.5 182.5l61 -37q-186 -315 -383 -316q-59 0 -99 37t-40 92q0 53 47 205l111 377q25 88 24 106q0 27 -25.5 37.5t-89.5 10.5h-258l-127 -506q-33 -131 -105.5 -372t-107.5 -335z" />
<glyph unicode="&#xfb02;" horiz-adv-x="1251" d="M-123 -414q174 371 303 893l84 357h-182l27 96h178q57 186 80.5 241.5t78.5 129.5q78 106 176.5 155t237.5 49q67 0 133 -14l224 14l-379 -1276q-27 -90 -27 -116q0 -41 37 -41q43 0 110.5 67.5t141.5 182.5l63 -37q-186 -317 -383 -318q-61 0 -97 39t-36 105 q0 78 55 262l254 856q-47 25 -47 76q0 29 19 57q14 27 14 39q0 33 -88 33q-182 0 -274 -176q-53 -109 -115 -328h293l-27 -96h-289l-127 -506q-33 -131 -105.5 -372t-107.5 -335z" />
<glyph horiz-adv-x="0" />
<glyph unicode="&#xd;" />
<glyph unicode=" "  horiz-adv-x="569" />
<glyph unicode="&#x09;" horiz-adv-x="569" />
<glyph unicode="&#xa0;" horiz-adv-x="569" />
<glyph unicode="!" d="M61 96q0 51 37 89t90.5 38t90 -38t36.5 -89q0 -53 -37.5 -90t-91.5 -37q-51 0 -88 38t-37 89zM213 393q135 510 162 889q8 106 48 166.5t103 60.5q53 0 87 -32.5t34 -85.5q0 -45 -13 -81t-89 -198q-137 -301 -258 -739z" />
<glyph unicode="&#x22;" horiz-adv-x="819" d="M205 1065l114 358q23 76 87 76q37 0 64.5 -26.5t27.5 -61.5q0 -27 -27 -65l-225 -302zM516 1065l115 358q23 76 86 76q37 0 64.5 -26.5t27.5 -61.5q0 -31 -27 -65l-225 -302z" />
<glyph unicode="#" horiz-adv-x="1138" d="M68 451v114h223l43 303h-211v115h227l62 422h133l-62 -422h252l62 422h133l-62 -422h205v-115h-221l-43 -303h209v-114h-225l-66 -451h-133l65 451h-251l-66 -451h-133l65 451h-206zM424 565h252l43 303h-252z" />
<glyph unicode="$" horiz-adv-x="1138" d="M6 293q0 82 44 134t114 52q55 0 91 -33.5t36 -87.5q0 -88 -101 -116q-41 -10 -40 -37q0 -43 60 -85t142 -59l152 562l-12 6l-13 4q-129 53 -198.5 147t-69.5 213q0 178 143.5 302t347.5 124h15l55 203h88l-57 -211q135 -25 215 -106.5t80 -196.5q0 -74 -37 -116t-100 -42 q-51 0 -85 32t-34 79q0 72 69 106q35 18 35 43q0 33 -47 66t-119 49l-143 -530q94 -39 135 -64q197 -127 197 -323q0 -121 -69 -220.5t-193 -158.5q-119 -55 -275 -58h-14l-68 -247h-88l70 253q-145 25 -235.5 112t-90.5 204zM375 1069q0 -78 47 -142.5t127 -95.5l10 -4 l135 506q-150 -2 -234.5 -72.5t-84.5 -191.5zM440 53q76 2 138 21q94 29 152 100.5t58 159.5q0 102 -65 174q-35 39 -113 72q-14 6 -26 10z" />
<glyph unicode="%" horiz-adv-x="1705" d="M94 911q0 102 62.5 227.5t154.5 204.5q125 106 260 107q113 0 187 -96q80 -45 149 -45q207 0 332 170h94l-848 -1479h-102l741 1300q-109 -61 -198 -61q-59 0 -133 25q8 -47 8 -74q0 -201 -146 -377q-131 -156 -299 -156q-115 0 -188.5 72t-73.5 182zM266 858 q0 -55 34 -91t87 -36q125 0 234.5 149.5t109.5 321.5q0 35 -12 88q-82 31 -131 88q-68 -23 -101.5 -57.5t-93.5 -136.5q-127 -223 -127 -326zM911 279q0 186 142 364q145 178 329 178q104 0 172 -68.5t68 -174.5q0 -90 -43 -199t-113 -197q-119 -152 -288 -151 q-115 0 -191 70.5t-76 177.5zM1079 227q0 -51 35 -87t86 -36q127 0 238.5 151t111.5 318q0 72 -39 122t-94 50q-92 0 -186 -151q-152 -254 -152 -367z" />
<glyph unicode="&#x26;" horiz-adv-x="1744" d="M49 348q0 205 191 361q92 72 299 159q-16 123 -17 191q0 205 104.5 327.5t278.5 122.5q139 0 225.5 -74.5t86.5 -193.5q0 -172 -181 -283q-86 -53 -274 -106q90 -381 217 -553q225 209 225 326q0 45 -41 72.5t-110 27.5h-15l13 88h532l-10 -88q-102 -10 -161.5 -58.5 t-168.5 -207.5q-104 -145 -205 -238q92 -106 187 -106q70 0 122 39t126 145l69 -43q-182 -287 -412 -287q-154 0 -266 119q-213 -119 -409 -119q-182 0 -294 104.5t-112 274.5zM285 401q0 -123 75 -225q74 -92 201 -92q115 0 242 80q-166 266 -248 612q-106 -53 -156 -102 q-115 -115 -114 -273zM725 1157q0 -82 20 -217q12 4 27 10q133 39 216 122t83 175q0 72 -46 120t-116 48q-84 0 -134 -69.5t-50 -188.5z" />
<glyph unicode="'" horiz-adv-x="569" d="M233 1065l119 358q23 76 88 76q39 0 68 -25.5t29 -58.5q0 -31 -29 -69l-234 -302z" />
<glyph unicode="(" d="M82 436q0 348 203 652t512 419l20 -47q-129 -68 -205.5 -136.5t-136.5 -170.5q-106 -182 -168.5 -426t-62.5 -477q0 -135 25.5 -237.5t92.5 -233.5l-43 -31q-238 295 -237 688z" />
<glyph unicode=")" d="M-190 -205q129 70 205.5 138.5t134.5 168.5q106 184 168.5 427t62.5 479q0 133 -25.5 234t-91.5 235l43 30q236 -293 236 -688q0 -348 -202 -651t-511 -420z" />
<glyph unicode="*" horiz-adv-x="1024" d="M70 921.5q0 34.5 27.5 62.5t64.5 28q6 0 39 -4q72 -12 100 -13q39 0 88 13l66 18l-47 49q-39 35 -69 52.5t-97 41.5q-80 33 -80 97q0 35 23.5 59.5t60.5 24.5q68 0 96 -80q27 -72 42 -98.5t54 -65.5l47 -49l19 67q12 43 12 86q0 35 -10 103q-4 33 -4 41q0 35 27.5 62.5 t62.5 27.5q33 0 57.5 -26.5t24.5 -63.5q0 -35 -35 -76q-47 -55 -62.5 -82t-29.5 -84l-19 -65l68 16q74 20 164 94q43 35 76 35q37 0 63.5 -24.5t26.5 -59.5t-29 -62.5t-63 -27.5q-6 0 -39 4q-68 14 -97 14q-27 0 -92 -14l-65 -18l49 -50q53 -53 162 -94q82 -33 82 -96 q0 -37 -24 -60.5t-60 -23.5q-68 0 -97 80q-25 70 -40 95.5t-56 68.5l-47 49l-18 -68q-12 -43 -13 -84q0 -27 10 -104q4 -33 5 -39q0 -37 -27 -64.5t-64 -27.5q-33 0 -57 26.5t-24 63.5q0 35 34 76q47 59 62.5 84.5t30.5 81.5l18 65l-68 -16q-72 -20 -163 -95 q-43 -35 -76 -34q-37 0 -63.5 24.5t-26.5 59z" />
<glyph unicode="+" horiz-adv-x="1241" d="M76 436v164h434v434h164v-434h432v-164h-432v-432h-164v432h-434z" />
<glyph unicode="," horiz-adv-x="569" d="M-80 -279q231 106 260 269q-14 -2 -35 -2q-51 0 -82.5 29.5t-31.5 78.5q0 53 40 90t97 37q61 0 101 -46t40 -118q0 -119 -98 -228.5t-264 -172.5z" />
<glyph unicode="-" d="M66 399l45 170h419l-45 -170h-419z" />
<glyph unicode="." horiz-adv-x="569" d="M35 96q0 51 38 89t89 38t89 -38t38 -89q0 -53 -38 -90t-91 -37q-51 0 -88 38t-37 89z" />
<glyph unicode="/" horiz-adv-x="1241" d="M287 -221l549 1700h118l-548 -1700h-119z" />
<glyph unicode="0" horiz-adv-x="1138" d="M59 475q0 215 79 431t206 354q170 182 375 182q162 0 261 -141.5t99 -370.5q0 -248 -92 -471t-245.5 -356.5t-325.5 -133.5q-158 0 -257.5 141.5t-99.5 364.5zM254 324q0 -131 45 -202t127 -71q92 0 169 88t150 279q61 156 98.5 339t37.5 330q0 273 -166 273 q-137 0 -236 -176q-98 -178 -161.5 -420t-63.5 -440z" />
<glyph unicode="1" horiz-adv-x="1138" d="M102 0l11 96h88q141 0 172 29q18 18 47 127l219 819q20 74 20 92q0 27 -22.5 34t-116.5 7h-141l24 90q111 0 252.5 46t225.5 110h59l-322 -1198q-18 -84 -18 -100q0 -35 31 -45.5t131 -10.5h110l-12 -96h-758z" />
<glyph unicode="2" horiz-adv-x="1138" d="M-72 0q14 86 127 205t518 469q139 121 195.5 216t56.5 210q0 109 -66.5 174t-172.5 65q-102 0 -196.5 -60t-94.5 -126q0 -18 11 -29.5t46 -29.5q94 -51 94 -125q0 -55 -37.5 -93t-95.5 -38q-72 0 -114.5 51t-42.5 137q0 168 146.5 292t342.5 124q176 0 285.5 -99.5 t109.5 -259.5q0 -121 -54 -218t-177 -191q-76 -57 -346 -244q-233 -168 -303 -256h475q74 0 109.5 27.5t93.5 128.5l53 94l74 -29l-158 -395h-879z" />
<glyph unicode="3" horiz-adv-x="1138" d="M-4 293q0 80 40 128t105 48q53 0 92 -38t39 -89q0 -82 -84 -119q-41 -18 -41 -45q0 -49 64.5 -86t148.5 -37q197 0 289 166q68 123 68 268q0 94 -45 153.5t-117 59.5q-39 0 -78 -8q-33 -4 -41 -4q-59 0 -59 53q0 57 69 58q10 0 72 -4q8 0 16.5 -1t14.5 -2t10 -1h6 q102 0 184 109.5t82 244.5q0 94 -58 148.5t-161 54.5q-72 0 -135 -32t-63 -69q0 -18 28 -47q43 -45 43 -92q0 -51 -32.5 -84t-83.5 -33q-57 0 -93 39t-36 103q0 125 121.5 216t289.5 91q170 0 277.5 -91t107.5 -235q0 -119 -71.5 -210t-198.5 -138q-43 -13 -70 -23 q117 -37 176 -106q66 -78 66 -188q0 -205 -156.5 -343.5t-388.5 -138.5q-184 0 -290.5 87t-106.5 237z" />
<glyph unicode="4" horiz-adv-x="1138" d="M-16 377v86l954 987h111l-258 -963h233l-29 -110h-233l-35 -125q-20 -74 -20 -100q0 -35 31.5 -45.5t131.5 -10.5h37l-10 -96h-637l12 96h37q141 0 172 29q12 10 17.5 25.5t29.5 101.5l33 125h-577zM133 487h459l174 652z" />
<glyph unicode="5" horiz-adv-x="1138" d="M8 281q0 74 45 124t113 50q53 0 88 -33t35 -82q0 -68 -53 -104q-12 -10 -66 -35q-12 -8 -12 -23q0 -51 65.5 -88t153.5 -37q158 0 270.5 142.5t112.5 341.5q0 127 -61.5 195.5t-176.5 68.5q-117 0 -211 -74q-10 -115 -90 -115q-31 0 -52.5 20.5t-21.5 49.5t17.5 50 t64.5 52l187 658q225 -59 420 -60q113 0 233 52q16 8 21 8q16 0 16 -25q0 -39 -57 -102q-104 -115 -322 -115q-106 0 -268 33l-115 -387q141 68 258 67q168 0 274.5 -99t106.5 -253q0 -244 -176 -418t-424 -174q-162 0 -268.5 88t-106.5 224z" />
<glyph unicode="6" horiz-adv-x="1138" d="M74 453q0 170 61.5 353t167.5 337q211 299 504 299q137 0 225 -68.5t88 -173.5q0 -70 -39 -111.5t-102 -41.5q-53 0 -86 30.5t-33 79.5q0 39 27 90q18 35 18 49q0 29 -27.5 46.5t-74.5 17.5q-188 0 -326 -244q-61 -111 -92.5 -198t-60.5 -232q125 193 338 193 q154 0 250 -98.5t96 -256.5q0 -219 -146 -385q-154 -170 -389 -170q-186 0 -292.5 129t-106.5 355zM264 313q0 -123 55.5 -191.5t153.5 -68.5q135 0 227.5 132t92.5 327q0 119 -52.5 183.5t-146.5 64.5q-141 0 -235.5 -128t-94.5 -319z" />
<glyph unicode="7" horiz-adv-x="1138" d="M141 1010l199 432l51 -2l207 -13q111 -6 195 -6q178 1 356 21v-62l-193 -299q-213 -346 -292.5 -518t-155.5 -461q-20 -72 -52 -102.5t-87.5 -30.5t-87 32t-31.5 87q0 102 127 307q100 164 362 533l224 319h-347q-162 0 -219 -29.5t-131 -150.5l-49 -82z" />
<glyph unicode="8" horiz-adv-x="1138" d="M16 291q0 287 371 428q-82 59 -118 124.5t-36 160.5q0 184 135.5 311t333.5 127q164 0 270.5 -90t106.5 -230q0 -162 -135 -266q-51 -39 -174 -98q102 -68 143 -121q70 -94 70 -209q0 -199 -152.5 -329t-388.5 -130q-197 0 -311.5 87t-114.5 235zM182 315 q0 -119 76 -187.5t207 -68.5q143 0 241.5 80t98.5 197q0 141 -158 235q-51 32 -182 93q-10 -4 -18.5 -8.5t-13.5 -6.5t-7 -2q-113 -49 -178.5 -138t-65.5 -194zM397 1102q0 -88 64.5 -154.5t220.5 -142.5q18 10 33 14q94 43 152.5 131t58.5 184.5t-67.5 158t-172.5 61.5 q-119 0 -204 -74t-85 -178z" />
<glyph unicode="9" horiz-adv-x="1138" d="M14 209q0 66 39 108.5t101 42.5q53 0 87.5 -33.5t34.5 -84.5q0 -41 -30 -80q-20 -31 -21 -45q0 -61 103 -62q203 0 346 271q84 155 131 374q-137 -174 -334 -174q-147 0 -247.5 98.5t-100.5 243.5q0 211 145 389q150 184 387 185q190 0 299 -136.5t109 -375.5 q0 -188 -81 -393t-214 -353q-193 -215 -440 -215q-137 0 -225.5 67.5t-88.5 172.5zM340 889q0 -115 52 -178.5t149 -63.5q141 0 234 125t93 315q0 123 -58.5 196t-156.5 73q-139 0 -227 -146q-86 -137 -86 -321z" />
<glyph unicode=":" horiz-adv-x="569" d="M86 96q0 51 37 89t90 38t90 -38t37 -89q0 -53 -38 -90t-91 -37q-51 0 -88 38t-37 89zM266 821q0 51 37 89t90 38t90 -38t37 -89q0 -53 -38 -90t-91 -37q-51 0 -88 38t-37 89z" />
<glyph unicode=";" horiz-adv-x="569" d="M-29 -276q231 104 260 266q-14 -2 -34 -2q-51 0 -83 29.5t-32 78.5q0 53 40 90t97 37q61 0 101 -46t40 -118q0 -119 -97 -227t-265 -174zM281 821q0 51 37.5 89t89 38t89.5 -38t38 -89q0 -53 -38 -90t-91 -37q-51 0 -88 38t-37 89z" />
<glyph unicode="&#x3c;" horiz-adv-x="1241" d="M70 440v156l1042 475v-174l-815 -379l815 -379v-174z" />
<glyph unicode="=" horiz-adv-x="1241" d="M74 229v164h1032v-164h-1032zM74 643v164h1032v-164h-1032z" />
<glyph unicode="&#x3e;" horiz-adv-x="1241" d="M109 -35v174l815 379l-815 379v174l1042 -475v-156z" />
<glyph unicode="?" horiz-adv-x="909" d="M209 96q0 51 37 89t90 38t90 -38t37 -89q0 -53 -38 -90t-91 -37q-51 0 -88 38t-37 89zM231 1126q0 168 97.5 275.5t246.5 107.5q123 0 201 -79.5t78 -204.5q0 -170 -170 -314q-55 -49 -205 -145q-137 -88 -137 -180q0 -47 24.5 -74t67.5 -27q78 0 123 62q17 22 37 88 l74 -12q-18 -96 -83 -155.5t-153 -59.5q-86 0 -139 56t-53 148q0 109 72.5 208.5t252.5 238.5q88 68 124 120t36 109.5t-44 97t-110 39.5q-152 0 -227 -143q-33 -66 -33 -205h-78q-2 23 -2 49z" />
<glyph unicode="@" horiz-adv-x="1529" d="M57 729q0 346 224 565q102 100 240 156.5t284 56.5q285 0 485.5 -180t200.5 -436q0 -141 -64.5 -271.5t-177.5 -213.5q-135 -104 -264 -105q-63 0 -102 37t-39 96q0 25 2 41q-59 -88 -109.5 -125t-111.5 -37q-111 0 -189 93q-68 80 -67 212q0 197 131 347 q59 66 136 106.5t144 40.5q121 0 160 -133l33 115h180l-149 -592q-8 -33 -9 -62q0 -23 15.5 -36t40.5 -13q43 0 100 39t111 102q55 72 88.5 166.5t33.5 180.5q0 104 -48 205.5t-134 177.5q-160 141 -385 141q-281 0 -463 -187.5t-182 -476t183.5 -476t465.5 -187.5 q318 0 492 309h125q-55 -129 -189 -250q-188 -164 -444 -164q-317 0 -532.5 218.5t-215.5 539.5zM553 555q0 -76 25.5 -118t72.5 -42q98 0 176 178q74 166 74 308q0 68 -24.5 107.5t-67.5 39.5q-76 0 -129 -86q-57 -88 -92 -194.5t-35 -192.5z" />
<glyph unicode="A" horiz-adv-x="1441" d="M-168 0l10 96q84 0 152.5 56.5t150.5 191.5l676 1165h84l256 -1288q16 -80 44 -102.5t112 -22.5h51l-10 -96h-617l11 96h32q88 0 118 14.5t30 59.5q0 16 -8 66l-47 251h-523l-112 -196q-37 -61 -37 -113q0 -47 30.5 -64.5t110.5 -17.5h49l-12 -96h-551zM410 584h450 l-117 587z" />
<glyph unicode="B" horiz-adv-x="1478" d="M-63 0l10 96h30q117 0 150 29q12 12 19.5 29.5t27.5 97.5l262 975q18 74 19 100q0 35 -31 45t-131 10h-53l12 97h616q221 0 334 -64q78 -43 122 -116.5t44 -161.5q0 -195 -170 -297q-90 -53 -229 -80q321 -96 321 -337q0 -122 -67.5 -219.5t-186.5 -148.5 q-123 -55 -356 -55h-743zM383 152q0 -33 29.5 -44.5t113.5 -11.5h103q190 0 284 82q127 111 127 283q0 158 -147 219q-76 31 -238 31h-129l-131 -488q-12 -47 -12 -71zM551 807h170q180 0 274 74q59 45 94 122.5t35 163.5q0 113 -57 164t-184 51h-60q-78 0 -103.5 -22.5 t-49.5 -116.5z" />
<glyph unicode="C" horiz-adv-x="1478" d="M82 573q0 346 229 625q250 311 594 311h3q220 0 356 -163l122 118h74l-114 -573h-84q-8 221 -54 323q-84 207 -286 207q-106 0 -205 -59t-168 -168q-96 -150 -153.5 -339t-57.5 -363q0 -184 94 -302q91 -120 284 -121q2 0 3 1q229 0 379 186q49 57 116 201l84 -37 q-74 -174 -163 -266q-179 -184 -451 -184q-1 0 -1 -1q-271 0 -436 165t-165 439z" />
<glyph unicode="D" horiz-adv-x="1593" d="M-78 0l10 96h11q139 0 170 29q12 12 19 29.5t28 97.5l262 975q18 74 18 100q0 35 -30.5 45t-130.5 10h-54l13 97h593q172 0 279 -24.5t182 -82.5q213 -160 213 -481q0 -205 -97 -403.5t-261 -329.5q-106 -84 -247.5 -121t-358.5 -37h-619zM371 156q0 -60 94 -60h65 q287 0 422 117q125 111 215 344.5t90 443.5q0 193 -98 291q-94 90 -287 90h-61q-82 0 -106.5 -21.5t-49.5 -111.5l-272 -1024q-12 -37 -12 -69z" />
<glyph unicode="E" horiz-adv-x="1478" d="M-76 0l10 96h11q139 0 170 29q18 18 47 127l262 975q18 74 18 100q0 35 -30.5 45t-130.5 10h-54l13 97h1196l-80 -494h-92v72q0 106 -16.5 162.5t-59.5 95.5q-77 67 -205 67h-4h-119q-115 0 -146.5 -21.5t-58.5 -119.5l-112 -420h47q150 0 234.5 60.5t129.5 195.5l93 -12 l-183 -684l-92 16q18 84 19 142q0 186 -228 186h-45l-121 -451q-22 -82 -22 -110q0 -39 31.5 -53.5t111.5 -14.5h111q242 0 383 121q59 49 99 104.5t110 180.5l10 16l84 -16l-160 -502h-1231z" />
<glyph unicode="F" horiz-adv-x="1366" d="M-70 0l11 96h10q139 0 170 29q18 18 47 127l262 975q18 74 19 100q0 35 -31 45t-131 10h-54l13 97h1184l-80 -494h-93v72q0 106 -16 162.5t-59 95.5q-75 67 -205 67h-4h-107q-115 0 -146.5 -21.5t-57.5 -119.5l-113 -420h47q150 0 234.5 60.5t130.5 195.5l92 -12 l-183 -684l-92 16q18 84 19 142q0 186 -228 186h-45l-127 -473q-20 -84 -20 -100q0 -35 30.5 -45.5t131.5 -10.5h53l-10 -96h-652z" />
<glyph unicode="G" horiz-adv-x="1593" d="M80 559q0 401 305 707q243 243 545 243h2q125 0 215 -41t170 -131l127 127h69l-112 -575l-86 14q-2 197 -49 301q-45 102 -128 159.5t-190 57.5q-279 0 -461 -346q-72 -139 -114.5 -306t-42.5 -314q0 -186 97 -292t267 -106q303 0 385 308l19 63q18 74 18 100 q0 35 -30.5 45.5t-131.5 10.5h-67l10 96h666l-13 -96h-8q-139 0 -170 -29q-14 -10 -19 -26.5t-28 -100.5l-123 -457h-90l-25 166q-96 -90 -197.5 -129t-246.5 -39q-264 0 -413.5 156t-149.5 434z" />
<glyph unicode="H" horiz-adv-x="1705" d="M-78 0l10 96h11q139 0 170 29q18 18 47 127l262 975q18 74 18 100q0 35 -30.5 45t-130.5 10h-54l13 97h649l-10 -97h-9q-141 0 -170 -28q-14 -10 -20 -26.5t-27 -100.5l-110 -406h659l109 406q20 70 20 100q0 35 -30.5 45t-131.5 10h-53l10 97h652l-11 -97h-8 q-141 0 -172 -28q-12 -10 -18 -26.5t-29 -100.5l-262 -975q-18 -70 -19 -100q0 -35 31 -45.5t131 -10.5h54l-13 -96h-649l10 96h8q141 0 172 29q16 16 48 127l125 473h-658l-127 -473q-20 -84 -20 -100q0 -35 30.5 -45.5t130.5 -10.5h54l-11 -96h-651z" />
<glyph unicode="I" horiz-adv-x="833" d="M-68 0l11 96q143 2 172 29q18 18 47 127l262 975q20 80 20 100q0 35 -31.5 45t-131.5 10h-45l12 97h635l-11 -97q-143 -2 -172 -28q-18 -18 -47 -127l-262 -975q-20 -78 -20 -98q0 -35 31.5 -46.5t132.5 -11.5h45l-13 -96h-635z" />
<glyph unicode="J" horiz-adv-x="1251" d="M-27 293q0 125 72 211t176 86q72 0 117 -40t45 -106q0 -63 -38 -103t-97 -40q-47 0 -94 29q-12 6 -29 6q-23 0 -38 -18.5t-15 -47.5q0 -90 71.5 -151.5t178.5 -61.5q129 0 205.5 89.5t134.5 302.5l208 778q20 82 21 100q0 35 -31 45t-131 10h-61l12 97h643l-10 -97h-8 q-129 0 -158 -28q-16 -16 -47 -127l-223 -834q-59 -219 -183.5 -321.5t-328.5 -102.5q-184 0 -288 85t-104 239z" />
<glyph unicode="K" horiz-adv-x="1517" d="M-82 0l10 96h11q139 0 170 29q12 10 19 28.5t28 98.5l262 975q18 74 18 100q0 35 -30.5 45t-131.5 10h-53l12 97h650l-11 -97h-8q-141 0 -170 -28q-14 -10 -20 -26.5t-29 -100.5l-139 -527l590 492q110 89 110 138q0 30 -25.5 41t-95.5 11h-45l13 97h614l-10 -97 q-123 -10 -207 -50t-205 -150l-385 -322l311 -645q43 -88 67 -103.5t126 -15.5h63l-12 -96h-670l11 96h67q82 0 111 7.5t29 29.5q0 12 -33 80l-240 504l-231 -191l-74 -274q-20 -84 -20 -100q0 -35 30.5 -45.5t130.5 -10.5h54l-11 -96h-651z" />
<glyph unicode="L" horiz-adv-x="1366" d="M-76 0l10 96h11q139 0 170 29q18 18 47 127l262 975q18 74 18 100q0 35 -30.5 45t-130.5 10h-54l13 97h688l-13 -97h-45q-141 0 -170 -28q-14 -12 -19 -28.5t-28 -98.5l-256 -953q-22 -80 -22 -110q0 -39 31.5 -53.5t111.5 -14.5h86q217 0 342 87t260 335l84 -16 l-160 -502h-1206z" />
<glyph unicode="M" horiz-adv-x="1933" d="M-53 0l10 96q111 4 160 67.5t106 280.5l209 783q20 78 21 100q0 35 -31 45t-131 10h-53l10 97h495l109 -1106l698 1106h443l-11 -97h-8q-141 0 -172 -28q-12 -10 -18 -26.5t-29 -100.5l-260 -975q-20 -68 -20 -100q0 -35 30.5 -45.5t130.5 -10.5h54l-13 -96h-649l10 96h9 q141 0 172 29q16 16 47 127l270 1010l-791 -1262h-73l-127 1233l-211 -789q-47 -190 -47 -235q0 -113 182 -113l-10 -96h-512z" />
<glyph unicode="N" horiz-adv-x="1669" d="M-98 0l10 96q94 2 141 29t81 95.5t75 223.5l233 873q-12 41 -35.5 53t-97.5 12h-106l10 97h432l518 -1131l185 686q47 190 47 236q0 112 -182 112h-3l13 97h536l-10 -97q-129 -4 -181 -65.5t-110 -282.5l-284 -1063h-80l-570 1231l-202 -758q-49 -190 -50 -235 q0 -113 185 -113h22l-12 -96h-565z" />
<glyph unicode="O" horiz-adv-x="1593" d="M82 563q0 389 264 670q258 276 590 276q240 0 405 -161q164 -162 164 -426q0 -197 -77.5 -382.5t-219.5 -326.5q-248 -244 -569 -244q-256 0 -406.5 161t-150.5 433zM324 424q0 -170 86 -268.5t233 -98.5q121 0 226.5 62.5t174.5 175.5q96 154 159 358.5t63 362.5 q0 72 -20.5 153.5t-49.5 128.5q-33 55 -103.5 89t-150.5 34q-207 0 -367 -204q-100 -129 -175.5 -368t-75.5 -425z" />
<glyph unicode="P" horiz-adv-x="1366" d="M-68 0l11 96h10q139 0 170 29q12 12 19.5 29.5t27.5 97.5l262 975q18 74 19 100q0 35 -31 45t-131 10h-53l12 97h604q246 0 354 -74q152 -104 152 -297q0 -252 -223 -373q-104 -55 -206 -69.5t-386 -14.5h-37l-107 -399q-20 -84 -20 -100q0 -35 30.5 -45.5t131.5 -10.5 h53l-10 -96h-652zM532 748h39q201 0 230 4q160 14 239 112q88 111 88 266q0 137 -67.5 194.5t-229.5 57.5h-24q-63 0 -89 -19.5t-42 -78.5z" />
<glyph unicode="Q" horiz-adv-x="1593" d="M82 569q0 244 116.5 461t312.5 348t415 131q244 0 407 -151q172 -158 172 -443q0 -303 -186 -573q-98 -142 -299 -287v-45q2 -102 12 -145t41 -74q23 -18 49 -18q82 0 154 149l72 -45q-57 -104 -109 -162q-90 -100 -215 -100q-102 0 -169 79t-67 202q0 41 9 88 q-72 -14 -135 -15q-270 0 -425 160t-155 440zM322 410q0 -164 77 -263q-18 61 -18 105q0 129 85 212t216 83q133 0 215 -79.5t96 -229.5q123 170 195 384t72 412q0 188 -72 277q-39 49 -108.5 78.5t-147.5 29.5q-113 0 -217.5 -68.5t-182.5 -195.5q-94 -154 -152 -358.5 t-58 -386.5zM457 242q0 -86 53 -134.5t147 -48.5q72 0 154 33q18 102 18 148q0 94 -48 150t-130 56q-84 0 -139 -58t-55 -146z" />
<glyph unicode="R" horiz-adv-x="1517" d="M-84 0l10 96h11q139 0 169 29q18 18 48 127l262 975q18 74 18 100q0 35 -30.5 45t-131.5 10h-53l12 97h656q240 0 352 -58q176 -90 176 -278q0 -100 -56 -187.5t-153 -136.5q-98 -49 -313 -74q113 -41 162 -119.5t49 -211.5q0 -47 -2 -74l-2 -104q0 -125 61 -125 q43 0 74 41t70 149l73 -31q-59 -162 -126.5 -231.5t-166.5 -69.5q-96 0 -156.5 68.5t-60.5 179.5q0 49 13 205q6 66 6 110q0 100 -54.5 142.5t-183.5 42.5h-141l-125 -465q-20 -84 -21 -100q0 -35 31 -45.5t131 -10.5h54l-11 -96h-651zM532 813h160q129 0 190.5 11.5 t118.5 43.5q168 100 168 289q0 109 -70.5 167t-199.5 58h-100q-72 0 -97.5 -22.5t-48.5 -99.5z" />
<glyph unicode="S" horiz-adv-x="1366" d="M0 0l113 584l82 -15q-2 -23 -2 -57q0 -201 108 -324q117 -131 311 -131q158 0 257.5 81t99.5 212q0 113 -90 178q-33 23 -160 74l-176 74q-147 63 -205 125q-96 106 -96 250q0 195 142 326.5t349 131.5q219 0 373 -151l111 106h77l-110 -534l-86 14q2 18 2 41 q0 203 -94.5 319.5t-257.5 116.5q-137 0 -228.5 -76.5t-91.5 -191.5q0 -152 234 -244l174 -69q182 -72 255.5 -162t73.5 -240q0 -203 -155.5 -336t-395.5 -133q-250 0 -421 160l-121 -129h-72z" />
<glyph unicode="T" horiz-adv-x="1402" d="M82 950l180 529h1225l-86 -564l-86 11q4 84 4 143q0 190 -76 262q-57 51 -174 51h-29q-47 0 -64.5 -18t-37.5 -96l-272 -1016q-18 -70 -19 -100q0 -35 31 -45.5t131 -10.5h76l-13 -96h-708l10 96h45q141 0 172 29q18 18 47 127l279 1044q10 37 10 52q0 34 -64 34h-4h-28 q-168 0 -289 -157q-59 -76 -176 -287z" />
<glyph unicode="U" horiz-adv-x="1669" d="M190 360q0 94 41 242l168 625q18 74 19 100q0 35 -31 45t-131 10h-51l10 97h651l-12 -97h-8q-141 0 -170 -28q-14 -12 -20.5 -28.5t-26.5 -98.5l-185 -682q-28 -111 -28 -205v-6q0 -131 87 -204t242 -73q238 0 357 172q37 51 62.5 123t70.5 242l119 440q47 190 47 236 q0 112 -181 112h-10l13 97h538l-10 -97q-74 -4 -108.5 -11t-68.5 -48t-53.5 -99.5t-56.5 -189.5l-114 -432q-55 -209 -84 -280q-47 -125 -111.5 -196t-165.5 -110q-123 -47 -287 -47q-250 0 -381 100.5t-131 290.5z" />
<glyph unicode="V" horiz-adv-x="1441" d="M74 1382l14 97h604l-10 -97h-70q-76 0 -99.5 -12t-23.5 -53q0 -31 17 -107l178 -893l457 822q63 111 63 159q0 84 -153 84h-37l10 97h557l-10 -97q-109 -10 -173.5 -69.5t-183.5 -261.5l-608 -1082h-76l-239 1213q-25 123 -55.5 161.5t-104.5 38.5h-57z" />
<glyph unicode="W" horiz-adv-x="1896" d="M109 1382l10 97h547l-13 -97h-37q-63 0 -89.5 -13t-26.5 -48q0 -23 10 -94l111 -826l344 785l-15 102q-8 66 -31.5 80t-121.5 14h-27l10 97h570l-11 -97h-39q-74 0 -99 -11t-25 -44q0 -14 4 -55l110 -871l334 770q47 113 47 148q0 63 -131 63h-35l11 97h477l-11 -97 q-104 -23 -154 -76t-122 -216l-487 -1121h-78l-144 1035l-465 -1035h-71l-162 1233q-16 125 -39 148q-26 32 -94 32h-4h-53z" />
<glyph unicode="X" horiz-adv-x="1441" d="M-150 0l11 96q106 14 173.5 55.5t182.5 161.5l404 424l-213 502q-41 96 -76 119.5t-135 23.5h-50l11 97h645l-10 -97h-37q-137 0 -138 -57q0 -16 21 -65l147 -353l250 256q98 104 99 160q0 59 -107 59h-41l10 97h580l-10 -97q-106 -2 -175 -39.5t-188 -158.5l-373 -381 l238 -557q45 -106 76 -128t133 -22h53l-10 -96h-657l12 96h63q74 0 99.5 9.5t25.5 37.5q0 25 -12 52l-184 438l-310 -326q-79 -83 -79 -138q0 -73 139 -73h31l-13 -96h-586z" />
<glyph unicode="Y" horiz-adv-x="1402" d="M66 1382l10 97h631l-11 -97h-57q-125 0 -125 -49q0 -23 23 -78l204 -510l349 447q53 63 53 111q0 37 -35 58t-96 21h-47l10 97h577l-10 -97q-111 -6 -176.5 -49t-173.5 -178l-410 -524l-102 -379q-20 -84 -21 -100q0 -35 32 -45.5t132 -10.5h74l-10 -96h-711l12 96h45 q141 0 170 29q14 12 19.5 27.5t28.5 99.5l102 379l-246 610q-35 86 -76 113.5t-131 27.5h-34z" />
<glyph unicode="Z" horiz-adv-x="1366" d="M-51 0l12 78l1092 1304h-197q-250 0 -362 -86q-55 -41 -90 -87t-128 -201q-10 -20 -22 -41l-84 22l166 490h1030l-12 -80l-1094 -1303h277q152 0 252 35t180 115q53 53 92 113.5t104 189.5l86 -25l-168 -524h-1134z" />
<glyph unicode="[" d="M-68 -221l457 1700h451l-19 -68h-276l-420 -1567h299l-18 -65h-474z" />
<glyph unicode="\" horiz-adv-x="1241" d="M182 1450h111l776 -1450h-111z" />
<glyph unicode="]" d="M-170 -221l18 67h275l420 1567h-299l18 66h473l-456 -1700h-449z" />
<glyph unicode="^" horiz-adv-x="1241" d="M106 651l429 828h174l426 -828h-179l-333 637l-338 -637h-179z" />
<glyph unicode="_" horiz-adv-x="1024" d="M0 -166h1024v-86h-1024v86z" />
<glyph unicode="`" d="M150 1335q0 31 24.5 55.5t54.5 24.5q23 0 37.5 -10t40.5 -47l232 -295h-84l-275 219q-31 25 -30 53z" />
<glyph unicode="a" horiz-adv-x="1175" d="M2 303q0 256 166 471q147 188 338 189q100 0 169.5 -60.5t80.5 -154.5l55 184h178l-205 -688q-22 -77 -22 -108q0 -23 13 -38.5t30 -15.5q82 0 203 242l63 -35q-35 -78 -100 -170q-106 -150 -240 -150q-55 0 -90 37t-35 96q0 27 10 66q-76 -111 -145.5 -155t-165.5 -44 q-137 0 -220 91.5t-83 242.5zM188 274q0 -94 44 -147t120 -53q147 0 240 184q104 213 104 410q0 84 -41.5 133t-113.5 49q-96 0 -164 -72q-82 -84 -135.5 -226t-53.5 -278z" />
<glyph unicode="b" horiz-adv-x="1138" d="M66 262q0 63 28 162l246 827q18 68 18 88q0 35 -26.5 50.5t-89.5 15.5h-49l8 74l393 30l-217 -733q86 102 159.5 144.5t161.5 42.5q137 0 219 -95.5t82 -253.5q0 -287 -206 -487q-164 -158 -394 -158q-152 0 -242.5 80t-90.5 213zM286 99.5q46 -52.5 130 -52.5 q158 0 270 189q111 186 111 389q0 100 -44 156.5t-122 56.5q-152 0 -271 -187q-120 -199 -120 -402q0 -97 46 -149.5z" />
<glyph unicode="c" horiz-adv-x="909" d="M10 340q0 246 165 434.5t380 188.5q111 0 188.5 -64.5t77.5 -157.5q0 -66 -36.5 -109.5t-92.5 -43.5q-47 0 -77.5 27.5t-30.5 72.5q0 66 75 98q33 12 33 31q0 27 -41 47.5t-90 20.5q-129 0 -235 -152q-127 -182 -127 -422q0 -115 50 -179t140 -64h2q152 0 307 202l60 -45 q-164 -256 -396 -256q-160 0 -256 101.5t-96 269.5z" />
<glyph unicode="d" horiz-adv-x="1251" d="M6 307q0 254 174 455t395 201q115 0 185 -74q31 -35 51 -94l135 456q18 61 19 90q0 63 -117 64h-64l9 74l407 30l-364 -1228q-31 -109 -31 -148q0 -55 51 -55t99.5 50.5t138.5 195.5l61 -37q-168 -317 -358 -318q-139 0 -140 146q0 29 2 45q-131 -190 -331 -191 q-143 0 -232.5 94.5t-89.5 243.5zM255 126.5q50 -60.5 132 -60.5q150 0 252 198q49 94 83 216t34 204t-49 134t-125 52q-152 0 -269 -202q-108 -188 -108 -378q0 -103 50 -163.5z" />
<glyph unicode="e" horiz-adv-x="909" d="M-12 324q0 250 173 444.5t396 194.5q109 0 176.5 -58.5t67.5 -152.5q0 -184 -246 -293q-104 -47 -373 -111q-4 -53 -4 -69q0 -98 53.5 -155.5t145.5 -57.5q151 0 317 172l49 -56q-164 -213 -401 -213q-166 0 -260 94.5t-94 260.5zM193 428q137 29 208 61q227 100 228 275 q0 53 -31 85t-82 32q-113 0 -200.5 -123t-122.5 -330z" />
<glyph unicode="f" d="M-139 -414q193 428 303 893l84 357h-182l26 96h178q68 248 144 371q122 204 319 204h2q98 0 163 -52t65 -132q0 -47 -32 -78t-79 -31q-45 0 -76 27t-31 66q0 29 19 57q14 25 14 37q0 35 -49 35q-109 0 -180 -176q-43 -103 -100 -328h264l-29 -96h-258l-127 -506 q-102 -406 -213 -707z" />
<glyph unicode="g" horiz-adv-x="1099" d="M-162 -184q0 111 101 170q55 35 161 57q-112 55 -112 150q0 86 67 139q59 51 185 67q-127 68 -127 213q0 141 124.5 246t294.5 105q88 0 177 -39q138 110 231 110h2q53 0 91 -31.5t38 -74.5q0 -39 -23.5 -64.5t-58.5 -25.5q-25 0 -39 10t-38.5 43t-53.5 33q-31 0 -76 -39 q121 -86 121 -228q0 -70 -37 -141.5t-96 -118.5q-106 -86 -276 -86q-49 0 -148 15q-43 6 -84 6q-53 0 -88 -23.5t-35 -58.5q0 -53 76 -72q35 -8 225 -18q182 -10 271 -58q106 -57 106 -184q0 -152 -139 -242q-137 -90 -420 -90q-231 0 -346 80q-74 57 -74 150zM4 -170 q0 -158 291 -158q176 0 270 48.5t94 138.5q0 76 -75 106q-35 14 -126 27.5t-161 13.5q-137 0 -215 -46t-78 -130zM299 571q0 -86 48 -135t132 -49q98 0 158 70q84 104 84 264q0 76 -47 120t-127 44q-111 0 -179.5 -87t-68.5 -227z" />
<glyph unicode="h" horiz-adv-x="1251" d="M0 0l371 1251q18 63 18 90q0 63 -117 64h-63l8 74l408 30l-244 -823q201 276 385 277q88 0 147.5 -57.5t59.5 -143.5q0 -90 -49 -230l-97 -282q-39 -109 -39 -137q0 -16 10.5 -27.5t26.5 -11.5q96 0 252 241l60 -43q-82 -145 -179.5 -224t-193.5 -79q-61 0 -102 44 t-41 110q0 57 36 170l109 319q31 94 31 144q0 37 -26 60.5t-64 23.5q-147 0 -293 -211q-55 -78 -83 -143.5t-69 -200.5l-84 -285h-178z" />
<glyph unicode="i" d="M55 98q0 49 45 207l119 400q18 68 19 90q0 63 -117 63h-49l8 74l393 31l-217 -732q-25 -86 -25 -114q0 -43 35 -43q86 0 248 248l64 -35q-78 -119 -127 -174q-123 -141 -254 -142q-59 0 -100.5 37t-41.5 90zM326 1352q0 45 31.5 77.5t78.5 32.5t79 -32.5t32 -77.5 q0 -47 -33 -79t-80 -32q-45 0 -76.5 33t-31.5 78z" />
<glyph unicode="j" horiz-adv-x="645" d="M-340 -250q0 53 32 88t83 35q43 0 70.5 -26.5t27.5 -69.5q0 -25 -16 -56q-10 -16 -11 -28q0 -14 13.5 -25.5t29.5 -11.5q135 0 222 334q35 141 51 188l155 527q18 61 19 88q0 35 -26.5 50t-90.5 15h-72l9 74l415 31l-243 -820q-66 -223 -93.5 -289.5t-72.5 -123.5 q-125 -143 -293 -144q-96 0 -152.5 44t-56.5 120zM428 1352q0 45 32 77.5t79 32.5t78.5 -32.5t31.5 -77.5q0 -47 -32.5 -79t-79.5 -32q-45 0 -77 33t-32 78z" />
<glyph unicode="k" horiz-adv-x="1138" d="M-10 0l370 1251q18 68 19 90q0 63 -117 64h-63l8 74l407 30l-254 -856q104 162 200.5 236t203.5 74q84 0 142.5 -54.5t58.5 -132.5q0 -209 -375 -342q49 -41 69.5 -92t28.5 -158q4 -61 12.5 -80.5t30.5 -19.5q37 0 81 48t132 183l64 -41q-96 -160 -177 -232.5t-165 -72.5 q-152 0 -152 205q0 47 2 100v76q0 55 -33 56q-4 0 -41 -5q-14 -2 -28 -2q-18 0 -31.5 13.5t-13.5 31.5q0 55 63 56q31 0 55 -11q18 -6 27 -6q20 0 86 33q199 98 199 219q0 45 -27 75t-67 30q-57 0 -132 -51.5t-143 -137.5q-49 -63 -101.5 -171.5t-82.5 -213.5l-78 -266h-178 z" />
<glyph unicode="l" d="M33 113q0 76 55 260l260 878q18 61 19 90q0 63 -117 64h-64l9 74l407 30l-379 -1280q-26 -85 -26 -110q0 -45 36 -45q90 0 252 248l64 -35q-186 -317 -383 -318q-61 0 -97 39t-36 105z" />
<glyph unicode="m" horiz-adv-x="1820" d="M31 0l209 705q16 59 16 88q0 65 -112 65h-3h-49l6 74l373 31l-59 -277q109 154 189.5 215.5t176.5 61.5q84 0 141.5 -54.5t57.5 -136.5q0 -39 -12 -98q178 289 395 289q84 0 137 -52.5t53 -134.5q0 -76 -24 -153l-129 -398q-25 -80 -25 -100.5t13.5 -35.5t29.5 -15 q76 0 236 237l63 -43q-100 -145 -155 -200q-104 -98 -203 -99q-72 0 -116 40t-44 104q0 43 8 77.5t49 151.5l95 291q28 87 28 128q0 79 -80 79q-57 0 -128.5 -47.5t-127.5 -122.5q-94 -125 -168 -373l-88 -297h-178l164 555q41 129 41 205q0 80 -86 80q-115 0 -239 -158 t-193 -393l-84 -289h-178z" />
<glyph unicode="n" horiz-adv-x="1251" d="M29 0l209 705q18 68 18 90q0 63 -117 63h-49l8 74l371 31l-59 -277q201 276 378 277q82 0 139.5 -58.5t57.5 -140.5q0 -92 -49 -232l-96 -282q-39 -106 -39 -137q0 -16 10 -27.5t27 -11.5q98 0 254 245l59 -43q-178 -307 -375 -307q-61 0 -102 43t-41 109q0 61 37 172 l108 319q31 94 31 144q0 35 -23.5 59.5t-58.5 24.5q-66 0 -142.5 -56.5t-142.5 -154.5q-55 -80 -82.5 -144.5t-68.5 -199.5l-84 -285h-178z" />
<glyph unicode="o" horiz-adv-x="1024" d="M10 352q0 256 172 434q170 177 377 177q150 0 256.5 -114t106.5 -274q0 -242 -174 -438q-150 -168 -373 -168q-168 0 -266.5 103.5t-98.5 279.5zM195 262q0 -215 182 -215q82 0 141.5 48t112.5 155q41 84 68.5 193.5t27.5 189.5q0 119 -47 185.5t-131 66.5 q-115 0 -201 -111q-63 -84 -108 -234.5t-45 -277.5z" />
<glyph unicode="p" horiz-adv-x="1175" d="M-207 -414l8 74q104 4 128 24.5t55 131.5l262 889q18 57 18 90q0 63 -117 63h-49l8 74l373 31l-30 -175q143 174 305 175q129 0 215 -107q67 -85 67 -223q0 -268 -164 -473q-147 -190 -368 -191q-102 0 -152.5 37t-91.5 144l-100 -334q-23 -80 -23 -103q0 -31 29 -42 t102 -11h25l-8 -74h-492zM313 260q0 -82 48.5 -135t123.5 -53q158 0 263 223q96 199 96 379q0 82 -42 131t-112 49q-131 0 -235 -160q-57 -88 -99.5 -216t-42.5 -218z" />
<glyph unicode="q" horiz-adv-x="1138" d="M0 297q0 260 169 463t386 203q158 0 262 -142l125 142h80l-340 -1147q-23 -80 -23 -103q0 -31 29 -42t103 -11h16l-8 -74h-504l8 74q119 2 144.5 22.5t56.5 133.5l88 297q-133 -141 -283 -142q-61 0 -122.5 24.5t-100.5 63.5q-86 82 -86 238zM195 283q0 -94 44 -153.5 t115 -59.5q82 0 157 63.5t128 179.5q37 80 63.5 189.5t26.5 185.5q0 86 -46 140.5t-118 54.5q-74 0 -146.5 -60.5t-129.5 -169.5q-41 -78 -67.5 -182t-26.5 -188z" />
<glyph unicode="r" horiz-adv-x="909" d="M18 0l209 705q20 74 21 96q0 57 -119 57h-49l8 74l371 31l-47 -238q82 127 154.5 182.5t158.5 55.5q70 0 116 -43t46 -109q0 -57 -34 -94t-87 -37q-61 0 -88 45q-8 12 -8 66q0 47 -37 47q-70 0 -176.5 -161t-163.5 -353l-96 -324h-179z" />
<glyph unicode="s" horiz-adv-x="909" d="M-2 201q0 59 34 98t85 39q45 0 74.5 -29.5t29.5 -72.5q0 -27 -7 -42.5t-36 -46.5q-14 -10 -14 -30q0 -31 50 -50.5t128 -19.5q106 0 169.5 49t63.5 131q0 53 -29.5 83t-115.5 65q-94 37 -160 69q-141 74 -141 209q0 133 104.5 221.5t266.5 88.5q133 0 218 -59.5 t85 -153.5q0 -55 -33 -90t-84 -35q-47 0 -76.5 26.5t-29.5 67.5q0 35 32 82q10 16 11 28q0 25 -37 40.5t-97 15.5q-90 0 -149 -47t-59 -117q0 -59 33.5 -92t134.5 -68q123 -45 178 -80q102 -70 102 -196q0 -139 -110.5 -227.5t-286.5 -88.5q-154 0 -244 62.5t-90 169.5z" />
<glyph unicode="t" horiz-adv-x="720" d="M51 125q0 55 39 194l154 517h-193l29 96h192l101 340h178l-100 -340h223l-29 -96h-223l-195 -654q-6 -25 -6 -47q0 -57 47 -57q51 0 105.5 53t148.5 197l62 -41q-72 -117 -103 -158q-53 -72 -132 -116t-150 -44q-61 0 -104.5 45t-43.5 111z" />
<glyph unicode="u" horiz-adv-x="1251" d="M84 858l6 74l395 31l-200 -672q-23 -76 -23 -117q0 -37 25.5 -62.5t62.5 -25.5q109 0 232 152.5t186 365.5l96 328h178l-202 -680q-25 -90 -25 -121q0 -20 11.5 -34.5t27.5 -14.5q66 0 223 231l62 -37q-109 -168 -193 -237.5t-178 -69.5q-57 0 -94 38t-37 97q0 53 25 140 q-174 -272 -381 -273q-86 0 -140.5 52.5t-54.5 136.5q0 47 8 80.5t56 187.5l81 277q16 59 17 88q0 35 -25.5 50t-89.5 15h-49z" />
<glyph unicode="v" horiz-adv-x="1062" d="M70 858l6 74l379 31l-140 -474q-49 -164 -49 -253q0 -68 39 -114t96 -46q80 0 161 71.5t140 196.5q90 184 91 305q0 33 -10.5 54.5t-47.5 62.5q-43 49 -43 94q0 41 26.5 72t65.5 31q53 0 90 -47.5t37 -114.5q0 -121 -51 -282t-127 -286q-168 -266 -381 -266 q-111 0 -185.5 77t-74.5 192q0 100 39 233l70 236q20 61 20 94q0 59 -117 59h-34z" />
<glyph unicode="w" horiz-adv-x="1593" d="M66 168q0 61 34 174l107 363q16 53 16 87.5t-25.5 50t-88.5 15.5h-35l8 74l379 31l-178 -601q-41 -137 -41 -186q0 -41 30.5 -69.5t75.5 -28.5q104 0 213 153q123 168 178 359l103 342h178l-133 -443q-47 -166 -47 -266q0 -68 29.5 -106.5t82.5 -38.5q143 0 285 262 q92 178 92 311q0 33 -10 53.5t-47 61.5q-43 49 -43 94q0 43 27.5 73t66.5 30q53 0 90 -47.5t37 -114.5q0 -125 -55.5 -294t-139.5 -298q-82 -125 -166.5 -182.5t-189.5 -57.5q-100 0 -160.5 60.5t-60.5 160.5q0 18 4 84q-86 -129 -156 -198q-102 -106 -241 -107 q-100 0 -159.5 54.5t-59.5 144.5z" />
<glyph unicode="x" horiz-adv-x="1024" d="M-68 96q0 53 30 86t75 33q74 0 88 -80q6 -41 31 -41q53 0 141 162l92 164l-24 119q-41 203 -60 235q-14 31 -43 31q-27 0 -58.5 -34t-109.5 -146l-59 43q119 172 153 211q76 84 142 84q63 0 100 -55.5t64 -188.5l22 -113l59 107q49 92 64.5 115.5t48.5 58.5q70 76 160 76 q51 0 84 -36t33 -89q0 -51 -28 -81t-75 -30q-29 0 -42 10.5t-27 40.5q-12 27 -35 27q-55 0 -129 -137l-90 -166l39 -195q29 -127 49 -170t55 -43q49 0 131 111q29 41 57 86l64 -35q-57 -102 -96 -147q-70 -86 -110 -113t-97 -27q-76 0 -119 48.5t-70 162.5l-30 137l-62 -110 q-135 -238 -282 -238q-61 0 -98.5 35t-37.5 92z" />
<glyph unicode="y" horiz-adv-x="1024" d="M-162 -262q0 47 31 78.5t76 31.5q66 0 88 -63q6 -16 6 -80q0 -33 39 -33q88 0 217 158q43 55 117 172q-63 360 -146 664q-33 131 -78 131q-27 0 -51 -37t-82 -160l-63 29q127 334 266 334q66 0 112 -75t81 -243l90 -432q213 338 213 506q0 37 -13 106q-4 25 -4 35 q0 41 30 72t71 31t66.5 -30t25.5 -77q0 -51 -28 -119.5t-114 -236.5q-248 -483 -411 -693q-176 -221 -350 -221q-80 0 -134.5 44t-54.5 108z" />
<glyph unicode="z" horiz-adv-x="948" d="M-68 18q0 98 148 263q88 96 165 153.5t300 196.5q86 53 151 123q-68 -16 -104 -17q-70 0 -189 41q-92 29 -122 29q-76 0 -168 -164l-68 35q145 285 338 285q55 0 172 -58q94 -47 147 -47q23 0 34.5 11.5t19.5 41.5q14 51 49 52q20 0 34.5 -13.5t14.5 -34.5 q0 -41 -45 -117.5t-117 -156.5q-76 -86 -149.5 -144.5t-192.5 -125.5q-121 -70 -167 -104t-81 -79q63 18 101 19q63 0 207 -49q92 -33 137 -33q96 0 176 184l72 -24q-47 -145 -137.5 -230.5t-194.5 -85.5q-100 0 -244 66q-133 63 -158 63q-12 0 -15 -5t-3 -30q0 -94 -61 -94 q-49 0 -50 49z" />
<glyph unicode="{" d="M106 -43q0 72 35 195l47 180q27 98 27 141q0 94 -100 127l14 57q100 29 144 84.5t75 188.5l66 241q53 193 139 252q80 55 207 56h20l-16 -60q-84 -10 -131 -68.5t-86 -203.5l-72 -262q-35 -121 -82 -176.5t-139 -79.5q106 -41 106 -133q0 -45 -26 -138l-60 -227 q-31 -111 -30 -172q0 -115 102 -121l-16 -59h-43q-84 0 -132.5 47t-48.5 131z" />
<glyph unicode="|" horiz-adv-x="1241" d="M551 0v1479h139v-1479h-139z" />
<glyph unicode="}" d="M-201 -221l17 59q84 10 130 68.5t85 204.5l71 262q33 119 81 175t139 81q-104 41 -105 133q0 45 25 137l61 227q31 111 31 174q0 51 -27.5 83t-75.5 36l17 60h43q82 0 132 -47.5t50 -122.5q0 -66 -37 -203l-47 -180q-27 -98 -27 -142q1 -98 103 -127l-16 -57 q-98 -29 -143.5 -84t-78.5 -188l-63 -242q-53 -193 -141 -252q-76 -55 -207 -55h-17z" />
<glyph unicode="~" horiz-adv-x="1241" d="M84 451q57 100 135 159.5t152 59.5q66 0 202 -66l95 -45q117 -57 163 -57q88 0 177 133l108 -78q-57 -100 -135 -159.5t-152 -59.5q-66 0 -202 63l-95 48q-90 43 -111.5 50t-51.5 7q-88 0 -176 -133z" />
<glyph unicode="&#xa1;" d="M-14 -297q0 45 13 82t89 197q135 293 258 739l74 -21q-135 -510 -162 -888q-8 -106 -48 -167t-101 -61q-55 0 -89 33t-34 86zM319 997q0 53 38.5 90t91.5 37q51 0 87.5 -37.5t36.5 -89t-36.5 -89.5t-90 -38t-90.5 38t-37 89z" />
<glyph unicode="&#xa2;" horiz-adv-x="1138" d="M125 342q0 248 167 433.5t388 185.5q55 0 115 -25l112 254h88l-131 -297q72 -63 72 -150q0 -66 -38 -108.5t-97 -42.5q-37 0 -62 18l-239 -538q98 10 161.5 52t151.5 152l64 -45q-184 -272 -422 -260l-111 -247h-88l117 260q-115 33 -181.5 129t-66.5 229zM319 319 q1 -162 101 -225l285 637q20 51 69 62q20 4 25.5 8t5.5 18q0 27 -40 46.5t-93 19.5q-152 0 -260 -217q-92 -184 -93 -349z" />
<glyph unicode="&#xa3;" horiz-adv-x="1138" d="M-16 133q0 72 51 123t127 51q74 0 184 -43q31 98 31 191q0 74 -17 211h-258l11 88h239q-4 72 -4 114q0 236 103 381q66 90 163 141.5t205 51.5q129 0 213 -68.5t84 -175.5q0 -80 -41 -130t-104 -50q-51 0 -83 30.5t-32 77.5q0 66 62 109q31 23 38 32t7 23q0 33 -34 53.5 t-89 20.5q-90 0 -158 -61.5t-96 -169.5q-27 -100 -27 -285q0 -53 2 -94h279l-11 -88h-270q4 -223 -104 -451q141 -74 262 -74q172 0 280 166l72 -28q-63 -160 -157.5 -235t-227.5 -75q-78 0 -141.5 25.5t-161.5 97.5q-63 -70 -111.5 -96.5t-113.5 -26.5q-76 0 -124 46 t-48 118zM63 133q0 -39 27 -63.5t70 -24.5q94 0 145 109q-84 70 -149 69q-39 0 -66 -25.5t-27 -64.5z" />
<glyph unicode="&#xa4;" horiz-adv-x="1138" d="M51 297l109 109q-106 141 -107 309q0 170 103 301l-105 104l107 105l102 -105q137 102 301 103q168 -1 309 -107l111 109l104 -105l-108 -108q106 -137 106 -312q0 -164 -102 -301l104 -102l-104 -107l-104 105q-137 -102 -302 -102q-172 0 -309 106l-108 -109z M223 708.5q0 -143.5 101.5 -246t240.5 -102.5q145 0 247.5 101.5t102.5 247.5q0 143 -101 244.5t-244.5 101.5t-245 -101.5t-101.5 -245z" />
<glyph unicode="&#xa5;" horiz-adv-x="1138" d="M82 414l10 88h316l43 160l-2 4h-299l10 88h258l-164 450q-47 141 -164 142h-8l10 96h524l-10 -96h-28q-127 0 -127 -50q0 -20 22 -79l156 -441l262 379q53 74 53 113q0 35 -36 56.5t-97 21.5h-18l10 96h473l-10 -96q-94 -20 -141.5 -58.5t-143.5 -171.5l-258 -362h246 l-11 -88h-299l-2 -4l-43 -160h299l-10 -88h-311l-45 -162q-18 -84 -19 -100q0 -33 32 -44.5t130 -11.5h55l-10 -96h-649l10 96h27q141 0 170 29q14 12 19 27.5t28 99.5l45 162h-303z" />
<glyph unicode="&#xa6;" horiz-adv-x="1241" d="M551 0v659h139v-659h-139zM551 819v660h139v-660h-139z" />
<glyph unicode="&#xa7;" horiz-adv-x="1024" d="M-23 -66q0 57 34 93t85 36q49 0 81 -30.5t32 -79.5q0 -51 -45 -94q-18 -16 -19 -31q0 -27 42 -48.5t96 -21.5q76 0 122 48.5t46 125.5q0 66 -30 127.5t-120 180.5l-125 159q-113 147 -113 279q0 115 81 192.5t202 77.5q45 0 100 -18q-63 94 -87.5 154.5t-24.5 129.5 q0 135 92 215t248 80q133 0 221 -68.5t88 -170.5q0 -57 -32.5 -94t-84.5 -37q-49 0 -82.5 32.5t-33.5 79.5q0 33 12 54.5t51 54.5q12 8 12 18q0 27 -43 46.5t-98 19.5q-84 0 -134 -47t-50 -127q0 -59 36 -129t130 -193l116 -153q111 -143 111 -267q0 -117 -80 -195.5 t-197 -78.5q-39 0 -98 14q104 -174 105 -282q0 -127 -93.5 -210t-236.5 -83q-135 0 -225.5 69.5t-90.5 171.5zM221 733q0 -69 53 -139l99 -137q59 -82 98 -108.5t96 -26.5q70 0 120 44t50 105q0 84 -78 184l-86 117q-82 109 -196 109q-70 0 -113 -41t-43 -107z" />
<glyph unicode="&#xa8;" d="M121 1219q0 41 29.5 70.5t70.5 29.5t71 -29.5t30 -70.5t-30 -71t-71 -30t-70.5 30t-29.5 71zM535 1219q0 41 29.5 70.5t70.5 29.5t70.5 -29.5t29.5 -70.5t-29.5 -71t-70.5 -30t-70.5 30t-29.5 71z" />
<glyph unicode="&#xa9;" horiz-adv-x="1529" d="M49 686q0 297 210 507t507 210t507 -210t210 -505q0 -301 -211 -510t-514 -209q-291 0 -500 212t-209 505zM143 686q0 -256 182.5 -442.5t432.5 -186.5q264 0 447.5 183.5t183.5 445.5q0 260 -182.5 444.5t-440.5 184.5t-440.5 -184.5t-182.5 -444.5zM381 682 q0 180 112.5 307t272.5 127q55 0 93 -13t97 -54l41 59h62l18 -346h-71q-37 143 -94.5 209.5t-145.5 66.5q-213 0 -213 -362q0 -334 225 -334q195 0 238 246l78 -13q-23 -152 -106 -231.5t-222 -79.5q-168 0 -276.5 118t-108.5 300z" />
<glyph unicode="&#xaa;" horiz-adv-x="864" d="M170 676v82h580v-82h-580zM170 1104q0 152 99.5 272.5t224.5 120.5q68 0 112.5 -35t52.5 -94l37 111h115l-133 -410q-14 -45 -14 -65q0 -31 28 -31q47 0 133 143l39 -20q-94 -190 -219 -191q-37 0 -59.5 22.5t-22.5 57.5q0 8 6 39q-51 -66 -95 -92.5t-107 -26.5 q-88 0 -142.5 54.5t-54.5 144.5zM291 1087q0 -57 28.5 -88.5t77.5 -31.5q96 0 156 110q68 129 68 244q0 51 -27 80t-74 29q-63 0 -106 -44q-53 -49 -88 -134t-35 -165z" />
<glyph unicode="&#xab;" horiz-adv-x="872" d="M-31 498l158 120l125 97q94 74 98 78q39 31 49 30q18 0 19 -26q0 -14 -15.5 -33t-109.5 -115l-160 -172l125 -244q4 -16 4 -24q0 -35 -33 -35q-14 0 -36 31l-87 117zM375 498l381 295q39 31 49 30q18 0 18 -26q0 -14 -15 -33t-110 -115l-159 -172l125 -244q4 -16 4 -24 q0 -35 -33 -35q-14 0 -37 31z" />
<glyph unicode="&#xac;" horiz-adv-x="1241" d="M84 436v164h1032v-600h-164v436h-868z" />
<glyph unicode="&#xad;" d="M66 399l45 170h419l-45 -170h-419z" />
<glyph unicode="&#xae;" horiz-adv-x="1529" d="M47 686q0 297 210 507t507 210t507 -210t210 -505q0 -301 -211 -510t-514 -209q-291 0 -500 212t-209 505zM141 686q0 -256 182.5 -442.5t432.5 -186.5q264 0 447 183.5t183 447.5q0 258 -183 442.5t-439 184.5q-258 0 -440.5 -184.5t-182.5 -444.5zM389 309v78h33 q72 0 82 10q4 4 4 60v524q0 55 -4 59q-8 10 -82 11h-33v77h393q145 0 224 -54t79 -154q0 -80 -46 -126t-148 -75q47 -25 71.5 -58.5t41.5 -103.5l18 -70q14 -57 21.5 -70.5t21.5 -13.5q29 0 33 109h71v-25q0 -92 -38.5 -143t-110.5 -51t-106.5 44t-45.5 144l-6 56 q-10 86 -45 121.5t-108 35.5h-52v-237q0 -53 5 -60q10 -10 81 -10h33v-78h-387zM657 772h107q160 0 160 146q0 72 -33 102.5t-111 30.5h-61q-45 0 -53.5 -6.5t-8.5 -43.5v-229z" />
<glyph unicode="&#xaf;" d="M104 1145l23 104h616l-22 -104h-617z" />
<glyph unicode="&#xb0;" horiz-adv-x="819" d="M143 1094q0 131 91.5 221t222.5 90q127 0 214 -90t87 -223q0 -131 -89 -222.5t-218 -91.5t-218.5 91.5t-89.5 224.5zM258 1092q0 -82 57.5 -139.5t135.5 -57.5q80 0 135 57.5t55 139.5t-54 139t-132 57q-82 0 -139.5 -57t-57.5 -139z" />
<glyph unicode="&#xb1;" horiz-adv-x="1241" d="M76 0v164h1030v-164h-1030zM76 590v164h434v436h164v-436h432v-164h-432v-359h-164v359h-434z" />
<glyph unicode="&#xb2;" d="M0 590q8 57 77.5 124.5t338.5 284.5q86 70 121.5 125.5t35.5 120.5q0 61 -40.5 98t-108.5 37q-61 0 -118.5 -33.5t-57.5 -68.5q0 -14 33 -31q61 -33 61 -80q0 -35 -25.5 -59.5t-64.5 -24.5q-49 0 -78 33t-29 86q0 100 94.5 176t221.5 76q117 0 189.5 -60.5t72.5 -158.5 q0 -137 -150 -246q-57 -41 -221 -145q-143 -92 -182 -137h291q45 0 66.5 15t54.5 73l36 61l60 -22l-105 -244h-573z" />
<glyph unicode="&#xb3;" d="M2 768q0 49 26.5 80t71.5 31q37 0 63.5 -24t26.5 -56q0 -51 -57 -76q-23 -10 -22 -21q0 -27 38.5 -46t92.5 -19q100 0 160.5 68.5t60.5 179.5q0 53 -27.5 86t-75.5 33q-10 0 -47 -5q-10 -2 -26 -2q-45 0 -45 37q0 41 51 41q4 0 45 -2q14 -2 29 -2q63 0 115.5 61.5 t52.5 139.5q0 53 -36 83.5t-100 30.5q-43 0 -81.5 -17t-38.5 -36q0 -8 16 -22q29 -29 29 -60q0 -33 -22.5 -54t-57.5 -21q-39 0 -63.5 25.5t-24.5 64.5q0 76 78.5 132t187.5 56q113 0 184.5 -55.5t71.5 -143.5q0 -72 -49 -128t-133 -83q-6 -2 -15 -6q-6 -2 -8 -2 q143 -45 143 -174q0 -125 -102 -208t-254 -83q-119 0 -188.5 53.5t-69.5 143.5z" />
<glyph unicode="&#xb4;" d="M270 1063l283 287q63 61 102 61q29 0 50.5 -21.5t21.5 -50.5q0 -45 -51 -79l-326 -197h-80z" />
<glyph unicode="&#xb6;" horiz-adv-x="1331" d="M180 -295l6 74h11q100 0 133 28q12 12 18 31t35 119l188 707h-67q-309 0 -309 268q0 123 56 247t144 197q94 80 250 99q31 4 156 4h520l-6 -74q-100 -4 -127 -29q-16 -12 -27 -53l-6 -16q-12 -53 -20 -80l-340 -1270q-31 -117 -31 -133q0 -23 22.5 -32t94.5 -13l-7 -74 h-694zM449 852q0 -57 26.5 -89t73.5 -32h41l180 674q-102 2 -160.5 -55.5t-95.5 -196.5l-45 -168q-20 -78 -20 -133zM469 -219h145l435 1624h-146z" />
<glyph unicode="&#xb7;" horiz-adv-x="569" d="M158 502q0 51 37.5 89t89 38t89.5 -38t38 -89q0 -53 -38 -90t-91 -37q-51 0 -88 38t-37 89z" />
<glyph unicode="&#xb8;" d="M6 -408l37 68q74 -25 127 -25q51 0 83 23t32 59.5t-27 58t-72 21.5q-27 0 -67 -12l-19 12l119 203h72l-78 -131q43 6 61 6q74 0 120 -39t46 -100q0 -80 -69.5 -129t-184.5 -49q-98 0 -180 34z" />
<glyph unicode="&#xb9;" d="M88 590l8 69h64q86 0 102 15q8 8 27 71l139 486q0 2 10 26q4 20 4 27q0 10 -13 13t-69 3h-98l19 66q72 0 161.5 26.5t141.5 65.5h49l-205 -715q-12 -49 -12 -57q0 -16 18.5 -21.5t77.5 -5.5h78l-10 -69h-492z" />
<glyph unicode="&#xba;" horiz-adv-x="761" d="M170 674v82h582v-82h-582zM170 1137q0 143 107.5 251.5t248.5 108.5q96 0 166 -67.5t70 -161.5q0 -150 -113 -262q-100 -100 -248 -101q-109 0 -170 61.5t-61 170.5zM291 1081q0 -129 119 -129q113 0 178 152q47 100 47 203q0 68 -31 105.5t-84 37.5q-74 0 -129 -66 q-41 -49 -70.5 -138t-29.5 -165z" />
<glyph unicode="&#xbb;" horiz-adv-x="872" d="M-35 201q0 14 15.5 32.5t107.5 114.5l162 172l-125 244q-4 12 -4 24q0 35 33 35q14 0 36 -30l224 -295l-381 -293q-39 -31 -49 -31q-18 0 -19 27zM371 201q0 14 15 32.5t108 114.5l161 172l-125 244q-4 12 -4 24q0 35 33 35q14 0 37 -30l86 -117q31 -39 63.5 -81 t50 -64.5t23.5 -32.5l-381 -293q-39 -31 -49 -31q-18 0 -18 27z" />
<glyph unicode="&#xbc;" horiz-adv-x="1708" d="M68 590l8 69h63q86 0 103 15q8 8 26 71l140 486q0 2 10 26q4 20 4 27q0 10 -13.5 13t-68.5 3h-98l18 66q72 0 162 26.5t141 65.5h49l-204 -715q-12 -49 -13 -57q0 -16 18.5 -21.5t78.5 -5.5h77l-10 -69h-491zM457 0l784 1450h111l-785 -1450h-110zM1020 223v62l604 583 h82l-162 -565h146l-21 -80h-147l-21 -69q-12 -47 -12 -56q0 -16 18.5 -21t77.5 -5h31l-8 -72h-414l8 72h31q72 0 91 8t30 45l8 33l20 65h-362zM1137 303h268l100 354z" />
<glyph unicode="&#xbd;" horiz-adv-x="1708" d="M68 590l8 69h63q86 0 103 15q8 8 26 71l140 486q0 2 10 26q4 20 4 27q0 10 -13.5 13t-68.5 3h-98l18 66q72 0 162 26.5t141 65.5h49l-204 -715q-12 -49 -13 -57q0 -16 18.5 -21.5t78.5 -5.5h77l-10 -69h-491zM442 0l785 1450h110l-784 -1450h-111zM1006 0q8 57 77.5 125 t337.5 285q86 70 122 125t36 120q0 61 -41 98.5t-108 37.5q-61 0 -119 -34t-58 -69q0 -14 33 -31q61 -33 62 -79q0 -35 -26 -59.5t-65 -24.5q-49 0 -77.5 32.5t-28.5 85.5q0 100 94 176t221 76q117 0 190 -60.5t73 -158.5q0 -137 -150 -246q-57 -41 -221 -145 q-143 -92 -182 -137h290q45 0 66.5 15t54.5 73l37 61l59 -22l-104 -244h-573z" />
<glyph unicode="&#xbe;" horiz-adv-x="1708" d="M2 768q0 49 26.5 80t71.5 31q37 0 63.5 -24t26.5 -56q0 -51 -57 -76q-23 -10 -22 -21q0 -27 38.5 -46t92.5 -19q100 0 160.5 68.5t60.5 179.5q0 53 -27.5 86t-75.5 33q-10 0 -47 -5q-10 -2 -26 -2q-45 0 -45 37q0 41 51 41q4 0 45 -2q14 -2 29 -2q63 0 115.5 61.5 t52.5 139.5q0 53 -36 83.5t-100 30.5q-43 0 -81.5 -17t-38.5 -36q0 -8 16 -22q29 -29 29 -60q0 -33 -22.5 -54t-57.5 -21q-39 0 -63.5 25.5t-24.5 64.5q0 76 78.5 132t187.5 56q113 0 184.5 -55.5t71.5 -143.5q0 -72 -49 -128t-133 -83q-6 -2 -15 -6q-6 -2 -8 -2 q143 -45 143 -174q0 -125 -102 -208t-254 -83q-119 0 -188.5 53.5t-69.5 143.5zM481 0l785 1450h110l-784 -1450h-111zM1020 223v62l604 583h82l-162 -565h146l-21 -80h-147l-21 -69q-12 -47 -12 -56q0 -16 18.5 -21t77.5 -5h31l-8 -72h-414l8 72h31q72 0 91 8t30 45l8 33 l20 65h-362zM1137 303h268l100 354z" />
<glyph unicode="&#xbf;" horiz-adv-x="909" d="M14 -131q0 168 170 311q55 49 205 146q137 88 137 180q0 47 -24.5 73.5t-67.5 26.5q-78 0 -123 -61q-17 -22 -37 -88l-73 12q18 96 82.5 155.5t152.5 59.5q86 0 139.5 -56.5t53.5 -148.5q0 -109 -73 -209t-253 -237q-88 -68 -124 -120t-36 -112q0 -57 44 -96t110 -39 q152 0 227 144q33 66 33 204h78q2 -23 2 -49q0 -166 -97.5 -273.5t-246.5 -107.5q-123 0 -201 80t-78 205zM408 997q0 53 38 90t91 37q51 0 88 -37.5t37 -89t-38 -89.5t-89.5 -38t-89 38t-37.5 89z" />
<glyph unicode="&#xc0;" horiz-adv-x="1441" d="M-168 0l10 96q84 0 152.5 56.5t150.5 191.5l676 1165h84l256 -1288q16 -80 44 -102.5t112 -22.5h51l-10 -96h-617l11 96h32q88 0 118 14.5t30 59.5q0 16 -8 66l-47 251h-523l-112 -196q-37 -61 -37 -113q0 -47 30.5 -64.5t110.5 -17.5h49l-12 -96h-551zM410 584h450 l-117 587zM557 1858q0 31 24.5 55t55.5 24q23 0 36 -10t42 -47l231 -295h-84l-274 219q-31 27 -31 54z" />
<glyph unicode="&#xc1;" horiz-adv-x="1441" d="M-168 0l10 96q84 0 152.5 56.5t150.5 191.5l676 1165h84l256 -1288q16 -80 44 -102.5t112 -22.5h51l-10 -96h-617l11 96h32q88 0 118 14.5t30 59.5q0 16 -8 66l-47 251h-523l-112 -196q-37 -61 -37 -113q0 -47 30.5 -64.5t110.5 -17.5h49l-12 -96h-551zM410 584h450 l-117 587zM780 1585l283 293q59 61 102 61q29 0 50.5 -20.5t21.5 -48.5q0 -45 -51 -80l-326 -205h-80z" />
<glyph unicode="&#xc2;" horiz-adv-x="1441" d="M-168 0l10 96q84 0 152.5 56.5t150.5 191.5l676 1165h84l256 -1288q16 -80 44 -102.5t112 -22.5h51l-10 -96h-617l11 96h32q88 0 118 14.5t30 59.5q0 16 -8 66l-47 251h-523l-112 -196q-37 -61 -37 -113q0 -47 30.5 -64.5t110.5 -17.5h49l-12 -96h-551zM410 584h450 l-117 587zM557 1585l313 340h103l186 -340h-74l-176 207l-278 -207h-74z" />
<glyph unicode="&#xc3;" horiz-adv-x="1441" d="M-168 0l10 96q84 0 152.5 56.5t150.5 191.5l676 1165h84l256 -1288q16 -80 44 -102.5t112 -22.5h51l-10 -96h-617l11 96h32q88 0 118 14.5t30 59.5q0 16 -8 66l-47 251h-523l-112 -196q-37 -61 -37 -113q0 -47 30.5 -64.5t110.5 -17.5h49l-12 -96h-551zM410 584h450 l-117 587zM553 1663q18 100 66.5 156.5t117.5 56.5q45 0 205 -53q82 -31 121 -31q65 0 100 86h62q-8 -86 -65.5 -149.5t-125.5 -63.5q-51 0 -176 47q-113 41 -151 41q-66 0 -93 -90h-61z" />
<glyph unicode="&#xc4;" horiz-adv-x="1441" d="M-168 0l10 96q84 0 152.5 56.5t150.5 191.5l676 1165h84l256 -1288q16 -80 44 -102.5t112 -22.5h51l-10 -96h-617l11 96h32q88 0 118 14.5t30 59.5q0 16 -8 66l-47 251h-523l-112 -196q-37 -61 -37 -113q0 -47 30.5 -64.5t110.5 -17.5h49l-12 -96h-551zM410 584h450 l-117 587zM555 1763q0 41 29.5 71t70.5 30t71 -30t30 -71t-30 -70.5t-73 -29.5q-41 0 -69.5 29.5t-28.5 70.5zM969 1763q0 41 29.5 71t70.5 30t70.5 -30t29.5 -71t-29.5 -70.5t-72.5 -29.5q-41 0 -69.5 29.5t-28.5 70.5z" />
<glyph unicode="&#xc5;" horiz-adv-x="1441" d="M-168 0l10 96q84 0 152.5 56.5t150.5 191.5l676 1165h84l256 -1288q16 -80 44 -102.5t112 -22.5h51l-10 -96h-617l11 96h32q88 0 118 14.5t30 59.5q0 16 -8 66l-47 251h-523l-112 -196q-37 -61 -37 -113q0 -47 30.5 -64.5t110.5 -17.5h49l-12 -96h-551zM410 584h450 l-117 587zM680 1776q0 84 59.5 143t143.5 59t144 -59t60 -143q0 -86 -60 -145.5t-146 -59.5q-82 0 -141.5 60.5t-59.5 144.5zM754 1776q0 -53 37.5 -92t91 -39t92.5 37.5t39 93.5q0 53 -39 91t-92 38q-51 0 -90 -39t-39 -90z" />
<glyph unicode="&#xc6;" horiz-adv-x="1781" d="M-188 0l10 96q72 0 141 94l655 943q76 109 76 163q0 47 -36.5 66.5t-127.5 19.5h-55l10 97h1297l-80 -494h-92v41q2 47 2 104q0 252 -242 252h-55q-80 0 -106.5 -23.5t-51.5 -117.5l-113 -420h15q127 0 201.5 59.5t119.5 196.5l95 -12l-185 -684l-92 16q18 76 19 144 q0 184 -185 184h-14l-121 -451q-8 -29 -10 -41q-14 -37 -15 -73q0 -63 132 -64h45q176 0 289.5 78t207.5 264q27 49 45 80l82 -16l-160 -502h-1089l12 96h8q141 0 170 29q14 12 20.5 28.5t27.5 98.5l86 317h-392l-194 -280q-51 -76 -51 -119t55 -64q27 -10 102 -10l-12 -96 h-444zM420 666h352l170 634q12 51 12 58q0 8 -6 15t-12 7q-16 0 -43 -41z" />
<glyph unicode="&#xc7;" horiz-adv-x="1478" d="M82 573q0 346 229 625q250 311 594 311q221 0 359 -163l122 118h74l-114 -573h-84q-8 221 -54 323q-84 207 -286 207q-106 0 -205 -59t-168 -168q-96 -150 -153.5 -339t-57.5 -363q0 -184 94 -302q92 -121 287 -120q229 0 379 186q49 57 116 201l84 -37 q-74 -174 -163 -266q-174 -184 -443 -185h-35l-59 -100q43 6 59 6q76 0 122 -39t46 -100q0 -80 -69.5 -129t-184.5 -49q-98 0 -180 34l37 68q74 -25 127 -25q51 0 83 23t32 59q0 35 -27 57.5t-72 22.5q-23 0 -69 -12l-17 12l103 178q-240 33 -373 191t-133 407z" />
<glyph unicode="&#xc8;" horiz-adv-x="1478" d="M-76 0l10 96h11q139 0 170 29q18 18 47 127l262 975q18 74 18 100q0 35 -30.5 45t-130.5 10h-54l13 97h1196l-80 -494h-92v72q0 106 -16.5 162.5t-59.5 95.5q-78 68 -209 67h-119q-115 0 -146.5 -21.5t-58.5 -119.5l-112 -420h47q150 0 234.5 60.5t129.5 195.5l93 -12 l-183 -684l-92 16q18 84 19 142q0 186 -228 186h-45l-121 -451q-23 -86 -22 -112q0 -37 31.5 -51.5t111.5 -14.5h111q242 0 383 121q59 49 99 104.5t110 180.5l10 16l84 -16l-160 -502h-1231zM649 1858q0 31 24.5 55t55.5 24q23 0 36 -10t42 -47l231 -295h-84l-274 219 q-31 27 -31 54z" />
<glyph unicode="&#xc9;" horiz-adv-x="1478" d="M-76 0l10 96h11q139 0 170 29q18 18 47 127l262 975q18 74 18 100q0 35 -30.5 45t-130.5 10h-54l13 97h1196l-80 -494h-92v72q0 106 -16.5 162.5t-59.5 95.5q-78 68 -209 67h-119q-115 0 -146.5 -21.5t-58.5 -119.5l-112 -420h47q150 0 234.5 60.5t129.5 195.5l93 -12 l-183 -684l-92 16q18 84 19 142q0 186 -228 186h-45l-121 -451q-23 -86 -22 -112q0 -37 31.5 -51.5t111.5 -14.5h111q242 0 383 121q59 49 99 104.5t110 180.5l10 16l84 -16l-160 -502h-1231zM797 1585l282 293q59 61 103 61q29 0 50 -20.5t21 -48.5q0 -45 -51 -80 l-325 -205h-80z" />
<glyph unicode="&#xca;" horiz-adv-x="1478" d="M-76 0l10 96h11q139 0 170 29q18 18 47 127l262 975q18 74 18 100q0 35 -30.5 45t-130.5 10h-54l13 97h1196l-80 -494h-92v72q0 106 -16.5 162.5t-59.5 95.5q-78 68 -209 67h-119q-115 0 -146.5 -21.5t-58.5 -119.5l-112 -420h47q150 0 234.5 60.5t129.5 195.5l93 -12 l-183 -684l-92 16q18 84 19 142q0 186 -228 186h-45l-121 -451q-23 -86 -22 -112q0 -37 31.5 -51.5t111.5 -14.5h111q242 0 383 121q59 49 99 104.5t110 180.5l10 16l84 -16l-160 -502h-1231zM616 1585l314 340h102l187 -340h-74l-176 207l-279 -207h-74z" />
<glyph unicode="&#xcb;" horiz-adv-x="1478" d="M-76 0l10 96h11q139 0 170 29q18 18 47 127l262 975q18 74 18 100q0 35 -30.5 45t-130.5 10h-54l13 97h1196l-80 -494h-92v72q0 106 -16.5 162.5t-59.5 95.5q-78 68 -209 67h-119q-115 0 -146.5 -21.5t-58.5 -119.5l-112 -420h47q150 0 234.5 60.5t129.5 195.5l93 -12 l-183 -684l-92 16q18 84 19 142q0 186 -228 186h-45l-121 -451q-23 -86 -22 -112q0 -37 31.5 -51.5t111.5 -14.5h111q242 0 383 121q59 49 99 104.5t110 180.5l10 16l84 -16l-160 -502h-1231zM629 1763q0 41 29.5 71t70.5 30t70.5 -30t29.5 -71t-29.5 -70.5t-72.5 -29.5 q-41 0 -69.5 29.5t-28.5 70.5zM1042 1763q0 41 30 71t71 30t70.5 -30t29.5 -71t-29.5 -70.5t-72.5 -29.5q-41 0 -70 29.5t-29 70.5z" />
<glyph unicode="&#xcc;" horiz-adv-x="833" d="M-68 0l11 96q143 2 172 29q18 18 47 127l262 975q20 80 20 100q0 35 -31.5 45t-131.5 10h-45l12 97h635l-11 -97q-143 -2 -172 -28q-18 -18 -47 -127l-262 -975q-20 -78 -20 -98q0 -35 31.5 -46.5t132.5 -11.5h45l-13 -96h-635zM367 1858q0 31 24.5 55t54.5 24 q23 0 36.5 -10t41.5 -47l232 -295h-84l-275 219q-31 27 -30 54z" />
<glyph unicode="&#xcd;" horiz-adv-x="833" d="M-68 0l11 96q143 2 172 29q18 18 47 127l262 975q20 80 20 100q0 35 -31.5 45t-131.5 10h-45l12 97h635l-11 -97q-143 -2 -172 -28q-18 -18 -47 -127l-262 -975q-20 -78 -20 -98q0 -35 31.5 -46.5t132.5 -11.5h45l-13 -96h-635zM379 1585l283 293q59 61 102 61 q29 0 50.5 -20.5t21.5 -48.5q0 -45 -52 -80l-325 -205h-80z" />
<glyph unicode="&#xce;" horiz-adv-x="833" d="M-68 0l11 96q143 2 172 29q18 18 47 127l262 975q20 80 20 100q0 35 -31.5 45t-131.5 10h-45l12 97h635l-11 -97q-143 -2 -172 -28q-18 -18 -47 -127l-262 -975q-20 -78 -20 -98q0 -35 31.5 -46.5t132.5 -11.5h45l-13 -96h-635zM281 1585l313 340h102l187 -340h-74 l-176 207l-279 -207h-73z" />
<glyph unicode="&#xcf;" horiz-adv-x="833" d="M-68 0l11 96q143 2 172 29q18 18 47 127l262 975q20 80 20 100q0 35 -31.5 45t-131.5 10h-45l12 97h635l-11 -97q-143 -2 -172 -28q-18 -18 -47 -127l-262 -975q-20 -78 -20 -98q0 -35 31.5 -46.5t132.5 -11.5h45l-13 -96h-635zM299 1763q0 41 29.5 71t70.5 30t71 -30 t30 -71t-30 -70.5t-73 -29.5q-41 0 -69.5 29.5t-28.5 70.5zM713 1763q0 41 29.5 71t70.5 30t70.5 -30t29.5 -71t-29.5 -70.5t-72.5 -29.5q-41 0 -69.5 29.5t-28.5 70.5z" />
<glyph unicode="&#xd0;" horiz-adv-x="1593" d="M-78 0l10 96h11q139 0 170 29q12 12 19 29.5t28 97.5l123 473h-209l24 96h211l113 406q18 66 18 100.5t-30.5 44.5t-130.5 10h-54l13 97h593q172 0 279 -24.5t182 -82.5q213 -160 213 -481q0 -205 -97 -403.5t-261 -329.5q-199 -158 -592 -158h-633zM371 154 q0 -57 94 -58h65q289 0 420 117q125 113 215 340t90 430q0 215 -98 309q-90 90 -285 90h-61q-84 0 -115 -30q-16 -16 -41 -103l-116 -428h405l-24 -96h-408l-129 -500q-12 -39 -12 -71z" />
<glyph unicode="&#xd1;" horiz-adv-x="1669" d="M-98 0l10 96q94 2 141 29t81 95.5t75 223.5l233 873q-12 41 -35.5 53t-97.5 12h-106l10 97h432l518 -1131l185 686q47 190 47 236q0 113 -185 112l13 97h536l-10 -97q-129 -4 -181 -65.5t-110 -282.5l-284 -1063h-80l-570 1231l-202 -758q-49 -190 -50 -235 q0 -113 185 -113h22l-12 -96h-565zM715 1663q18 100 66 156.5t118 56.5q45 0 205 -53q82 -31 121 -31q65 0 100 86h61q-8 -86 -65 -149.5t-125 -63.5q-51 0 -176 47q-113 41 -152 41q-66 0 -92 -90h-61z" />
<glyph unicode="&#xd2;" horiz-adv-x="1593" d="M82 563q0 389 264 670q258 276 590 276q240 0 405 -161q164 -162 164 -426q0 -197 -77.5 -382.5t-219.5 -326.5q-248 -244 -569 -244q-256 0 -406.5 161t-150.5 433zM324 424q0 -170 86 -268.5t233 -98.5q121 0 226.5 62.5t174.5 175.5q96 154 159 358.5t63 362.5 q0 72 -20.5 153.5t-49.5 128.5q-33 55 -103.5 89t-150.5 34q-207 0 -367 -204q-100 -129 -175.5 -368t-75.5 -425zM748 1858q0 31 24.5 55t54.5 24q23 0 36.5 -10t41.5 -47l232 -295h-84l-275 219q-31 27 -30 54z" />
<glyph unicode="&#xd3;" horiz-adv-x="1593" d="M82 563q0 389 264 670q258 276 590 276q240 0 405 -161q164 -162 164 -426q0 -197 -77.5 -382.5t-219.5 -326.5q-248 -244 -569 -244q-256 0 -406.5 161t-150.5 433zM324 424q0 -170 86 -268.5t233 -98.5q121 0 226.5 62.5t174.5 175.5q96 154 159 358.5t63 362.5 q0 72 -20.5 153.5t-49.5 128.5q-33 55 -103.5 89t-150.5 34q-207 0 -367 -204q-100 -129 -175.5 -368t-75.5 -425zM883 1585l282 293q59 61 103 61q29 0 50 -20.5t21 -48.5q0 -45 -51 -80l-325 -205h-80z" />
<glyph unicode="&#xd4;" horiz-adv-x="1593" d="M82 563q0 389 264 670q258 276 590 276q240 0 405 -161q164 -162 164 -426q0 -197 -77.5 -382.5t-219.5 -326.5q-248 -244 -569 -244q-256 0 -406.5 161t-150.5 433zM324 424q0 -170 86 -268.5t233 -98.5q121 0 226.5 62.5t174.5 175.5q96 154 159 358.5t63 362.5 q0 72 -20.5 153.5t-49.5 128.5q-33 55 -103.5 89t-150.5 34q-207 0 -367 -204q-100 -129 -175.5 -368t-75.5 -425zM688 1585l313 340h103l186 -340h-73l-177 207l-278 -207h-74z" />
<glyph unicode="&#xd5;" horiz-adv-x="1593" d="M82 563q0 389 264 670q258 276 590 276q240 0 405 -161q164 -162 164 -426q0 -197 -77.5 -382.5t-219.5 -326.5q-248 -244 -569 -244q-256 0 -406.5 161t-150.5 433zM324 424q0 -170 86 -268.5t233 -98.5q121 0 226.5 62.5t174.5 175.5q96 154 159 358.5t63 362.5 q0 72 -20.5 153.5t-49.5 128.5q-33 55 -103.5 89t-150.5 34q-207 0 -367 -204q-100 -129 -175.5 -368t-75.5 -425zM719 1663q18 100 66.5 156.5t117.5 56.5q45 0 205 -53q82 -31 121 -31q65 0 100 86h62q-8 -86 -65.5 -149.5t-125.5 -63.5q-51 0 -176 47q-113 41 -152 41 q-66 0 -92 -90h-61z" />
<glyph unicode="&#xd6;" horiz-adv-x="1593" d="M82 563q0 389 264 670q258 276 590 276q240 0 405 -161q164 -162 164 -426q0 -197 -77.5 -382.5t-219.5 -326.5q-248 -244 -569 -244q-256 0 -406.5 161t-150.5 433zM324 424q0 -170 86 -268.5t233 -98.5q121 0 226.5 62.5t174.5 175.5q96 154 159 358.5t63 362.5 q0 72 -20.5 153.5t-49.5 128.5q-33 55 -103.5 89t-150.5 34q-207 0 -367 -204q-100 -129 -175.5 -368t-75.5 -425zM727 1763q0 41 29.5 71t70.5 30t71 -30t30 -71t-30 -70.5t-73 -29.5q-41 0 -69.5 29.5t-28.5 70.5zM1141 1763q0 41 29.5 71t70.5 30t70.5 -30t29.5 -71 t-29.5 -70.5t-72.5 -29.5q-41 0 -69.5 29.5t-28.5 70.5z" />
<glyph unicode="&#xd7;" horiz-adv-x="1241" d="M76 119l397 399l-397 397l114 117l400 -399l399 399l117 -114l-399 -400l399 -401l-117 -115l-399 399l-400 -399z" />
<glyph unicode="&#xd8;" horiz-adv-x="1593" d="M2 -178l242 297q-162 158 -162 446q0 246 116.5 465t313.5 349t416 130q200 1 350 -108l108 135h119l-157 -195q158 -164 157 -417q0 -199 -77.5 -384.5t-219.5 -326.5q-248 -244 -567 -244q-190 0 -328 90l-192 -237h-119zM324 428q-1 -96 28 -172l844 1042 q-80 121 -260 121q-203 0 -361 -202q-100 -131 -175.5 -369t-75.5 -420zM399 168q84 -109 246 -109q117 0 222.5 62.5t176.5 173.5q98 156 157 356.5t59 390.5q0 88 -23 162z" />
<glyph unicode="&#xd9;" horiz-adv-x="1669" d="M190 360q0 94 41 242l168 625q18 74 19 100q0 35 -31 45t-131 10h-51l10 97h651l-12 -97h-8q-141 0 -170 -28q-14 -12 -20.5 -28.5t-26.5 -98.5l-185 -682q-29 -115 -28 -211q0 -131 87 -204t242 -73q238 0 357 172q37 51 62.5 123t70.5 242l119 440q47 190 47 236 q0 115 -191 112l13 97h538l-10 -97q-74 -4 -108.5 -11t-68.5 -48t-53.5 -99.5t-56.5 -189.5l-114 -432q-55 -209 -84 -280q-47 -125 -111.5 -196t-165.5 -110q-123 -47 -287 -47q-250 0 -381 100.5t-131 290.5zM717 1858q0 31 24.5 55t55.5 24q23 0 36 -10t41 -47l232 -295 h-84l-274 219q-31 27 -31 54z" />
<glyph unicode="&#xda;" horiz-adv-x="1669" d="M190 360q0 94 41 242l168 625q18 74 19 100q0 35 -31 45t-131 10h-51l10 97h651l-12 -97h-8q-141 0 -170 -28q-14 -12 -20.5 -28.5t-26.5 -98.5l-185 -682q-29 -115 -28 -211q0 -131 87 -204t242 -73q238 0 357 172q37 51 62.5 123t70.5 242l119 440q47 190 47 236 q0 115 -191 112l13 97h538l-10 -97q-74 -4 -108.5 -11t-68.5 -48t-53.5 -99.5t-56.5 -189.5l-114 -432q-55 -209 -84 -280q-47 -125 -111.5 -196t-165.5 -110q-123 -47 -287 -47q-250 0 -381 100.5t-131 290.5zM975 1585l282 293q59 61 103 61q29 0 50.5 -20.5t21.5 -48.5 q0 -45 -52 -80l-325 -205h-80z" />
<glyph unicode="&#xdb;" horiz-adv-x="1669" d="M190 360q0 94 41 242l168 625q18 74 19 100q0 35 -31 45t-131 10h-51l10 97h651l-12 -97h-8q-141 0 -170 -28q-14 -12 -20.5 -28.5t-26.5 -98.5l-185 -682q-29 -115 -28 -211q0 -131 87 -204t242 -73q238 0 357 172q37 51 62.5 123t70.5 242l119 440q47 190 47 236 q0 115 -191 112l13 97h538l-10 -97q-74 -4 -108.5 -11t-68.5 -48t-53.5 -99.5t-56.5 -189.5l-114 -432q-55 -209 -84 -280q-47 -125 -111.5 -196t-165.5 -110q-123 -47 -287 -47q-250 0 -381 100.5t-131 290.5zM739 1585l314 340h102l186 -340h-73l-176 207l-279 -207h-74z " />
<glyph unicode="&#xdc;" horiz-adv-x="1669" d="M190 360q0 94 41 242l168 625q18 74 19 100q0 35 -31 45t-131 10h-51l10 97h651l-12 -97h-8q-141 0 -170 -28q-14 -12 -20.5 -28.5t-26.5 -98.5l-185 -682q-29 -115 -28 -211q0 -131 87 -204t242 -73q238 0 357 172q37 51 62.5 123t70.5 242l119 440q47 190 47 236 q0 115 -191 112l13 97h538l-10 -97q-74 -4 -108.5 -11t-68.5 -48t-53.5 -99.5t-56.5 -189.5l-114 -432q-55 -209 -84 -280q-47 -125 -111.5 -196t-165.5 -110q-123 -47 -287 -47q-250 0 -381 100.5t-131 290.5zM752 1763q0 41 29.5 71t70.5 30t70.5 -30t29.5 -71 t-29.5 -70.5t-72.5 -29.5q-41 0 -69.5 29.5t-28.5 70.5zM1165 1763q0 41 30 71t71 30t70.5 -30t29.5 -71t-29.5 -70.5t-72.5 -29.5q-41 0 -70 29.5t-29 70.5z" />
<glyph unicode="&#xdd;" horiz-adv-x="1402" d="M66 1382l10 97h631l-11 -97h-57q-125 0 -125 -49q0 -23 23 -78l204 -510l349 447q53 63 53 111q0 37 -35 58t-96 21h-47l10 97h577l-10 -97q-111 -6 -176.5 -49t-173.5 -178l-410 -524l-102 -379q-20 -84 -21 -100q0 -35 32 -45.5t132 -10.5h74l-10 -96h-711l12 96h45 q141 0 170 29q14 12 19.5 27.5t28.5 99.5l102 379l-246 610q-35 86 -76 113.5t-131 27.5h-34zM745 1585l283 293q59 61 102 61q29 0 50.5 -20.5t21.5 -48.5q0 -45 -51 -80l-326 -205h-80z" />
<glyph unicode="&#xde;" horiz-adv-x="1366" d="M-68 0l11 96q143 2 172 29q18 18 47 127l262 977q20 80 20 98q0 35 -31.5 45t-131.5 10h-45l12 97h635l-11 -97q-125 -2 -156.5 -16t-47.5 -80q-4 -25 -15 -57l-6 -19h125q246 0 354 -73q152 -104 152 -297q0 -254 -223 -375q-104 -55 -205.5 -69.5t-386.5 -14.5h-37 l-35 -129q-20 -78 -20 -98q0 -35 31.5 -46.5t132.5 -11.5h45l-13 -96h-635zM453 477h39q201 0 229 4q160 14 240 113q88 111 88 268q0 137 -68 194.5t-229 57.5h-25q-63 0 -89 -19.5t-42 -78.5z" />
<glyph unicode="&#xdf;" horiz-adv-x="1138" d="M-156 -414q97 156 265 774l90 359q66 262 114.5 394t112.5 220q129 174 324 174q147 0 236 -79.5t89 -213.5q0 -195 -157 -311q-55 -39 -146 -69q188 -127 189 -328q0 -215 -123 -381q-51 -72 -128 -113t-161 -41q-94 0 -155.5 49.5t-61.5 126.5q0 51 30.5 85t77.5 34 q41 0 71 -25.5t30 -60.5q0 -29 -19 -69q-10 -25 -10 -35t13.5 -19.5t29.5 -9.5q68 0 135 152q90 203 90 411q0 131 -90 183q-25 14 -106 30q-59 8 -60 45q0 16 12.5 27.5t26.5 11.5q6 0 64 -10q45 -6 65 -6q84 0 147.5 108.5t63.5 251.5q0 88 -43 136.5t-121 48.5 q-147 0 -233 -226q-25 -59 -139 -505l-72 -293q-98 -430 -234 -789z" />
<glyph unicode="&#xe0;" horiz-adv-x="1175" d="M2 303q0 256 166 471q147 188 338 189q100 0 169.5 -60.5t80.5 -154.5l55 184h178l-205 -688q-23 -80 -22 -111q0 -20 13 -35.5t30 -15.5q82 0 203 242l63 -35q-35 -78 -100 -170q-106 -150 -240 -150q-55 0 -90 37t-35 96q0 27 10 66q-76 -111 -145.5 -155t-165.5 -44 q-137 0 -220 91.5t-83 242.5zM188 274q0 -94 44 -147t120 -53q147 0 240 184q104 213 104 410q0 84 -41.5 133t-113.5 49q-96 0 -164 -72q-82 -84 -135.5 -226t-53.5 -278zM371 1335q0 31 24.5 55.5t55.5 24.5q23 0 37 -10t40 -47l232 -295h-84l-275 219q-31 25 -30 53z" />
<glyph unicode="&#xe1;" horiz-adv-x="1175" d="M2 303q0 256 166 471q147 188 338 189q100 0 169.5 -60.5t80.5 -154.5l55 184h178l-205 -688q-23 -80 -22 -111q0 -20 13 -35.5t30 -15.5q82 0 203 242l63 -35q-35 -78 -100 -170q-106 -150 -240 -150q-55 0 -90 37t-35 96q0 27 10 66q-76 -111 -145.5 -155t-165.5 -44 q-137 0 -220 91.5t-83 242.5zM188 274q0 -94 44 -147t120 -53q147 0 240 184q104 213 104 410q0 84 -41.5 133t-113.5 49q-96 0 -164 -72q-82 -84 -135.5 -226t-53.5 -278zM518 1063l283 287q63 61 102 61q29 0 50.5 -21.5t21.5 -50.5q0 -45 -51 -79l-326 -197h-80z" />
<glyph unicode="&#xe2;" horiz-adv-x="1175" d="M2 303q0 256 166 471q147 188 338 189q100 0 169.5 -60.5t80.5 -154.5l55 184h178l-205 -688q-23 -80 -22 -111q0 -20 13 -35.5t30 -15.5q82 0 203 242l63 -35q-35 -78 -100 -170q-106 -150 -240 -150q-55 0 -90 37t-35 96q0 27 10 66q-76 -111 -145.5 -155t-165.5 -44 q-137 0 -220 91.5t-83 242.5zM188 274q0 -94 44 -147t120 -53q147 0 240 184q104 213 104 410q0 84 -41.5 133t-113.5 49q-96 0 -164 -72q-82 -84 -135.5 -226t-53.5 -278zM336 1063l313 346h103l186 -346h-74l-176 213l-278 -213h-74z" />
<glyph unicode="&#xe3;" horiz-adv-x="1175" d="M2 303q0 256 166 471q147 188 338 189q100 0 169.5 -60.5t80.5 -154.5l55 184h178l-205 -688q-23 -80 -22 -111q0 -20 13 -35.5t30 -15.5q82 0 203 242l63 -35q-35 -78 -100 -170q-106 -150 -240 -150q-55 0 -90 37t-35 96q0 27 10 66q-76 -111 -145.5 -155t-165.5 -44 q-137 0 -220 91.5t-83 242.5zM188 274q0 -94 44 -147t120 -53q147 0 240 184q104 213 104 410q0 84 -41.5 133t-113.5 49q-96 0 -164 -72q-82 -84 -135.5 -226t-53.5 -278zM367 1114q18 102 66 158.5t118 56.5q47 0 205 -53q86 -31 121 -31q65 0 100 86h61 q-10 -88 -66.5 -151.5t-123.5 -63.5q-53 0 -176 47q-119 43 -152 43q-68 0 -92 -92h-61z" />
<glyph unicode="&#xe4;" horiz-adv-x="1175" d="M2 303q0 256 166 471q147 188 338 189q100 0 169.5 -60.5t80.5 -154.5l55 184h178l-205 -688q-23 -80 -22 -111q0 -20 13 -35.5t30 -15.5q82 0 203 242l63 -35q-35 -78 -100 -170q-106 -150 -240 -150q-55 0 -90 37t-35 96q0 27 10 66q-76 -111 -145.5 -155t-165.5 -44 q-137 0 -220 91.5t-83 242.5zM188 274q0 -94 44 -147t120 -53q147 0 240 184q104 213 104 410q0 84 -41.5 133t-113.5 49q-96 0 -164 -72q-82 -84 -135.5 -226t-53.5 -278zM369 1219q0 41 29.5 70.5t70.5 29.5t70.5 -29.5t29.5 -70.5t-29.5 -71t-70.5 -30t-70.5 30t-29.5 71 zM782 1219q0 41 30 70.5t71 29.5t70.5 -29.5t29.5 -70.5t-29.5 -71t-70.5 -30t-71 30t-30 71z" />
<glyph unicode="&#xe5;" horiz-adv-x="1175" d="M2 303q0 256 166 471q147 188 338 189q100 0 169.5 -60.5t80.5 -154.5l55 184h178l-205 -688q-23 -80 -22 -111q0 -20 13 -35.5t30 -15.5q82 0 203 242l63 -35q-35 -78 -100 -170q-106 -150 -240 -150q-55 0 -90 37t-35 96q0 27 10 66q-76 -111 -145.5 -155t-165.5 -44 q-137 0 -220 91.5t-83 242.5zM188 274q0 -94 44 -147t120 -53q147 0 240 184q104 213 104 410q0 84 -41.5 133t-113.5 49q-96 0 -164 -72q-82 -84 -135.5 -226t-53.5 -278zM471 1255q0 84 60.5 143.5t144.5 59.5q82 0 142.5 -59.5t60.5 -143.5q0 -86 -60.5 -145t-146.5 -59 q-82 0 -141.5 60t-59.5 144zM545 1255.5q0 -53.5 38 -92.5t91 -39q55 0 93 38t38 93q0 51 -38 90t-91 39t-92 -37.5t-39 -91z" />
<glyph unicode="&#xe6;" horiz-adv-x="1478" d="M-37 172q0 100 74 172t229 121q127 37 355 67q31 121 30 181q0 76 -56 123t-149 47q-59 0 -102 -18.5t-43 -45.5q0 -8 16 -20q35 -29 35 -84q0 -47 -29.5 -75t-78.5 -28q-51 0 -81 31t-30 84q0 98 96.5 167t233.5 69q195 0 313 -150q162 150 354 150q106 0 171 -56.5 t65 -150.5q0 -188 -258 -283q-98 -37 -350 -80q-18 -66 -19 -112q0 -100 51.5 -156.5t143.5 -56.5q172 0 315 172l58 -54q-184 -217 -426 -217q-248 0 -291 217q-80 -119 -168 -168t-217 -49q-113 0 -177.5 54.5t-64.5 148.5zM154 195q0 -53 34.5 -88t90.5 -35 q61 0 122.5 33.5t100.5 91.5q55 82 98 254q-150 -20 -221 -43q-106 -29 -165.5 -85.5t-59.5 -127.5zM774 475q12 2 29 4q123 16 223 60q76 35 120 96t44 133q0 49 -28.5 77.5t-76.5 28.5q-121 0 -204 -137q-56 -94 -107 -262z" />
<glyph unicode="&#xe7;" horiz-adv-x="909" d="M10 338q0 248 165 436.5t380 188.5q111 0 188.5 -64.5t77.5 -157.5q0 -66 -36.5 -109.5t-92.5 -43.5q-47 0 -77.5 27.5t-30.5 72.5q0 66 75 98q33 12 33 31q0 27 -41 47.5t-90 20.5q-139 0 -237 -152q-53 -80 -89 -206t-36 -230t53 -166.5t143 -62.5q145 0 303 202 l60 -45q-152 -244 -379 -254l-55 -102q43 6 61 6q74 0 120 -39t46 -100q0 -80 -69.5 -129t-184.5 -49q-98 0 -180 34l37 68q72 -25 129 -25q51 0 81.5 23t30.5 59q0 35 -26.5 57.5t-71.5 22.5q-27 0 -68 -12l-18 12l96 174q-143 23 -220 118t-77 249z" />
<glyph unicode="&#xe8;" horiz-adv-x="909" d="M-12 324q0 250 173 444.5t396 194.5q109 0 176.5 -58.5t67.5 -152.5q0 -184 -246 -293q-104 -47 -373 -111q-4 -53 -4 -69q0 -98 53.5 -155.5t145.5 -57.5q151 0 317 172l49 -56q-164 -213 -401 -213q-166 0 -260 94.5t-94 260.5zM193 428q137 29 208 61q227 100 228 275 q0 53 -31 85t-82 32q-113 0 -200.5 -123t-122.5 -330zM264 1335q0 31 24.5 55.5t55.5 24.5q23 0 37 -10t41 -47l231 -295h-84l-274 219q-31 25 -31 53z" />
<glyph unicode="&#xe9;" horiz-adv-x="909" d="M-12 324q0 250 173 444.5t396 194.5q109 0 176.5 -58.5t67.5 -152.5q0 -184 -246 -293q-104 -47 -373 -111q-4 -53 -4 -69q0 -98 53.5 -155.5t145.5 -57.5q151 0 317 172l49 -56q-164 -213 -401 -213q-166 0 -260 94.5t-94 260.5zM193 428q137 29 208 61q227 100 228 275 q0 53 -31 85t-82 32q-113 0 -200.5 -123t-122.5 -330zM385 1063l283 287q63 61 102 61q29 0 50.5 -21.5t21.5 -50.5q0 -45 -51 -79l-326 -197h-80z" />
<glyph unicode="&#xea;" horiz-adv-x="909" d="M-12 324q0 250 173 444.5t396 194.5q109 0 176.5 -58.5t67.5 -152.5q0 -184 -246 -293q-104 -47 -373 -111q-4 -53 -4 -69q0 -98 53.5 -155.5t145.5 -57.5q151 0 317 172l49 -56q-164 -213 -401 -213q-166 0 -260 94.5t-94 260.5zM193 428q137 29 208 61q227 100 228 275 q0 53 -31 85t-82 32q-113 0 -200.5 -123t-122.5 -330zM199 1063l313 346h102l187 -346h-74l-176 213l-279 -213h-73z" />
<glyph unicode="&#xeb;" horiz-adv-x="909" d="M-12 324q0 250 173 444.5t396 194.5q109 0 176.5 -58.5t67.5 -152.5q0 -184 -246 -293q-104 -47 -373 -111q-4 -53 -4 -69q0 -98 53.5 -155.5t145.5 -57.5q151 0 317 172l49 -56q-164 -213 -401 -213q-166 0 -260 94.5t-94 260.5zM193 428q137 29 208 61q227 100 228 275 q0 53 -31 85t-82 32q-113 0 -200.5 -123t-122.5 -330zM215 1219q0 41 29.5 70.5t70.5 29.5t71 -29.5t30 -70.5t-30 -71t-71 -30t-70.5 30t-29.5 71zM629 1219q0 41 29.5 70.5t70.5 29.5t70.5 -29.5t29.5 -70.5t-29.5 -71t-70.5 -30t-70.5 30t-29.5 71z" />
<glyph unicode="&#xec;" d="M55 98q0 49 45 207l119 400q18 68 19 90q0 63 -117 63h-49l8 74l393 31l-217 -732q-25 -86 -25 -114q0 -43 35 -43q86 0 248 248l64 -35q-78 -119 -127 -174q-123 -141 -254 -142q-59 0 -100.5 37t-41.5 90zM55 1335q0 31 24.5 55.5t55.5 24.5q23 0 37 -10t41 -47 l231 -295h-84l-274 219q-31 25 -31 53z" />
<glyph unicode="&#xed;" d="M55 98q0 49 45 207l119 400q18 68 19 90q0 63 -117 63h-49l8 74l393 31l-217 -732q-25 -86 -25 -114q0 -43 35 -43q86 0 248 248l64 -35q-78 -119 -127 -174q-123 -141 -254 -142q-59 0 -100.5 37t-41.5 90zM270 1063l283 287q63 61 102 61q29 0 50.5 -21.5t21.5 -50.5 q0 -45 -51 -79l-326 -197h-80z" />
<glyph unicode="&#xee;" d="M-6 1063l313 346h103l186 -346h-74l-176 213l-278 -213h-74zM55 98q0 49 45 207l119 400q18 68 19 90q0 63 -117 63h-49l8 74l393 31l-217 -732q-25 -86 -25 -114q0 -43 35 -43q86 0 248 248l64 -35q-78 -119 -127 -174q-123 -141 -254 -142q-59 0 -100.5 37t-41.5 90z " />
<glyph unicode="&#xef;" d="M55 98q0 49 45 207l119 400q18 68 19 90q0 63 -117 63h-49l8 74l393 31l-217 -732q-25 -86 -25 -114q0 -43 35 -43q86 0 248 248l64 -35q-186 -315 -383 -316q-59 0 -99.5 37t-40.5 90zM100 1219q0 41 30 70.5t71 29.5t70.5 -29.5t29.5 -70.5t-29.5 -71t-70.5 -30t-71 30 t-30 71zM514 1219q0 41 29.5 70.5t70.5 29.5t71 -29.5t30 -70.5t-30 -71t-71 -30t-70.5 30t-29.5 71z" />
<glyph unicode="&#xf0;" horiz-adv-x="1024" d="M10 354q0 254 172 432q170 176 379 177q69 0 139 -31l-6 12l-35 68q-63 115 -137 182l-276 -137l-35 71l248 125q-66 55 -150 123l78 80q109 -59 207 -135l291 145l37 -71l-258 -129q137 -137 198 -303q59 -166 60 -365q0 -219 -121 -393q-164 -236 -426 -236 q-168 0 -266.5 104.5t-98.5 280.5zM195 262q0 -215 182 -215q174 0 276 254q74 178 74 330q0 121 -47 187.5t-131 66.5q-115 0 -201 -111q-63 -84 -108 -234.5t-45 -277.5z" />
<glyph unicode="&#xf1;" horiz-adv-x="1251" d="M29 0l209 705q18 68 18 90q0 63 -117 63h-49l8 74l371 31l-59 -277q201 276 378 277q82 0 139.5 -58.5t57.5 -140.5q0 -92 -49 -232l-96 -282q-39 -106 -39 -137q0 -16 10 -27.5t27 -11.5q98 0 254 245l59 -43q-178 -307 -375 -307q-61 0 -102 43t-41 109q0 61 37 172 l108 319q31 94 31 144q0 35 -23.5 59.5t-58.5 24.5q-66 0 -142.5 -56.5t-142.5 -154.5q-55 -80 -82.5 -144.5t-68.5 -199.5l-84 -285h-178zM365 1114q18 102 66 158.5t118 56.5q47 0 205 -53q86 -31 120 -31q66 0 101 86h61q-10 -88 -66.5 -151.5t-123.5 -63.5 q-53 0 -176 47q-119 43 -152 43q-68 0 -92 -92h-61z" />
<glyph unicode="&#xf2;" horiz-adv-x="1024" d="M10 352q0 256 172 434q170 177 377 177q150 0 256.5 -114t106.5 -274q0 -242 -174 -438q-150 -168 -373 -168q-168 0 -266.5 103.5t-98.5 279.5zM195 262q0 -215 182 -215q82 0 141.5 48t112.5 155q41 84 68.5 193.5t27.5 189.5q0 119 -47 185.5t-131 66.5 q-115 0 -201 -111q-63 -84 -108 -234.5t-45 -277.5zM324 1335q0 31 24.5 55.5t54.5 24.5q23 0 37.5 -10t40.5 -47l232 -295h-84l-275 219q-31 25 -30 53z" />
<glyph unicode="&#xf3;" horiz-adv-x="1024" d="M10 352q0 256 172 434q170 177 377 177q150 0 256.5 -114t106.5 -274q0 -242 -174 -438q-150 -168 -373 -168q-168 0 -266.5 103.5t-98.5 279.5zM195 262q0 -215 182 -215q82 0 141.5 48t112.5 155q41 84 68.5 193.5t27.5 189.5q0 119 -47 185.5t-131 66.5 q-115 0 -201 -111q-63 -84 -108 -234.5t-45 -277.5zM465 1063l283 287q63 61 102 61q29 0 50.5 -21.5t21.5 -50.5q0 -45 -52 -79l-325 -197h-80z" />
<glyph unicode="&#xf4;" horiz-adv-x="1024" d="M10 352q0 256 172 434q170 177 377 177q150 0 256.5 -114t106.5 -274q0 -242 -174 -438q-150 -168 -373 -168q-168 0 -266.5 103.5t-98.5 279.5zM195 262q0 -215 182 -215q82 0 141.5 48t112.5 155q41 84 68.5 193.5t27.5 189.5q0 119 -47 185.5t-131 66.5 q-115 0 -201 -111q-63 -84 -108 -234.5t-45 -277.5zM289 1063l313 346h103l186 -346h-74l-176 213l-279 -213h-73z" />
<glyph unicode="&#xf5;" horiz-adv-x="1024" d="M10 352q0 256 172 434q170 177 377 177q150 0 256.5 -114t106.5 -274q0 -242 -174 -438q-150 -168 -373 -168q-168 0 -266.5 103.5t-98.5 279.5zM195 262q0 -215 182 -215q82 0 141.5 48t112.5 155q41 84 68.5 193.5t27.5 189.5q0 119 -47 185.5t-131 66.5 q-115 0 -201 -111q-63 -84 -108 -234.5t-45 -277.5zM258 1114q18 102 66.5 158.5t117.5 56.5q47 0 205 -53q86 -31 121 -31q65 0 100 86h62q-10 -88 -66.5 -151.5t-124.5 -63.5q-53 0 -176 47q-119 43 -151 43q-68 0 -93 -92h-61z" />
<glyph unicode="&#xf6;" horiz-adv-x="1024" d="M10 352q0 256 172 434q170 177 377 177q150 0 256.5 -114t106.5 -274q0 -242 -174 -438q-150 -168 -373 -168q-168 0 -266.5 103.5t-98.5 279.5zM195 262q0 -215 182 -215q82 0 141.5 48t112.5 155q41 84 68.5 193.5t27.5 189.5q0 119 -47 185.5t-131 66.5 q-115 0 -201 -111q-63 -84 -108 -234.5t-45 -277.5zM307 1219q0 41 30 70.5t71 29.5t70.5 -29.5t29.5 -70.5t-29.5 -71t-70.5 -30t-71 30t-30 71zM721 1219q0 41 29.5 70.5t70.5 29.5t71 -29.5t30 -70.5t-30 -71t-71 -30t-70.5 30t-29.5 71z" />
<glyph unicode="&#xf7;" horiz-adv-x="1241" d="M76 436v164h1030v-164h-1030zM465 111q0 51 38 88t91 37q51 0 88 -38t37 -89.5t-38 -89t-89 -37.5q-53 0 -90 37.5t-37 91.5zM465 930q0 51 38 88t91 37q51 0 88 -38t37 -89t-38 -89t-89 -38q-53 0 -90 38t-37 91z" />
<glyph unicode="&#xf8;" horiz-adv-x="1024" d="M-10 354q0 254 172 432q170 176 377 177q68 0 129 -25l106 184h88l-127 -221q166 -123 166 -323q0 -244 -174 -441q-150 -168 -377 -168q-61 0 -131 17l-131 -232h-88l147 264q-158 100 -157 336zM174 264q0 -77 33 -143l416 735q-43 29 -97 29q-111 0 -196 -111 q-63 -82 -109.5 -234.5t-46.5 -275.5zM264 68q43 -20 92 -21q82 0 141.5 48t112.5 155q96 197 97 389q0 88 -31 156z" />
<glyph unicode="&#xf9;" horiz-adv-x="1251" d="M84 858l6 74l395 31l-200 -672q-23 -76 -23 -117q0 -37 25.5 -62.5t62.5 -25.5q109 0 232 152.5t186 365.5l96 328h178l-202 -680q-25 -90 -25 -121q0 -20 11.5 -34.5t27.5 -14.5q66 0 223 231l62 -37q-109 -168 -193 -237.5t-178 -69.5q-57 0 -94 38t-37 97q0 53 25 140 q-174 -272 -381 -273q-86 0 -140.5 52.5t-54.5 136.5q0 47 8 80.5t56 187.5l81 277q16 59 17 88q0 35 -25.5 50t-89.5 15h-49zM420 1335q0 31 24.5 55.5t55.5 24.5q23 0 37 -10t41 -47l231 -295h-84l-274 219q-31 25 -31 53z" />
<glyph unicode="&#xfa;" horiz-adv-x="1251" d="M84 858l6 74l395 31l-200 -672q-23 -76 -23 -117q0 -37 25.5 -62.5t62.5 -25.5q109 0 232 152.5t186 365.5l96 328h178l-202 -680q-25 -90 -25 -121q0 -20 11.5 -34.5t27.5 -14.5q66 0 223 231l62 -37q-109 -168 -193 -237.5t-178 -69.5q-57 0 -94 38t-37 97q0 53 25 140 q-174 -272 -381 -273q-86 0 -140.5 52.5t-54.5 136.5q0 47 8 80.5t56 187.5l81 277q16 59 17 88q0 35 -25.5 50t-89.5 15h-49zM592 1063l282 287q63 61 103 61q29 0 50.5 -21.5t21.5 -50.5q0 -45 -52 -79l-325 -197h-80z" />
<glyph unicode="&#xfb;" horiz-adv-x="1251" d="M84 858l6 74l395 31l-200 -672q-23 -76 -23 -117q0 -37 25.5 -62.5t62.5 -25.5q109 0 232 152.5t186 365.5l96 328h178l-202 -680q-25 -90 -25 -121q0 -20 11.5 -34.5t27.5 -14.5q66 0 223 231l62 -37q-109 -168 -193 -237.5t-178 -69.5q-57 0 -94 38t-37 97q0 53 25 140 q-174 -272 -381 -273q-86 0 -140.5 52.5t-54.5 136.5q0 47 8 80.5t56 187.5l81 277q16 59 17 88q0 35 -25.5 50t-89.5 15h-49zM387 1063l313 346h103l186 -346h-74l-176 213l-278 -213h-74z" />
<glyph unicode="&#xfc;" horiz-adv-x="1251" d="M84 858l6 74l395 31l-200 -672q-23 -76 -23 -117q0 -37 25.5 -62.5t62.5 -25.5q109 0 232 152.5t186 365.5l96 328h178l-202 -680q-25 -90 -25 -121q0 -20 11.5 -34.5t27.5 -14.5q66 0 223 231l62 -37q-109 -168 -193 -237.5t-178 -69.5q-57 0 -94 38t-37 97q0 53 25 140 q-174 -272 -381 -273q-86 0 -140.5 52.5t-54.5 136.5q0 47 8 80.5t56 187.5l81 277q16 59 17 88q0 35 -25.5 50t-89.5 15h-49zM406 1219q0 41 29.5 70.5t70.5 29.5t70.5 -29.5t29.5 -70.5t-29.5 -71t-70.5 -30t-70.5 30t-29.5 71zM819 1219q0 41 30 70.5t71 29.5t70.5 -29.5 t29.5 -70.5t-29.5 -71t-70.5 -30t-71 30t-30 71z" />
<glyph unicode="&#xfd;" horiz-adv-x="1024" d="M-162 -262q0 47 31 78.5t76 31.5q66 0 88 -63q6 -16 6 -80q0 -33 39 -33q88 0 217 158q43 55 117 172q-63 360 -146 664q-33 131 -78 131q-27 0 -51 -37t-82 -160l-63 29q127 334 266 334q66 0 112 -75t81 -243l90 -432q213 338 213 506q0 37 -13 106q-4 25 -4 35 q0 41 30 72t71 31t66.5 -30t25.5 -77q0 -51 -28 -119.5t-114 -236.5q-248 -483 -411 -693q-176 -221 -350 -221q-80 0 -134.5 44t-54.5 108zM473 1063l283 287q63 61 102 61q29 0 50.5 -21.5t21.5 -50.5q0 -45 -51 -79l-326 -197h-80z" />
<glyph unicode="&#xfe;" horiz-adv-x="1175" d="M-207 -414l8 74q104 4 127 24.5t54 131.5l428 1435q18 66 18 88q0 35 -26.5 50.5t-90.5 15.5h-65l8 74l408 30l-213 -721q143 174 305 175q129 0 215 -107q68 -86 67 -227q0 -264 -164 -469q-147 -190 -368 -191q-102 0 -152.5 37t-93.5 144l-98 -334q-23 -86 -23 -105 q0 -29 29 -40t102 -11h25l-8 -74h-492zM311 260q0 -82 49.5 -135t122.5 -53q160 0 265 223q96 199 96 379q0 82 -42 131t-112 49q-129 0 -237 -160q-57 -90 -99.5 -218t-42.5 -216z" />
<glyph unicode="&#xff;" horiz-adv-x="1024" d="M-162 -262q0 47 31 78.5t76 31.5q66 0 88 -63q6 -16 6 -80q0 -33 39 -33q88 0 217 158q43 55 117 172q-63 360 -146 664q-33 131 -78 131q-27 0 -51 -37t-82 -160l-63 29q127 334 266 334q66 0 112 -75t81 -243l90 -432q213 338 213 506q0 37 -13 106q-4 25 -4 35 q0 41 30 72t71 31t66.5 -30t25.5 -77q0 -51 -28 -119.5t-114 -236.5q-248 -483 -411 -693q-176 -221 -350 -221q-80 0 -134.5 44t-54.5 108zM307 1219q0 41 30 70.5t71 29.5t70.5 -29.5t29.5 -70.5t-29.5 -71t-70.5 -30t-71 30t-30 71zM721 1219q0 41 29.5 70.5t70.5 29.5 t71 -29.5t30 -70.5t-30 -71t-71 -30t-70.5 30t-29.5 71z" />
<glyph unicode="&#x152;" horiz-adv-x="2009" d="M74 582q0 242 119.5 456.5t318.5 333.5q98 57 216 82t300 25h944l-80 -494h-92v41q2 51 2 104q0 252 -241 252h-58q-80 0 -106.5 -23.5t-50.5 -117.5l-113 -420h14q127 0 202 59.5t120 196.5l92 -12l-182 -684l-93 16q18 80 19 146q0 182 -184 182h-15l-121 -451 q-23 -90 -22 -114q0 -63 129 -64h45q129 0 233 45q78 37 139.5 105.5t125.5 191.5l43 80l84 -16l-160 -502h-1043q-260 0 -399 119q-186 158 -186 463zM326 457q0 -162 88 -262.5t227 -100.5q119 0 172 80q28 43 61 164l207 774q27 104 27 141q0 133 -193 133 q-242 0 -417 -292q-76 -127 -124 -306.5t-48 -330.5z" />
<glyph unicode="&#x153;" horiz-adv-x="1593" d="M0 362q0 248 174 424q170 176 375 177q162 0 260 -115q12 -16 43 -66q41 43 61 60q141 121 320 121q106 0 174 -59.5t68 -151.5q0 -184 -246 -293q-106 -47 -373 -111q-4 -53 -4 -69q0 -98 53 -155.5t146 -57.5q82 0 154.5 39t162.5 133l49 -56q-86 -113 -182 -163 t-223 -50q-106 0 -174 34t-119 112q-141 -145 -363 -146q-168 0 -262 104.5t-94 288.5zM186 262q0 -219 183 -219q82 0 141 48t113 157q94 195 94 409q0 102 -47 163t-129 61q-115 0 -201 -111q-63 -84 -108.5 -232.5t-45.5 -275.5zM868 428q170 39 258 88q176 96 177 248 q0 51 -31 82t-80 31q-115 0 -206 -125t-118 -324z" />
<glyph unicode="&#x178;" horiz-adv-x="1402" d="M66 1382l10 97h631l-11 -97h-57q-125 0 -125 -49q0 -23 23 -78l204 -510l349 447q53 63 53 111q0 37 -35 58t-96 21h-47l10 97h577l-10 -97q-111 -6 -176.5 -49t-173.5 -178l-410 -524l-102 -379q-20 -84 -21 -100q0 -35 32 -45.5t132 -10.5h74l-10 -96h-711l12 96h45 q141 0 170 29q14 12 19.5 27.5t28.5 99.5l102 379l-246 610q-35 86 -76 113.5t-131 27.5h-34zM569 1763q0 41 30 71t71 30t70.5 -30t29.5 -71t-29.5 -70.5t-72.5 -29.5q-41 0 -70 29.5t-29 70.5zM983 1763q0 41 29.5 71t70.5 30t71 -30t30 -71t-30 -70.5t-73 -29.5 q-41 0 -69.5 29.5t-28.5 70.5z" />
<glyph unicode="&#x2c6;" d="M76 1063l313 346h103l186 -346h-74l-176 213l-278 -213h-74z" />
<glyph unicode="&#x2dc;" d="M106 1114q18 102 66.5 158.5t118.5 56.5q47 0 205 -53q86 -31 120 -31q66 0 101 86h61q-10 -88 -66.5 -151.5t-123.5 -63.5q-53 0 -176 47q-119 43 -152 43q-68 0 -92 -92h-62z" />
<glyph unicode="&#x2000;" horiz-adv-x="989" />
<glyph unicode="&#x2001;" horiz-adv-x="1978" />
<glyph unicode="&#x2002;" horiz-adv-x="989" />
<glyph unicode="&#x2003;" horiz-adv-x="1978" />
<glyph unicode="&#x2004;" horiz-adv-x="659" />
<glyph unicode="&#x2005;" horiz-adv-x="494" />
<glyph unicode="&#x2006;" horiz-adv-x="329" />
<glyph unicode="&#x2007;" horiz-adv-x="329" />
<glyph unicode="&#x2008;" horiz-adv-x="247" />
<glyph unicode="&#x2009;" horiz-adv-x="395" />
<glyph unicode="&#x200a;" horiz-adv-x="109" />
<glyph unicode="&#x2010;" d="M66 399l45 170h419l-45 -170h-419z" />
<glyph unicode="&#x2011;" d="M66 399l45 170h419l-45 -170h-419z" />
<glyph unicode="&#x2012;" d="M66 399l45 170h419l-45 -170h-419z" />
<glyph unicode="&#x2013;" horiz-adv-x="1024" d="M-37 422l33 125h1065l-33 -125h-1065z" />
<glyph unicode="&#x2014;" horiz-adv-x="2048" d="M-37 422l33 125h2089l-33 -125h-2089z" />
<glyph unicode="&#x2018;" horiz-adv-x="417" d="M125 1108q0 119 99 227t265 174l27 -63q-231 -106 -260 -266h35q51 0 83 -30t32 -79q0 -53 -40 -90t-98 -37q-61 0 -102 47t-41 117z" />
<glyph unicode="&#x2019;" horiz-adv-x="417" d="M80 950q231 106 260 269q-14 -2 -35 -2q-51 0 -83 29.5t-32 78.5q0 53 40 90t98 37q61 0 102 -47t41 -117q0 -119 -99.5 -227t-265.5 -174z" />
<glyph unicode="&#x201a;" horiz-adv-x="417" d="M-162 -279q231 106 260 269q-14 -2 -35 -2q-51 0 -82.5 29.5t-31.5 78.5q0 53 40 90t97 37q61 0 102 -47t41 -117q0 -119 -99 -227t-265 -174z" />
<glyph unicode="&#x201c;" horiz-adv-x="796" d="M129 1108q0 119 99.5 227t265.5 174l26 -63q-231 -106 -260 -266h35q51 0 83 -30t32 -79q0 -53 -40 -90t-98 -37q-61 0 -102 47t-41 117zM494 1108q0 119 99 227t265 174l27 -63q-231 -106 -260 -266h34q51 0 83 -30t32 -79q0 -53 -40 -90t-97 -37q-61 0 -102 47t-41 117 z" />
<glyph unicode="&#x201d;" horiz-adv-x="796" d="M78 1008q231 109 260 268q-14 -2 -35 -2q-51 0 -83 29.5t-32 78.5q0 53 40 90t98 37q61 0 102 -47t41 -116q0 -119 -98.5 -227.5t-266.5 -174.5zM442 1008q229 106 260 268q-14 -2 -34 -2q-51 0 -83 29.5t-32 78.5q0 53 40 90t97 37q61 0 102.5 -47t41.5 -116 q0 -119 -99.5 -227.5t-265.5 -174.5z" />
<glyph unicode="&#x201e;" horiz-adv-x="796" d="M-162 -279q231 106 260 269q-14 -2 -35 -2q-51 0 -82.5 29.5t-31.5 78.5q0 53 40 90t97 37q61 0 102 -47t41 -117q0 -119 -99 -227t-265 -174zM201 -279q231 106 260 269q-14 -2 -35 -2q-51 0 -83 29.5t-32 78.5q0 53 40 90t98 37q61 0 102 -47t41 -117 q0 -119 -99.5 -227t-265.5 -174z" />
<glyph unicode="&#x2022;" horiz-adv-x="1241" d="M233 791q0 143 101.5 243.5t245 100.5t244 -100.5t100.5 -243.5q0 -145 -101.5 -246t-247.5 -101q-139 0 -240.5 102.5t-101.5 244.5z" />
<glyph unicode="&#x2026;" horiz-adv-x="2048" d="M113 96q0 51 37.5 89t89 38t89.5 -38t38 -89q0 -53 -38 -90t-91 -37q-51 0 -88 38t-37 89zM795 96q0 51 36.5 89t90 38t90.5 -38t37 -89q0 -53 -38 -90t-91 -37q-51 0 -88 38t-37 89zM1477 96q0 51 37.5 89t89 38t89.5 -38t38 -89q0 -53 -38 -90t-91 -37q-51 0 -88 38 t-37 89z" />
<glyph unicode="&#x202f;" horiz-adv-x="395" />
<glyph unicode="&#x2039;" d="M86 498q86 66 94 71l287 224q39 31 49 30q18 0 19 -26q0 -14 -15.5 -33t-109.5 -115l-160 -172l125 -244q4 -16 4 -24q0 -35 -33 -35q-14 0 -37 31l-86 117l-94 120q-2 2 -8 10.5t-14.5 19.5t-20.5 26z" />
<glyph unicode="&#x203a;" d="M82 201q0 14 15.5 32.5t107.5 114.5l162 172l-125 244q-4 12 -4 24q0 35 32 35q14 0 37 -30q8 -12 17.5 -24.5t29 -39.5t39.5 -53l137 -178l-380 -293q-39 -31 -50 -31q-18 0 -18 27z" />
<glyph unicode="&#x205f;" horiz-adv-x="494" />
<glyph unicode="&#x20ac;" horiz-adv-x="1138" d="M-59 518l71 117h70q10 57 43 153h-115l72 117h90q59 125 135 219q270 336 561 336q82 0 136.5 -27.5t119.5 -105.5l101 117h63l-96 -418h-74q-12 141 -38.5 204.5t-89 100.5t-142.5 37q-117 0 -221.5 -82t-182.5 -235q-23 -41 -61 -146h616l-71 -117h-584 q-12 -37 -43 -153h547l-72 -117h-500q-16 -84 -16 -162q0 -295 252 -295q119 0 211 62.5t195 212.5l-54 -199q-180 -168 -395 -168q-190 0 -300 126t-110 343q0 18 4 80h-122z" />
<glyph unicode="&#x2122;" horiz-adv-x="1945" d="M98 1122l21 357h737l21 -357h-76q-18 145 -63.5 211t-127.5 66q-43 0 -43 -31v-618q0 -59 6 -66q10 -12 89 -12h43v-82h-435v82h43q78 0 90 12q4 6 5 66v618q0 31 -43 31q-115 0 -158 -125q-16 -45 -33 -152h-76zM881 590v82q88 2 112.5 35.5t24.5 154.5v459q0 59 -4 65 q-12 12 -90 13h-35v80h328l231 -613l219 613h322v-80h-35q-78 0 -90 -13q-4 -6 -4 -65v-571q0 -59 4 -66q12 -12 90 -12h35v-82h-418v82h35q78 0 90 12q4 6 4 66v571l-262 -729h-52l-278 731v-461q0 -121 24.5 -154.5t112.5 -35.5v-82h-364z" />
<glyph unicode="&#x25fc;" horiz-adv-x="962" d="M0 0v963h963v-963h-963z" />
</font>
</defs>
</svg>
